<?xml version="1.0" encoding="UTF-8" standalone="no"?>
<svg
   xmlns:dc="http://purl.org/dc/elements/1.1/"
   xmlns:cc="http://creativecommons.org/ns#"
   xmlns:rdf="http://www.w3.org/1999/02/22-rdf-syntax-ns#"
   xmlns:svg="http://www.w3.org/2000/svg"
   xmlns="http://www.w3.org/2000/svg"
   xmlns:xlink="http://www.w3.org/1999/xlink"
   xmlns:sodipodi="http://sodipodi.sourceforge.net/DTD/sodipodi-0.dtd"
   xmlns:inkscape="http://www.inkscape.org/namespaces/inkscape"
   width="100"
   height="100"
   class="axeFormation-image"
   id="svg2"
   version="1.1"
   inkscape:version="0.91 r13725"
   sodipodi:docname="ink-logo-formation.svg">
  <metadata
     id="metadata37">
    <rdf:RDF>
      <cc:Work
         rdf:about="">
        <dc:format>image/svg+xml</dc:format>
        <dc:type
           rdf:resource="http://purl.org/dc/dcmitype/StillImage" />
        <dc:title></dc:title>
      </cc:Work>
    </rdf:RDF>
  </metadata>
  <defs
     id="defs35" />
  <sodipodi:namedview
     pagecolor="#ffffff"
     bordercolor="#666666"
     borderopacity="1"
     objecttolerance="10"
     gridtolerance="10"
     guidetolerance="10"
     inkscape:pageopacity="0"
     inkscape:pageshadow="2"
     inkscape:window-width="640"
     inkscape:window-height="480"
     id="namedview33"
     showgrid="false"
     inkscape:zoom="5.3588034"
     inkscape:cx="35.319922"
     inkscape:cy="44.662504"
     inkscape:current-layer="svg2" />
  <path
     style="opacity:1;fill:none;fill-opacity:1;fill-rule:nonzero;stroke:#000000;stroke-width:2.5;stroke-linejoin:round;stroke-miterlimit:4;stroke-dasharray:none"
     d="m 71.267522,39.157038 1.312532,0 0,-32.9170886 -64.3410022,0 0,32.9170886 57.6092282,0"
     id="rect4203"
     inkscape:connector-curvature="0"
     sodipodi:nodetypes="cccccc" />
  <path
     style="opacity:1;fill:none;fill-opacity:1;fill-rule:nonzero;stroke:#000000;stroke-width:2.5;stroke-linejoin:round;stroke-miterlimit:4;stroke-dasharray:none"
     d="m 83.441834,31.85237 c -3.380835,-4.19e-4 -6.121945,2.739831 -6.122587,6.120668 -4.19e-4,3.381588 2.741005,6.123009 6.122587,6.12259 3.380844,-6.42e-4 6.121088,-2.741754 6.120675,-6.12259 -6.5e-4,-3.380086 -2.740589,-6.120027 -6.120675,-6.120668 z m 8.319114,34.450618 0,-14.833733 c 0,-3.648095 -3.710644,-6.585723 -8.319114,-6.585723 -2.159909,0 -4.116304,0.650962 -5.592194,1.712249 L 66.795925,34.241064 c -0.512481,-0.572795 -1.103549,-0.865063 -1.681502,-0.912816 -0.577953,-0.04775 -1.143303,0.149702 -1.598868,0.557299 -0.911158,0.815189 -1.03265,2.153996 -0.0077,3.299587 l 11.40539,12.746748 c 0,0 0.274338,0.919379 0.209467,1.537373 l 0,14.833733"
     id="rect4205"
     inkscape:connector-curvature="0"
     sodipodi:nodetypes="ccccccsscssccccc" />
  <path
     sodipodi:nodetypes="ccccccsssc"
     inkscape:connector-curvature="0"
     id="use4223"
     d="m 63.948912,60.559432 c -3.380836,-4.18e-4 -6.121947,2.739832 -6.12259,6.120669 -4.19e-4,3.381587 2.741004,6.123009 6.12259,6.12259 3.380836,-6.42e-4 6.121088,-2.741754 6.120669,-6.12259 -6.43e-4,-3.380086 -2.740584,-6.120027 -6.120669,-6.120669 z m 8.319113,34.450619 0,-14.833733 c 0,-3.648095 -3.710643,-6.585723 -8.319113,-6.585723 -4.608468,0 -8.319112,2.937628 -8.319112,6.585723 l 0,14.833733"
     style="opacity:1;fill:none;fill-opacity:1;fill-rule:nonzero;stroke:#000000;stroke-width:2.5;stroke-linejoin:round;stroke-miterlimit:4;stroke-dasharray:none" />
  <use
     x="0"
     y="0"
     xlink:href="#use4223"
     id="use4229"
     width="100%"
     height="100%"
     style="stroke-width:2.5;stroke-miterlimit:4;stroke-dasharray:none"
     transform="translate(-45.940213,0)" />
  <use
     x="0"
     y="0"
     xlink:href="#use4223"
     id="use4231"
     width="100%"
     height="100%"
     style="stroke-width:2.5;stroke-miterlimit:4;stroke-dasharray:none"
     transform="translate(-22.94289,0)" />
</svg>
