<?xml version="1.0" encoding="UTF-8" standalone="no"?>
<!-- Created with Inkscape (http://www.inkscape.org/) -->

<svg
   xmlns:osb="http://www.openswatchbook.org/uri/2009/osb"
   xmlns:dc="http://purl.org/dc/elements/1.1/"
   xmlns:cc="http://creativecommons.org/ns#"
   xmlns:rdf="http://www.w3.org/1999/02/22-rdf-syntax-ns#"
   xmlns:svg="http://www.w3.org/2000/svg"
   xmlns="http://www.w3.org/2000/svg"
   xmlns:sodipodi="http://sodipodi.sourceforge.net/DTD/sodipodi-0.dtd"
   xmlns:inkscape="http://www.inkscape.org/namespaces/inkscape"
   width="210mm"
   height="297mm"
   viewBox="0 0 744.09448819 1052.3622047"
   id="svg2"
   version="1.1"
   inkscape:version="0.91 r13725"
   sodipodi:docname="inkscape-logo-modif.svg">
  <defs
     id="defs4">
    <linearGradient
       osb:paint="solid"
       id="linearGradient4140">
      <stop
         id="stop4142"
         offset="0"
         style="stop-color:#000000;stop-opacity:1;" />
    </linearGradient>
  </defs>
  <sodipodi:namedview
     id="base"
     pagecolor="#ffffff"
     bordercolor="#666666"
     borderopacity="1.0"
     inkscape:pageopacity="0.0"
     inkscape:pageshadow="2"
     inkscape:zoom="0.98994949"
     inkscape:cx="325.89328"
     inkscape:cy="995.14465"
     inkscape:document-units="px"
     inkscape:current-layer="layer4"
     showgrid="false"
     inkscape:window-width="1680"
     inkscape:window-height="988"
     inkscape:window-x="-8"
     inkscape:window-y="-8"
     inkscape:window-maximized="1" />
  <metadata
     id="metadata7">
    <rdf:RDF>
      <cc:Work
         rdf:about="">
        <dc:format>image/svg+xml</dc:format>
        <dc:type
           rdf:resource="http://purl.org/dc/dcmitype/StillImage" />
        <dc:title></dc:title>
      </cc:Work>
    </rdf:RDF>
  </metadata>
  <g
     inkscape:label="Calque 1"
     inkscape:groupmode="layer"
     id="layer1">
    <g
       inkscape:label="Calque 1"
       id="layer1-2"
       style="display:inline"
       transform="translate(41.24048,-115.63268)" />
    <g
       id="layer6"
       inkscape:label="triskell"
       style="display:inline"
       transform="translate(41.24048,-115.63268)">
      <g
         inkscape:groupmode="layer"
         id="layer7"
         inkscape:label="triskell 1"
         style="display:none" />
      <g
         inkscape:groupmode="layer"
         id="layer5"
         inkscape:label="triskell-04"
         style="display:none;opacity:1">
        <path
           style="fill:#000000"
           d="m 218.31378,347.9407 c 1.45343,-0.42824 1.42549,-0.4738 -0.9,-1.46728 -1.32,-0.56392 -3.39667,-1.82313 -4.61482,-2.79823 -1.49166,-1.19404 -2.89133,-1.77291 -4.2868,-1.77291 -7.64331,0 -18.29203,-6.71294 -23.1327,-14.58284 -2.94858,-4.79376 -0.97401,-11.94678 3.85482,-13.96439 2.99125,-1.24982 7.26661,-1.08221 9.62844,0.37748 3.0372,1.87709 4.2621,4.42211 4.97633,10.33951 1.04341,8.64465 4.74093,15.01874 11.09418,19.12504 5.61775,3.63093 7.37575,3.96162 11.36107,2.13708 1.82334,-0.83475 4.24593,-2.15091 5.38354,-2.92481 l 2.06837,-1.40707 -5.16621,0 c -5.98799,0 -8.86953,-1.15449 -13.08135,-5.24107 -3.28935,-3.19153 -5.03644,-7.38312 -5.67236,-13.60904 -0.58902,-5.76678 -2.02299,-8.76456 -5.84356,-12.21621 -2.39041,-2.1596 -7.16145,-4.03368 -10.26895,-4.03368 -6.44198,0 -13.50677,5.3594 -15.3095,11.6139 -2.06228,7.15503 0.61134,14.00543 8.21884,21.05845 7.17771,6.65456 15.4207,9.88557 25.09066,9.83481 2.805,-0.0147 5.775,-0.22566 6.6,-0.46874 z"
           id="path4336"
           inkscape:connector-curvature="0" />
        <path
           style="fill:#000000"
           d="m 234.63694,337.36971 c 1.50531,-0.51291 3.84087,-1.87749 5.19013,-3.0324 4.59047,-3.92928 8.4512,-14.23053 8.47629,-22.61658 0.0221,-7.37216 -3.55934,-17.56624 -8.05099,-22.9163 l -1.87806,-2.23698 0.0796,5.61741 c 0.063,4.44339 0.37508,6.30712 1.49331,8.91742 1.21827,2.84383 1.41611,4.29528 1.43126,10.5 0.0149,6.11818 -0.18729,7.71001 -1.34586,10.59433 -2.83582,7.05992 -5.66366,9.55692 -10.86881,9.59723 -5.63169,0.0436 -9.64359,-3.82401 -9.64782,-9.30088 -0.003,-4.25219 1.41147,-6.6544 5.73677,-9.74086 4.88269,-3.48422 7.20395,-6.17739 9.49941,-11.0214 1.72612,-3.64256 1.86158,-4.40183 1.86158,-10.43423 0,-6.49952 -0.002,-6.50726 -1.8,-7.9871 -1.95124,-1.60573 -7.52854,-4.99233 -8.23679,-5.00146 -0.24023,-0.003 0.34435,1.2261 1.29907,2.73153 3.51459,5.54194 3.88022,12.60231 0.96156,18.56784 -1.53288,3.13308 -4.29325,5.97544 -9.45873,9.73963 -1.53477,1.11841 -3.4113,3.28525 -4.41673,5.1 -1.49505,2.69847 -1.74819,3.80698 -1.74819,7.65537 0,3.86641 0.25058,4.95243 1.77973,7.71333 3.98541,7.19572 11.83534,10.21453 19.64324,7.5541 z"
           id="path4330"
           inkscape:connector-curvature="0" />
        <path
           style="fill:#000000"
           d="m 179.82892,308.70044 c 1.20168,-1.26601 3.53486,-3.01583 5.18486,-3.88848 2.59402,-1.37193 3.73078,-1.58821 8.4,-1.59816 4.90807,-0.0104 5.80994,0.17788 9.9,2.06752 5.83481,2.69574 10.7105,2.84897 15.3,0.48083 12.26812,-6.33023 12.1916,-23.02135 -0.13318,-29.05131 -2.98399,-1.45992 -4.01996,-1.65069 -8.42616,-1.5516 -12.96627,0.29159 -25.87992,8.82581 -31.7164,20.96034 -1.18016,2.45367 -2.04466,4.5623 -1.9211,4.68586 0.12355,0.12356 1.39754,-0.56308 2.83107,-1.52585 1.43353,-0.96277 3.51867,-2.08037 4.63364,-2.48354 1.11496,-0.40318 2.16606,-1.17054 2.33577,-1.70524 0.71857,-2.26401 7.87584,-8.50603 11.99636,-10.4623 4.88671,-2.32003 11.28261,-3.64228 14.85499,-3.07104 5.27566,0.84361 8.61627,5.26993 8.09236,10.72238 -0.34647,3.60581 -1.83715,5.72364 -5.25961,7.47243 -3.48771,1.78213 -5.27932,1.70432 -10.16873,-0.44165 -5.43344,-2.38475 -9.68292,-3.23193 -14.12895,-2.81675 -6.59648,0.61598 -14.62441,4.57951 -15.86047,7.83057 -0.64905,1.70714 -1.15546,8.6317 -0.74582,10.19819 0.24602,0.94076 0.51696,0.72314 1.47396,-1.18387 0.64491,-1.28507 2.15574,-3.37232 3.35741,-4.63833 z"
           id="path4324"
           inkscape:connector-curvature="0" />
      </g>
      <g
         inkscape:groupmode="layer"
         id="layer4"
         inkscape:label="triskell-03"
         style="display:inline;opacity:0.98999999">
        <g
           id="g4313"
           transform="translate(8.2697595,1.2626907)">
          <path
             inkscape:connector-curvature="0"
             id="path4338"
             d="m 59.591939,260.76988 c -7.92292,-1.15419 -17.283452,-7.57105 -20.996889,-14.39386 -1.374878,-2.5261 -1.615411,-3.58053 -1.378712,-6.0439 0.673453,-7.00876 7.513095,-10.81271 13.890591,-7.72541 3.76259,1.82144 5.21012,4.39484 5.80798,10.32532 0.58089,5.76223 2.92218,11.1941 6.49622,15.07148 3.31122,3.59224 3.06655,3.76946 -3.81919,2.76637 z"
             style="fill:#ffffff" />
          <g
             transform="matrix(1,0,0,0.99666776,0,0.85718432)"
             inkscape:transform-center-y="-3.202979"
             inkscape:transform-center-x="-19.464286"
             id="g4231">
            <path
               inkscape:connector-curvature="0"
               style="fill:#e91e63;fill-opacity:1"
               d="m 88.970619,255.80516 c 6.83194,-3.2353 11.422781,-11.79647 12.128741,-22.61811 0.86184,-13.21125 -5.743071,-26.07892 -17.180701,-33.47142 -4.32926,-2.79813 -6.4729,-3.34633 -4.38194,-1.12061 4.10208,4.36646 5.28863,13.30786 2.58288,19.4636 -1.31973,3.00246 -2.79442,4.56699 -10.63124,11.27892 -6.23575,5.34067 -7.18729,14.27324 -2.27548,21.36098 4.15401,5.99424 13.03578,8.28985 19.75774,5.10664 z"
               id="path4334" />
            <path
               style="fill:#ffffff"
               d="m 76.641479,249.11604 c -5.45846,-4.02712 -12.530006,-14.27647 -7.186046,-18.33205 7.24692,-5.49976 9.975438,-24.70486 11.033838,-29.99687 0.56761,-2.83802 9.766778,13.57891 11.368798,16.99386 2.19493,4.67887 3.01048,9.2232 2.67998,14.93331 -0.46682,8.06534 -3.54075,14.88926 -7.66865,17.02388 -2.84865,1.4731 -7.79588,1.17217 -10.22792,-0.62213 z"
               id="path4332"
               inkscape:connector-curvature="0"
               sodipodi:nodetypes="sssssss" />
          </g>
          <path
             inkscape:connector-curvature="0"
             id="path4326"
             d="m 57.829369,218.15534 c -2.27769,-1.01533 -5.65269,-2.05423 -7.5,-2.30865 -3.13266,-0.43143 -9.415491,0.0747 -11.670892,0.94016 -1.462179,0.5611 -1.220944,-0.171 1.096702,-3.32827 5.886029,-8.01838 14.48656,-12.62104 23.58366,-12.62104 5.01583,0 7.5423,1.22173 9.52586,4.60641 1.92395,3.28297 1.75551,7.43351 -0.43119,10.62477 -2.97714,4.34487 -7.94576,5.05477 -14.60414,2.08662 z"
             style="fill:#ffffff" />
          <path
             inkscape:connector-curvature="0"
             style="fill:#2196ff;fill-opacity:0.93333333"
             d="m 73.652224,196.41097 c -6.208486,-4.30438 -15.893391,-4.01384 -25.586957,0.76757 -11.834073,5.83724 -19.638213,17.96965 -20.300158,31.55886 -0.250546,5.14366 0.348101,7.27329 1.223728,4.35331 1.717824,-5.72846 8.842226,-11.21184 15.508364,-11.93621 3.251407,-0.3533 5.339159,0.14416 15.050902,3.58626 7.727619,2.73888 15.913444,-0.88846 19.575248,-8.67428 3.096861,-6.58461 0.637408,-15.42043 -5.471127,-19.65551 z"
             id="path4291" />
          <path
             style="fill:#ffffff"
             d="m 74.04315,210.42173 c -0.746737,6.73402 -6.057584,17.96575 -12.230096,15.35878 -8.37052,-3.5353 -26.311462,3.67229 -31.408405,5.39287 -2.733413,0.92272 6.837106,-15.22511 8.983674,-18.31428 2.941053,-4.23251 6.45567,-7.20339 11.549542,-9.76271 7.194924,-3.61495 14.621885,-4.35344 18.52831,-1.84233 2.695816,1.73291 4.909686,6.1673 4.576975,9.16767 z"
             id="path4293"
             inkscape:connector-curvature="0"
             sodipodi:nodetypes="sssssss" />
          <path
             sodipodi:nodetypes="ssssssss"
             inkscape:connector-curvature="0"
             style="fill:#4bb05e;fill-opacity:0.93333333"
             d="m 29.870407,239.37657 c -0.623454,7.52889 4.47061,15.771 13.458216,21.77517 10.972233,7.32999 25.381284,8.02236 37.480859,1.80102 4.579806,-2.35485 6.124799,-3.93811 3.158212,-3.23644 -5.819904,1.37655 -22.612999,-1.06953 -26.573387,-6.48039 -1.931677,-2.63915 5.937404,-5.67806 4.062481,-15.80973 -1.491869,-8.06176 -8.726154,-13.33722 -17.299768,-12.61552 -7.250871,0.61034 -13.673188,7.1582 -14.286613,14.56589 z"
             id="path4301" />
          <path
             style="fill:#ffffff;fill-opacity:1"
             d="m 41.808621,232.03263 c 6.205197,-2.72031 18.58759,-3.73685 19.416142,2.91219 1.1236,9.01673 3.211024,17.37882 20.374567,24.50404 2.664474,1.10612 -11.336027,2.58431 -20.352472,1.37705 -5.108428,-0.68399 -9.46615,-1.98908 -14.229522,-5.12084 -6.728104,-4.42351 -11.081135,-10.48621 -10.85966,-15.12483 0.152834,-3.20109 2.886194,-7.33556 5.650945,-8.54761 z"
             id="path4303"
             inkscape:connector-curvature="0"
             sodipodi:nodetypes="sssssss" />
        </g>
        <text
           xml:space="preserve"
           style="font-style:normal;font-variant:normal;font-weight:normal;font-stretch:normal;font-size:32.88749933px;line-height:125%;font-family:'Articulate Narrow';-inkscape-font-specification:'Articulate Narrow, Normal';text-align:start;letter-spacing:0px;word-spacing:0px;writing-mode:lr;text-anchor:start;fill:#666666;fill-opacity:1;stroke:none;stroke-width:1px;stroke-linecap:butt;stroke-linejoin:miter;stroke-opacity:1;"
           x="17.112722"
           y="294.08633"
           id="text4309"
           sodipodi:linespacing="125%"><tspan
             sodipodi:role="line"
             id="tspan4311"
             x="17.112722"
             y="294.08633">A Propos</tspan></text>
      </g>
      <g
         inkscape:groupmode="layer"
         id="layer3"
         inkscape:label="triskell-02"
         style="display:none">
        <path
           style="fill:#000000"
           d="m 222.51378,214.66896 c 6.67525,-2.18472 10.81151,-4.7376 16.01956,-9.88717 3.91321,-3.86929 5.41119,-5.88097 7.32293,-9.8342 3.32713,-6.8801 4.50284,-12.55978 4.10278,-19.82001 -0.5571,-10.11012 -4.10346,-17.93725 -11.54527,-25.48141 -16.75606,-16.98653 -45.62618,-14.15689 -59.19625,5.80199 -4.61217,6.78358 -6.5898,13.40724 -6.5661,21.99175 0.0182,6.61378 1.04295,11.14479 3.8813,17.16238 5.28387,11.20236 16.7079,19.54211 29.48105,21.52168 3.78994,0.58737 12.64573,-0.19356 16.5,-1.45501 z"
           id="path4314"
           inkscape:connector-curvature="0" />
        <path
           style="fill:#ffffff"
           d="m 203.91378,213.20945 c -6.6398,-1.49447 -13.51501,-5.30656 -18.31026,-10.15244 -4.9418,-4.99399 -7.4536,-9.35535 -7.90054,-13.71811 -0.65157,-6.36026 2.57607,-12.52644 8.2108,-15.68613 2.88081,-1.61542 3.87163,-1.84872 7.8,-1.83657 5.30917,0.0164 8.17202,1.26005 11.57729,5.02927 2.90395,3.21433 3.85266,5.65809 4.50655,11.60834 1.19018,10.83031 7.78058,17.5258 18.10481,18.39349 l 4.51135,0.37915 -3.3,1.94417 c -7.04893,4.1528 -17.355,5.80457 -25.2,4.03883 z"
           id="path4312"
           inkscape:connector-curvature="0" />
        <path
           style="fill:#000000"
           d="m 212.91378,207.89995 c 0,-0.11129 -1.08395,-1.34181 -2.40877,-2.73449 -2.46626,-2.59258 -5.48121,-7.96823 -6.24831,-11.1407 -0.23639,-0.97764 -0.64833,-3.72612 -0.91541,-6.10774 -0.58385,-5.20615 -1.94039,-7.38142 -5.75473,-9.22791 -5.19719,-2.51592 -11.03672,0.0365 -13.23147,5.78334 -0.90623,2.37294 -0.95165,3.14785 -0.32241,5.50053 2.51796,9.41433 14.71389,17.50109 27.2311,18.05614 0.9075,0.0403 1.65,-0.0179 1.65,-0.12917 z"
           id="path4310"
           inkscape:connector-curvature="0" />
        <path
           style="fill:#ffffff"
           d="m 225.62432,203.28325 c -3.20947,-0.65921 -6.06532,-2.38768 -8.46987,-5.12631 -6.55132,-7.46154 -4.86439,-18.84917 3.59655,-24.27854 9.75523,-6.25991 12.79775,-17.33401 7.37026,-26.82611 -0.80194,-1.4025 -1.20745,-2.55 -0.90115,-2.55 1.2835,0 8.03007,5.08702 10.99478,8.29022 9.94369,10.74364 12.34961,27.37114 5.85967,40.4968 -1.00972,2.04214 -2.69647,4.6245 -3.74832,5.73858 -3.44583,3.64969 -9.34192,5.35627 -14.70192,4.25536 z"
           id="path4308"
           inkscape:connector-curvature="0" />
        <path
           style="fill:#000000"
           d="m 233.78768,196.14329 c 1.22436,-0.63745 2.82771,-2.06306 3.56301,-3.16803 3.42407,-5.14547 5.1917,-15.07298 3.82144,-21.46227 -0.73549,-3.42945 -3.54268,-10.2107 -4.22686,-10.2107 -0.22255,0 -0.74924,1.3446 -1.17043,2.98801 -1.43154,5.58555 -5.14214,10.32917 -11.55432,14.771 -3.52356,2.44083 -4.92573,5.39216 -4.57443,9.62838 0.28657,3.4556 1.55785,5.37242 4.96769,7.49019 2.33722,1.45159 6.34627,1.4356 9.1739,-0.0366 z"
           id="path4306"
           inkscape:connector-curvature="0" />
        <path
           style="fill:#ffffff"
           d="m 175.1403,176.27835 c -0.0549,-9.36943 3.25918,-17.06482 10.46671,-24.30385 5.49234,-5.51635 9.91624,-8.10991 16.86438,-9.88694 6.41754,-1.64134 11.73303,-1.55682 15.54239,0.24711 11.57205,5.48 12.63538,21.40932 1.87295,28.05783 -2.49969,1.54418 -3.88609,1.95152 -7.43176,2.18352 -4.07326,0.26652 -4.68251,0.13623 -9.3,-1.98889 -4.27884,-1.96926 -5.5444,-2.27889 -9.44119,-2.30982 -3.62204,-0.0288 -5.14384,0.26447 -7.8,1.50293 -3.79239,1.76825 -7.80165,5.44093 -9.54425,8.74301 l -1.20272,2.27904 -0.0265,-4.52394 z"
           id="path4304"
           inkscape:connector-curvature="0" />
        <path
           style="fill:#000000"
           d="m 217.28606,164.74038 c 2.89532,-2.20836 4.23225,-5.29843 3.87972,-8.96723 -0.72295,-7.52392 -7.79107,-10.58644 -17.93869,-7.77259 -5.02378,1.39306 -8.9288,3.676 -13.1358,7.67943 -3.79988,3.616 -6.99701,8.55748 -5.02245,7.7627 0.62971,-0.25348 2.83244,-0.7586 4.89494,-1.1225 4.86781,-0.85886 9.94279,-0.0112 15.15,2.53039 4.89771,2.39055 8.94163,2.35394 12.17228,-0.1102 z"
           id="path4163"
           inkscape:connector-curvature="0" />
      </g>
      <g
         inkscape:groupmode="layer"
         id="layer2"
         inkscape:label="triskell-01"
         style="display:none;opacity:1">
        <path
           style="fill:#000000"
           d="m 129.07484,215.06245 c 14.03373,-4.4608 24.1202,-15.20473 27.17816,-28.94968 1.30591,-5.86986 0.91884,-15.73739 -0.80902,-20.62397 -5.84017,-16.51659 -20.20672,-26.98651 -37.0302,-26.98651 -16.83663,0 -32.114683,11.2488 -37.258107,27.4321 -1.500916,4.7225 -1.780758,14.78619 -0.563323,20.25832 1.929652,8.67342 7.410533,17.22194 14.287836,22.28473 7.897934,5.81412 15.516864,8.1779 25.033594,7.76667 3.465,-0.14973 7.58748,-0.68147 9.16106,-1.18166 z"
           id="path4322"
           inkscape:connector-curvature="0" />
        <path
           style="fill:#ffffff"
           d="m 109.71378,212.91016 c -6.93217,-1.8598 -11.752007,-4.56816 -16.564404,-9.30787 -7.497872,-7.38464 -9.793611,-13.40947 -7.76657,-20.38225 1.712283,-5.89004 7.335869,-10.62053 13.65537,-11.48672 4.023034,-0.55141 8.991884,1.09838 12.191894,4.04804 3.55877,3.28036 5.04239,6.60492 5.67236,12.7109 1.14002,11.04965 7.70334,17.63594 18.31135,18.37542 l 4.8,0.33461 -3.3,1.89999 c -8.09365,4.65996 -18.404,6.11405 -27,3.80788 z"
           id="path4320"
           inkscape:connector-curvature="0" />
        <path
           style="fill:#ffffff"
           d="m 132.21378,203.38024 c -4.37097,-1.14028 -8.0216,-3.99768 -10.25323,-8.02536 -1.50834,-2.72227 -1.74193,-3.76683 -1.71134,-7.65259 0.0264,-3.35674 0.35657,-5.11659 1.29943,-6.92697 1.20845,-2.32032 6.19589,-7.47303 7.23333,-7.47303 1.18105,0 5.83411,-5.37859 7.2669,-8.4 1.2904,-2.72113 1.56347,-4.15414 1.55671,-8.16921 -0.007,-4.28174 -0.23723,-5.31328 -1.90653,-8.54999 -1.04409,-2.02444 -1.68976,-3.6808 -1.43482,-3.6808 0.25492,0 2.05786,1.03366 4.00653,2.29701 5.20993,3.37771 10.03482,8.91878 12.78772,14.68584 2.79176,5.84846 3.6553,9.63243 3.6553,16.01715 0,6.36978 -0.86309,10.16757 -3.62659,15.95784 -2.33541,4.8933 -4.02802,6.70761 -8.3207,8.91895 -2.30311,1.18643 -7.83188,1.71096 -10.55271,1.00116 z"
           id="path4318"
           inkscape:connector-curvature="0" />
        <path
           style="fill:#ffffff"
           d="m 82.113782,176.15073 c 0,-11.31461 7.150979,-23.76517 17.119481,-29.80671 6.169147,-3.73889 10.643197,-5.0262 17.680517,-5.08716 5.38275,-0.0466 6.65405,0.13497 8.73174,1.24729 13.18693,7.05979 11.28341,25.76242 -3.04602,29.9281 -3.94387,1.14652 -8.55972,0.49087 -12.44799,-1.76813 -8.89433,-5.16743 -20.387825,-1.93579 -26.338497,7.40564 l -1.699231,2.66746 z"
           id="path4316"
           inkscape:connector-curvature="0" />
      </g>
    </g>
  </g>
</svg>
