<?xml version="1.0" encoding="UTF-8" standalone="no"?>
<svg
   xmlns:osb="http://www.openswatchbook.org/uri/2009/osb"
   xmlns:dc="http://purl.org/dc/elements/1.1/"
   xmlns:cc="http://creativecommons.org/ns#"
   xmlns:rdf="http://www.w3.org/1999/02/22-rdf-syntax-ns#"
   xmlns:svg="http://www.w3.org/2000/svg"
   xmlns="http://www.w3.org/2000/svg"
   viewBox="0 0 500 200"
   id="svg2"
   version="1.1">
  <metadata
     id="metadata7">
    <rdf:RDF>
      <cc:Work
         rdf:about="">
        <dc:format>image/svg+xml</dc:format>
        <dc:type
           rdf:resource="http://purl.org/dc/dcmitype/StillImage" />
        <dc:title></dc:title>
      </cc:Work>
    </rdf:RDF>
  </metadata>
    <g id="layer4" >
      <path
         style="fill:#2196ff"
         d="m 73.531619,266.58183 c 3.73301,-0.99375 10.07042,-3.89903 12.01269,-5.50702 1.37157,-1.13552 1.36601,-1.13729 -3.6,-1.14917 -4.50164,-0.0107 -5.33252,-0.20534 -8.75452,-2.05003 -6.30606,-3.39939 -9.28617,-8.23262 -10.21942,-16.57412 -0.29605,-2.64621 -1.00897,-5.74564 -1.58426,-6.88762 -3.27917,-6.50933 -10.73425,-10.36335 -17.37841,-8.98403 -4.55993,0.94664 -8.602592,3.79246 -10.9322,7.69568 -4.474579,7.49709 -2.793449,14.80725 5.36537,23.33055 4.946932,5.16792 11.34174,8.77093 18.72975,10.55284 2.68763,0.64823 13.36898,0.36941 16.361,-0.42708 z"
         id="path4340"
         />
      <path
         style="fill:#ffffff"
         d="m 59.591939,260.76988 c -7.92292,-1.15419 -17.283452,-7.57105 -20.996889,-14.39386 -1.374878,-2.5261 -1.615411,-3.58053 -1.378712,-6.0439 0.673453,-7.00876 7.513095,-10.81271 13.890591,-7.72541 3.76259,1.82144 5.21012,4.39484 5.80798,10.32532 0.58089,5.76223 2.92218,11.1941 6.49622,15.07148 3.31122,3.59224 3.06655,3.76946 -3.81919,2.76637 z"
         id="path4338"
         />
      <path
         style="fill:#e91e63"
         d="m 88.970619,255.80516 c 6.83194,-3.2353 11.422781,-11.79647 12.128741,-22.61811 0.86184,-13.21125 -5.743071,-26.07892 -17.180701,-33.47142 -4.32926,-2.79813 -6.4729,-3.34633 -4.38194,-1.12061 4.10208,4.36646 5.28863,13.30786 2.58288,19.4636 -1.31973,3.00246 -2.79442,4.56699 -10.63124,11.27892 -6.23575,5.34067 -7.18729,14.27324 -2.27548,21.36098 4.15401,5.99424 13.03578,8.28985 19.75774,5.10664 z"
         id="path4334"
         />
      <path
         style="fill:#ffffff"
         d="m 76.641479,249.11604 c -5.45846,-4.02712 -5.56572,-11.5979 -0.22176,-15.65348 7.24692,-5.49976 11.58258,-11.13343 12.64098,-16.42544 0.56761,-2.83802 1.19535,-2.67109 2.79737,0.74386 2.19493,4.67887 3.01048,9.2232 2.67998,14.93331 -0.46682,8.06534 -3.54075,14.88926 -7.66865,17.02388 -2.84865,1.4731 -7.79588,1.17217 -10.22792,-0.62213 z"
         id="path4332"
         />
      <path
         style="fill:#4caf5f"
         d="m 34.12249,227.00485 c 5.846447,-5.25646 13.566349,-6.27277 21.548129,-2.83676 7.9,3.40079 13.66407,3.02898 18.81081,-1.2134 9.09823,-7.49953 7.87972,-20.67682 -2.47302,-26.74393 -5.22696,-3.0632 -15.85412,-2.29314 -23.71786,1.71865 -8.682044,4.42925 -15.563884,12.43101 -18.668414,21.70644 -1.352787,4.04173 -2.163313,10.34813 -1.733251,13.48577 l 0.362086,2.6417 1.443838,-3.03787 c 0.79607,-1.67494 2.782519,-4.24146 4.427682,-5.7206 z"
         id="path4328"
         />
      <path
         style="fill:#ffffff"
         d="m 57.829369,218.15534 c -2.27769,-1.01533 -5.65269,-2.05423 -7.5,-2.30865 -3.13266,-0.43143 -9.415491,0.0747 -11.670892,0.94016 -1.462179,0.5611 -1.220944,-0.171 1.096702,-3.32827 5.886029,-8.01838 14.48656,-12.62104 23.58366,-12.62104 5.01583,0 7.5423,1.22173 9.52586,4.60641 1.92395,3.28297 1.75551,7.43351 -0.43119,10.62477 -2.97714,4.34487 -7.94576,5.05477 -14.60414,2.08662 z"
         id="path4326"
         />
    </g>
</svg>
