<svg xmlns="http://www.w3.org/2000/svg" width="56" height="10" viewBox="0 0 56 10"><g font-weight="300" font-size="19.694" font-family="Segoe UI" letter-spacing="0" word-spacing="0" fill="#676767" fill-opacity=".992" stroke="#666" stroke-width=".2"><path d="M6.876 8.908l-.894-2.433H2.59l-.895 2.433H1.1l2.95-7.82h.514l2.918 7.82h-.606zm-2.4-6.545q-.06-.164-.098-.322-.038-.135-.08-.272h-.023q-.093.36-.18.584L2.78 5.98h3.016l-1.32-3.617zM13.536 5.772v3.136h-.54v-7.82h1.887q1.206 0 1.844.56.638.557.638 1.63 0 1.092-.715 1.796-.71.698-1.99.698h-1.124zm0-4.19v3.693h1.113q1.057 0 1.608-.5.55-.51.55-1.43 0-1.762-2.023-1.762h-1.25zM23.327 8.908l-1.042-2.29q-.322-.71-.643-.95-.322-.245-.808-.245h-.97v3.485h-.54v-7.82h2.17q1.037 0 1.626.56.594.557.594 1.473 0 .846-.485 1.414-.487.567-1.36.73v.022q.464.186.906 1.13l1.162 2.492h-.61zm-3.464-7.325v3.35h1.348q.895 0 1.42-.47.528-.47.528-1.287 0-.748-.475-1.168-.474-.425-1.358-.425h-1.462zM29.556 9.044q-1.658 0-2.646-1.1-.98-1.103-.98-2.865 0-1.872 1.008-2.995 1.014-1.13 2.765-1.13 1.582 0 2.558 1.086.983 1.08.983 2.837 0 1.942-1.004 3.055-1.004 1.112-2.684 1.112zm.054-7.597q-1.363 0-2.247.987-.878.987-.878 2.585 0 1.614.835 2.574.834.954 2.225.954 1.45 0 2.296-.944.847-.95.847-2.64 0-1.658-.83-2.585-.823-.933-2.247-.933zM35.74 5.772v3.136h-.54v-7.82h1.89q1.204 0 1.842.56.638.557.638 1.63 0 1.092-.714 1.796-.71.698-1.99.698H35.74zm0-4.19v3.693h1.114q1.058 0 1.61-.5.55-.51.55-1.43 0-1.762-2.024-1.762h-1.25zM45.156 9.044q-1.658 0-2.645-1.1-.98-1.103-.98-2.865 0-1.872 1.008-2.995 1.014-1.13 2.765-1.13 1.582 0 2.558 1.086.983 1.08.983 2.837 0 1.942-1.004 3.055-1.004 1.112-2.684 1.112zm.054-7.597q-1.363 0-2.247.987-.878.987-.878 2.585 0 1.614.835 2.574.834.954 2.225.954 1.45 0 2.296-.944.847-.95.847-2.64 0-1.658-.83-2.585-.823-.933-2.247-.933zM50.802 8.63v-.616q.84.534 1.7.534.918 0 1.392-.376.475-.382.475-1.064 0-.6-.323-.954-.316-.36-1.38-.977-1.19-.692-1.505-1.156-.317-.468-.317-1.08 0-.828.644-1.406.642-.578 1.717-.578.698 0 1.396.234v.567q-.687-.31-1.467-.31-.796 0-1.265.403-.463.404-.463 1.026 0 .6.316.954.322.355 1.38.965 1.097.622 1.457 1.108.365.48.365 1.107 0 .9-.627 1.467-.622.567-1.762.567-.404 0-.933-.125-.523-.127-.8-.29z" style="line-height:125%;-inkscape-font-specification:'Segoe UI, Light';text-align:start" opacity=".98" stroke-width=".113442"/></g></svg>