<svg xmlns="http://www.w3.org/2000/svg" width="500" height="76.02" viewBox="0 0 500 76.019997"><path d="M54.278 74.225L45.995 51.68h-31.43L6.274 74.226H.76L28.094 1.767h4.762l27.037 72.458h-5.615zM32.04 13.58q-.555-1.518-.907-2.982-.352-1.25-.74-2.52h-.215q-.86 3.335-1.667 5.41L16.327 47.095H44.27L32.04 13.58zM115.99 45.17v29.057h-5.004V1.767h17.484q11.175 0 17.086 5.19 5.912 5.16 5.912 15.102 0 10.117-6.625 16.64-6.578 6.468-18.438 6.468h-10.414zm0-38.823v34.218H126.3q9.794 0 14.9-4.633 5.096-4.726 5.096-13.25 0-16.326-18.745-16.326h-11.58zm90.72 67.88l-9.655-21.22q-2.984-6.577-5.958-8.8-2.984-2.27-7.487-2.27h-8.987v32.29h-5.003V1.767h20.107q9.608 0 15.066 5.19 5.503 5.16 5.503 13.647 0 7.84-4.493 13.102-4.513 5.254-12.602 6.764v.204q4.3 1.723 8.395 10.47l10.767 23.09h-5.652zM174.61 6.355v31.04h12.492q8.292 0 13.157-4.356 4.89-4.356 4.89-11.926 0-6.93-4.4-10.822-4.392-3.938-12.583-3.938H174.62zm89.813 69.13q-15.362 0-24.517-10.192-9.08-10.22-9.08-26.546 0-17.346 9.34-27.75Q249.56.526 265.786.526q14.658 0 23.7 10.06 9.11 10.008 9.11 26.288 0 17.994-9.304 28.307-9.302 10.303-24.87 10.303zm.5-70.39q-12.628 0-20.82 9.144-8.134 9.144-8.134 23.95 0 14.955 7.735 23.85 7.728 8.84 20.616 8.84 13.437 0 21.275-8.747 7.848-8.802 7.848-24.46 0-15.364-7.69-23.953-7.626-8.645-20.82-8.645zm56.8 40.073v29.057h-5.004V1.767h17.51q11.157 0 17.068 5.19 5.912 5.16 5.912 15.102 0 10.117-6.616 16.64-6.58 6.468-18.44 6.468h-10.432zm0-38.823v34.218h10.32q9.804 0 14.92-4.633 5.095-4.726 5.095-13.25 0-16.326-18.754-16.326h-11.582zm87.245 69.14q-15.363 0-24.508-10.192-9.08-10.22-9.08-26.546 0-17.346 9.34-27.75Q394.114.526 410.34.526q14.657 0 23.7 10.06 9.11 10.008 9.11 26.288 0 17.994-9.304 28.307-9.303 10.303-24.87 10.303zm.5-70.39q-12.63 0-20.82 9.144-8.135 9.144-8.135 23.95 0 14.955 7.737 23.85 7.727 8.84 20.616 8.84 13.435 0 21.274-8.747 7.848-8.802 7.848-24.46 0-15.364-7.69-23.953-7.627-8.645-20.82-8.645zm51.813 66.554v-5.71q7.785 4.95 15.753 4.95 8.506 0 12.898-3.485 4.402-3.54 4.402-9.858 0-5.56-2.993-8.84-2.93-3.335-12.787-9.052-11.027-6.412-13.945-10.71-2.937-4.338-2.937-10.008 0-7.672 5.968-13.028 5.948-5.356 15.91-5.356 6.466 0 12.934 2.168v5.253q-6.366-2.872-13.593-2.872-7.377 0-11.722 3.734-4.29 3.743-4.29 9.507 0 5.56 2.928 8.84 2.983 3.288 12.786 8.94 10.165 5.764 13.5 10.267 3.382 4.448 3.382 10.258 0 8.34-5.81 13.593-5.762 5.254-16.325 5.254-3.745 0-8.646-1.158-4.846-1.177-7.413-2.687z" style="line-height:125%;-inkscape-font-specification:'Segoe UI, Light';text-align:start" opacity=".98" stroke-width="1.0470184500000002" font-weight="300" font-size="19.694" letter-spacing="0" word-spacing="0" font-family="Segoe UI" fill="#676767" fill-opacity=".992" stroke="#666"/></svg>