<svg xmlns="http://www.w3.org/2000/svg" width="50" height="50" viewBox="0 0 50 50"><g font-weight="300" font-family="Segoe UI" letter-spacing="0" word-spacing="0"><path d="M33.37 6.627c-.458-.117-.465.118.123.74 1.188 1.385 1.09 1.27 1.544 1.768.544.666 1.25 1.724 1.972 2.89 1.446 2.33 2.965 5.097 3.416 6.05.617 1.306 1.04 2.594 1.287 3.953.245 1.36.313 2.79.22 4.383-.065 1.126-.222 2.21-.458 3.218-.235 1.01-.548 1.944-.926 2.776-.38.832-.82 1.56-1.314 2.156-.493.595-1.036 1.056-1.617 1.354-.4.206-.876.35-1.384.433-.508.084-1.05.11-1.583.077-.533-.032-1.06-.12-1.538-.265-.478-.144-.908-.343-1.25-.594-.768-.56-1.593-1.34-2.35-2.228-.76-.888-1.45-1.885-1.95-2.882-.252-.5-.456-.997-.596-1.482-.14-.485-.218-.958-.217-1.403 0-.092.045-.167.052-.258-1.38 2.808-1.14 6.245.88 9.138 2.337 3.346 7.334 4.628 11.116 2.85 3.844-1.805 6.427-6.584 6.825-12.624.484-7.375-3.23-14.558-9.666-18.685-1.22-.78-2.13-1.246-2.59-1.363z" style="line-height:125%;-inkscape-font-specification:'Segoe UI, Light';text-align:start" fill="#5a7eaa"/><path d="M23.72 4.34c-2.48.074-5.206.784-7.933 2.123C9.13 9.733 4.737 16.527 4.365 24.138c-.14 2.88.197 4.073.69 2.438.36-.87.63-1.75.766-2.215.31-.8.875-1.937 1.528-3.143 1.305-2.412 2.953-5.106 3.557-5.97.827-1.187 1.736-2.196 2.795-3.087 1.06-.892 2.27-1.666 3.703-2.383 1.012-.506 2.033-.91 3.028-1.213.996-.3 1.966-.5 2.88-.59.91-.09 1.767-.072 2.53.055.765.127 1.438.364 1.987.716.38.243.742.58 1.07.976.327.395.618.85.857 1.325.238.477.424.974.538 1.46.114.483.158.953.11 1.374-.104.943-.37 2.044-.764 3.14-.393 1.098-.915 2.192-1.532 3.123-.308.465-.64.89-.992 1.253-.352.364-.723.667-1.11.89-.082.045-.17.044-.252.083 3.132-.216 6.003-2.14 7.51-5.328 1.742-3.688.357-8.637-3.08-11.01C28.436 4.828 26.2 4.266 23.72 4.34z" style="line-height:125%;-inkscape-font-specification:'Segoe UI, Light';text-align:start" fill="#e99235" fill-opacity=".933"/><path d="M13.588 21.94c-4.08.34-7.693 4.008-8.038 8.157-.35 4.217 2.516 8.833 7.572 12.196 6.173 4.105 14.28 4.492 21.088 1.008 2.576-1.318 3.445-2.204 1.776-1.81-1.63.304-1.018.19-1.775.326-.657.152-1.61.294-2.817.393-1.208.1-2.622.16-4.05.152-1.43-.013-2.87-.083-4.14-.252-1.437-.192-2.768-.47-4.075-.92-.654-.225-1.3-.493-1.953-.814-.652-.32-1.308-.696-1.978-1.134-.946-.62-1.81-1.297-2.57-2.004-.76-.707-1.416-1.445-1.95-2.187-.536-.74-.948-1.486-1.22-2.208-.27-.723-.4-1.422-.37-2.07.022-.45.134-.93.315-1.41.18-.48.43-.958.724-1.402.295-.444.635-.853 1-1.194.364-.34.75-.612 1.14-.782.873-.38 1.963-.703 3.114-.912 1.152-.21 2.365-.307 3.483-.24.56.032 1.094.107 1.587.23.492.12.94.29 1.328.513.08.047.125.124.2.176-1.753-2.593-4.862-4.107-8.39-3.81z" style="line-height:125%;-inkscape-font-specification:'Segoe UI, Light';text-align:start" fill="#6baa50" fill-opacity=".933"/></g></svg>