<svg width="100" height="100" xmlns="http://www.w3.org/2000/svg" class="axePrevention-image">

 <g>
  <title>background</title>
  <rect fill="none" id="canvas_background" height="402" width="582" y="-1" x="-1"/>
 </g>
 <g>
  <title>Layer 1</title>
  <g id="Capa_29">
   <g id="svg_1">
    <path id="svg_2" d="m76.492996,23.837999c-0.577003,-0.142 -1.169998,-0.213001 -1.760002,-0.213001c-3.416,0 -6.367996,2.320002 -7.18,5.644001c-0.471001,1.92 -0.161995,3.906 0.865005,5.594999c1.025993,1.687 2.645996,2.873001 4.564995,3.343002c0.581001,0.141998 1.176003,0.213997 1.770004,0.213997c3.415001,0 6.364998,-2.316998 7.174995,-5.634998c0.971008,-3.963999 -1.467995,-7.976999 -5.434998,-8.948zm4.005005,8.597002c-0.646004,2.657001 -3.008003,4.513 -5.744003,4.512001c-0.473999,0 -0.952995,-0.058002 -1.418999,-0.172001c-1.535995,-0.375 -2.836998,-1.326 -3.658997,-2.677002c-0.820999,-1.352997 -1.067001,-2.941999 -0.692001,-4.478998c0.649002,-2.661001 3.014,-4.52 5.748001,-4.52c0.472,0 0.946999,0.058001 1.409996,0.171c3.179001,0.777 5.133003,3.990999 4.356003,7.165001z"/>
    <path id="svg_3" d="m35.199001,16.357l-0.471001,-1.396c-4.882999,1.653 -7.514,6.971001 -5.862,11.854l1.395,-0.471001c-1.391001,-4.115 0.823997,-8.594999 4.938,-9.987z"/>
    <path id="svg_4" d="m33.067001,10.05c-3.681,1.245999 -6.653999,3.848 -8.373999,7.327001c-1.720001,3.48 -1.982,7.422998 -0.736,11.101999l1.394999,-0.473c-1.119999,-3.306 -0.884998,-6.848 0.661001,-9.975c1.546,-3.128 4.219999,-5.466001 7.525999,-6.585l-0.472,-1.396z"/>
    <path id="svg_5" d="m31.832001,6.396l-0.472,-1.396c-10.376001,3.51 -15.961,14.808001 -12.453001,25.186001l1.395,-0.472c-3.249001,-9.610001 1.924,-20.069 11.530001,-23.318001z"/>
    <path id="svg_6" d="m73.228996,39.901001c-0.843002,-0.349998 -1.768997,-0.501999 -2.701004,-0.464001l-11.116993,1.662998l-5.751999,-4.870998c0.344997,-0.328003 0.612999,-0.714001 0.795998,-1.129002l0.438999,-1.017998l8.962002,1.065998l0.237003,-0.182999c0.111,-0.085003 0.686996,-0.575001 1.160995,-1.863003c0.471001,-1.287998 0.322998,-1.978998 0.265999,-2.159998l-0.076996,-0.251001l-24.382999,-16.047998l-0.415001,0.561001c-1.642998,2.223999 -2.959,4.671 -3.910999,7.277c-1.007999,2.764999 -1.589001,5.639997 -1.726002,8.545998l-0.032997,0.685001l9.183998,1.095999l0.178001,1.063c0.210999,1.251999 1.18,2.401001 2.425999,2.872002l-0.323997,0.329998l9.292,10.334999c0.790997,0.772003 1.903,1.135002 2.988998,0.978001l4.346001,-0.624001l-5.050999,12.153c-0.021999,0.061001 -9.461002,14.785999 -9.461002,14.785999c-0.556999,0.855003 -0.790001,1.882004 -0.654999,2.889999l2.148998,16.073006l8.444,-1.128006l-1.939999,-14.5l3.777,-5.681999l0,0l0.014999,-0.021996l0.714001,-1.076004l2.928997,-4.404999l-1.227997,-0.813995l-7.737003,11.644997l1.815002,13.594002l-5.521,0.737999l-1.955002,-14.613998c-0.087997,-0.660004 0.063999,-1.330002 0.431,-1.896004l9.535,-14.831001c0.021,-0.062 5.430004,-13.164997 5.430004,-13.164997l4.718994,-0.665001l-0.209,-1.457001l-10.753998,1.545002c-0.640999,0.088997 -1.294998,-0.126003 -1.718998,-0.538002l-8.322002,-9.258999l1.893002,-1.834l0.849998,0.757l-0.026001,0.014l7.788002,6.591999l11.072002,-1.695999c0.917,-0.139999 1.799995,-0.040001 2.615997,0.299c2.493004,1.036999 3.68,3.909 2.646004,6.403c0,0 -6.914001,16.623001 -6.933006,16.656998l-1.542,13.398003l-0.018997,0.176003l5.069,13.205994l-5.202003,1.996002l-5.287998,-13.764c-0.143002,-0.375 -0.202999,-0.787003 -0.18,-1.166l0.639999,-6.354996l-1.743999,2.625l-0.355999,3.608994c-0.042,0.615005 0.055,1.242004 0.271,1.815002l5.811996,15.134003l7.953003,-3.050003l-5.470001,-14.247993l1.367996,-12.703003c0.033005,-0.065002 6.981003,-16.768002 6.981003,-16.768002c1.344002,-3.245998 -0.199997,-6.981998 -3.442001,-8.329998zm-36.708996,-9.490002c0.183998,-2.524 0.718998,-5.02 1.597,-7.427c0.822998,-2.254 1.934998,-4.384001 3.306,-6.341l22.687,14.933001c-0.013,0.202999 -0.064003,0.540001 -0.239998,1.021c-0.185001,0.506001 -0.382,0.827 -0.515003,1.008999l-9.375999,-1.117001l0,0l-17.459,-2.077999zm9.27,3.214001l-0.106998,-0.638l4.405998,0.524002l-2.061001,1.995998l-0.313,-0.039001c-0.133999,-0.016998 -0.276001,-0.050999 -0.424,-0.101997c-0.757999,-0.278 -1.375,-0.995003 -1.500999,-1.741001zm7.312,0.889999c-0.118999,0.274998 -0.319,0.527 -0.569,0.741001l-1.881001,-1.678001l2.716999,0.322998l-0.266998,0.614002z"/>
   </g>
  </g>
 </g>
</svg>