<?xml version="1.0" encoding="UTF-8" standalone="no"?>
<!-- Created with Inkscape (http://www.inkscape.org/) -->

<svg
   xmlns:osb="http://www.openswatchbook.org/uri/2009/osb"
   xmlns:dc="http://purl.org/dc/elements/1.1/"
   xmlns:cc="http://creativecommons.org/ns#"
   xmlns:rdf="http://www.w3.org/1999/02/22-rdf-syntax-ns#"
   xmlns:svg="http://www.w3.org/2000/svg"
   xmlns="http://www.w3.org/2000/svg"
   xmlns:sodipodi="http://sodipodi.sourceforge.net/DTD/sodipodi-0.dtd"
   xmlns:inkscape="http://www.inkscape.org/namespaces/inkscape"
   width="210mm"
   height="297mm"
   viewBox="0 0 744.09448819 1052.3622047"
   id="svg2"
   version="1.1"
   inkscape:version="0.91 r13725"
   sodipodi:docname="inkscape-logo.svg">
  <defs
     id="defs4">
    <linearGradient
       id="linearGradient4140"
       osb:paint="solid">
      <stop
         style="stop-color:#000000;stop-opacity:1;"
         offset="0"
         id="stop4142" />
    </linearGradient>
  </defs>
  <sodipodi:namedview
     id="base"
     pagecolor="#ffffff"
     bordercolor="#666666"
     borderopacity="1.0"
     inkscape:pageopacity="0.0"
     inkscape:pageshadow="2"
     inkscape:zoom="1.4"
     inkscape:cx="145.33029"
     inkscape:cy="936.95828"
     inkscape:document-units="px"
     inkscape:current-layer="layer4"
     showgrid="false"
     inkscape:window-width="1680"
     inkscape:window-height="988"
     inkscape:window-x="-8"
     inkscape:window-y="-8"
     inkscape:window-maximized="1" />
  <metadata
     id="metadata7">
    <rdf:RDF>
      <cc:Work
         rdf:about="">
        <dc:format>image/svg+xml</dc:format>
        <dc:type
           rdf:resource="http://purl.org/dc/dcmitype/StillImage" />
        <dc:title />
      </cc:Work>
    </rdf:RDF>
  </metadata>
  <g
     inkscape:label="Calque 1"
     inkscape:groupmode="layer"
     id="layer1"
     style="display:inline" />
  <g
     inkscape:groupmode="layer"
     id="layer6"
     inkscape:label="triskell"
     style="display:inline">
    <g
       inkscape:groupmode="layer"
       id="layer7"
       inkscape:label="triskell 1"
       style="display:none" />
    <g
       inkscape:groupmode="layer"
       id="layer5"
       inkscape:label="triskell-04"
       style="display:none;opacity:1">
      <path
         style="fill:#000000"
         d="m 218.31378,347.9407 c 1.45343,-0.42824 1.42549,-0.4738 -0.9,-1.46728 -1.32,-0.56392 -3.39667,-1.82313 -4.61482,-2.79823 -1.49166,-1.19404 -2.89133,-1.77291 -4.2868,-1.77291 -7.64331,0 -18.29203,-6.71294 -23.1327,-14.58284 -2.94858,-4.79376 -0.97401,-11.94678 3.85482,-13.96439 2.99125,-1.24982 7.26661,-1.08221 9.62844,0.37748 3.0372,1.87709 4.2621,4.42211 4.97633,10.33951 1.04341,8.64465 4.74093,15.01874 11.09418,19.12504 5.61775,3.63093 7.37575,3.96162 11.36107,2.13708 1.82334,-0.83475 4.24593,-2.15091 5.38354,-2.92481 l 2.06837,-1.40707 -5.16621,0 c -5.98799,0 -8.86953,-1.15449 -13.08135,-5.24107 -3.28935,-3.19153 -5.03644,-7.38312 -5.67236,-13.60904 -0.58902,-5.76678 -2.02299,-8.76456 -5.84356,-12.21621 -2.39041,-2.1596 -7.16145,-4.03368 -10.26895,-4.03368 -6.44198,0 -13.50677,5.3594 -15.3095,11.6139 -2.06228,7.15503 0.61134,14.00543 8.21884,21.05845 7.17771,6.65456 15.4207,9.88557 25.09066,9.83481 2.805,-0.0147 5.775,-0.22566 6.6,-0.46874 z"
         id="path4336"
         inkscape:connector-curvature="0" />
      <path
         style="fill:#000000"
         d="m 234.63694,337.36971 c 1.50531,-0.51291 3.84087,-1.87749 5.19013,-3.0324 4.59047,-3.92928 8.4512,-14.23053 8.47629,-22.61658 0.0221,-7.37216 -3.55934,-17.56624 -8.05099,-22.9163 l -1.87806,-2.23698 0.0796,5.61741 c 0.063,4.44339 0.37508,6.30712 1.49331,8.91742 1.21827,2.84383 1.41611,4.29528 1.43126,10.5 0.0149,6.11818 -0.18729,7.71001 -1.34586,10.59433 -2.83582,7.05992 -5.66366,9.55692 -10.86881,9.59723 -5.63169,0.0436 -9.64359,-3.82401 -9.64782,-9.30088 -0.003,-4.25219 1.41147,-6.6544 5.73677,-9.74086 4.88269,-3.48422 7.20395,-6.17739 9.49941,-11.0214 1.72612,-3.64256 1.86158,-4.40183 1.86158,-10.43423 0,-6.49952 -0.002,-6.50726 -1.8,-7.9871 -1.95124,-1.60573 -7.52854,-4.99233 -8.23679,-5.00146 -0.24023,-0.003 0.34435,1.2261 1.29907,2.73153 3.51459,5.54194 3.88022,12.60231 0.96156,18.56784 -1.53288,3.13308 -4.29325,5.97544 -9.45873,9.73963 -1.53477,1.11841 -3.4113,3.28525 -4.41673,5.1 -1.49505,2.69847 -1.74819,3.80698 -1.74819,7.65537 0,3.86641 0.25058,4.95243 1.77973,7.71333 3.98541,7.19572 11.83534,10.21453 19.64324,7.5541 z"
         id="path4330"
         inkscape:connector-curvature="0" />
      <path
         style="fill:#000000"
         d="m 179.82892,308.70044 c 1.20168,-1.26601 3.53486,-3.01583 5.18486,-3.88848 2.59402,-1.37193 3.73078,-1.58821 8.4,-1.59816 4.90807,-0.0104 5.80994,0.17788 9.9,2.06752 5.83481,2.69574 10.7105,2.84897 15.3,0.48083 12.26812,-6.33023 12.1916,-23.02135 -0.13318,-29.05131 -2.98399,-1.45992 -4.01996,-1.65069 -8.42616,-1.5516 -12.96627,0.29159 -25.87992,8.82581 -31.7164,20.96034 -1.18016,2.45367 -2.04466,4.5623 -1.9211,4.68586 0.12355,0.12356 1.39754,-0.56308 2.83107,-1.52585 1.43353,-0.96277 3.51867,-2.08037 4.63364,-2.48354 1.11496,-0.40318 2.16606,-1.17054 2.33577,-1.70524 0.71857,-2.26401 7.87584,-8.50603 11.99636,-10.4623 4.88671,-2.32003 11.28261,-3.64228 14.85499,-3.07104 5.27566,0.84361 8.61627,5.26993 8.09236,10.72238 -0.34647,3.60581 -1.83715,5.72364 -5.25961,7.47243 -3.48771,1.78213 -5.27932,1.70432 -10.16873,-0.44165 -5.43344,-2.38475 -9.68292,-3.23193 -14.12895,-2.81675 -6.59648,0.61598 -14.62441,4.57951 -15.86047,7.83057 -0.64905,1.70714 -1.15546,8.6317 -0.74582,10.19819 0.24602,0.94076 0.51696,0.72314 1.47396,-1.18387 0.64491,-1.28507 2.15574,-3.37232 3.35741,-4.63833 z"
         id="path4324"
         inkscape:connector-curvature="0" />
    </g>
    <g
       inkscape:groupmode="layer"
       id="layer4"
       inkscape:label="triskell-03"
       style="display:inline;opacity:0.98999999">
      <path
         style="fill:#2296f3;fill-opacity:0.98431373"
         d="m 193.85844,45.670761 c 2.08787,-0.555803 5.63237,-2.18072 6.71868,-3.080065 0.76711,-0.635094 0.764,-0.636084 -2.01348,-0.642729 -2.51775,-0.006 -2.98246,-0.114846 -4.89638,-1.146577 -3.52697,-1.901272 -5.19374,-4.604488 -5.7157,-9.269872 -0.16558,-1.48002 -0.56432,-3.213525 -0.88607,-3.852232 -1.83404,-3.640656 -6.00365,-5.796201 -9.71971,-5.02475 -2.55036,0.529454 -4.81142,2.121115 -6.11436,4.304178 -2.50263,4.193107 -1.56237,8.281665 3.00084,13.04873 2.76681,2.890407 6.34341,4.905563 10.47551,5.902182 1.50319,0.362554 7.47724,0.20661 9.15067,-0.238865 z"
         id="path4340"
         inkscape:connector-curvature="0" />
      <path
         style="fill:#ffffff"
         d="m 186.06201,42.420149 c -4.43127,-0.645536 -9.6666,-4.234473 -11.74352,-8.050457 -0.76896,-1.412843 -0.90349,-2.002583 -0.77111,-3.380341 0.37666,-3.919985 4.20206,-6.047527 7.76898,-4.320806 2.10441,1.018727 2.91401,2.458025 3.24839,5.77493 0.32489,3.222804 1.63437,6.260838 3.63332,8.429449 1.85196,2.009132 1.71512,2.108251 -2.13606,1.547225 z"
         id="path4338"
         inkscape:connector-curvature="0" />
      <path
         style="fill:#e91e63;fill-opacity:1"
         d="m 202.49345,39.643391 c 3.82109,-1.809497 6.38873,-6.597742 6.78358,-12.650263 0.48202,-7.389026 -3.21209,-14.585888 -9.60914,-18.7204983 -2.42134,-1.564989 -3.62027,-1.871596 -2.45081,-0.626755 2.29429,2.4421523 2.95792,7.4430593 1.4446,10.8859523 -0.73812,1.67927 -1.56291,2.554309 -5.94603,6.308277 -3.48764,2.987026 -4.01983,7.982995 -1.27267,11.947154 2.32333,3.352566 7.29089,4.636496 11.05047,2.856133 z"
         id="path4334"
         inkscape:connector-curvature="0" />
      <path
         style="fill:#ffffff"
         d="m 195.59778,35.90218 c -3.0529,-2.25236 -3.11289,-6.486682 -0.12403,-8.75496 4.05319,-3.076005 6.47812,-6.226905 7.07008,-9.186716 0.31746,-1.587298 0.66855,-1.493935 1.56456,0.41604 1.22762,2.616882 1.68376,5.158517 1.49891,8.35217 -0.26109,4.510928 -1.98034,8.327533 -4.28906,9.521422 -1.59325,0.823902 -4.36022,0.655592 -5.72046,-0.347956 z"
         id="path4332"
         inkscape:connector-curvature="0" />
      <path
         style="fill:#4caf5f;fill-opacity:0.94117647"
         d="m 171.817,23.535436 c 3.26991,-2.939928 7.58763,-3.508348 12.05182,-1.586594 4.41846,1.902055 7.64229,1.694102 10.52085,-0.678653 5.08862,-4.194472 4.40711,-11.5645033 -1.38315,-14.9578263 -2.92343,-1.713242 -8.86718,-1.282549 -13.26536,0.961238 -4.85584,2.47727 -8.70484,6.9526393 -10.4412,12.1403683 -0.75661,2.260531 -1.20993,5.787688 -0.9694,7.542564 l 0.20251,1.477497 0.80753,-1.699074 c 0.44525,-0.936791 1.55626,-2.37224 2.4764,-3.19952 z"
         id="path4328"
         inkscape:connector-curvature="0" />
      <path
         style="fill:#ffffff"
         d="m 185.07621,18.585923 c -1.27391,-0.567872 -3.16154,-1.148927 -4.19474,-1.291224 -1.75209,-0.241298 -5.26606,0.04178 -6.5275,0.52583 -0.8178,0.313822 -0.68287,-0.09564 0.61338,-1.861495 3.29204,-4.484664 8.1023,-7.0589223 13.19029,-7.0589223 2.80535,0 4.2184,0.683311 5.3278,2.5763563 1.07606,1.836158 0.98185,4.157547 -0.24117,5.942412 -1.6651,2.430077 -4.44404,2.827123 -8.16806,1.167043 z"
         id="path4326"
         inkscape:connector-curvature="0" />
      <rect
         style="opacity:1;fill:#f44336;fill-opacity:1;stroke:none;stroke-width:1;stroke-linejoin:round;stroke-miterlimit:4;stroke-dasharray:none;stroke-dashoffset:0;stroke-opacity:0"
         id="rect4161"
         width="48.890873"
         height="20.303301"
         x="5.0460353"
         y="4.0262804" />
      <text
         xml:space="preserve"
         style="font-style:normal;font-variant:normal;font-weight:normal;font-stretch:normal;font-size:10px;line-height:125%;font-family:'Segoe UI';-inkscape-font-specification:'Segoe UI, Normal';text-align:start;letter-spacing:0px;word-spacing:0px;writing-mode:lr-tb;text-anchor:start;fill:#ffffff;fill-opacity:1;stroke:#f443ff;stroke-width:1px;stroke-linecap:butt;stroke-linejoin:miter;stroke-opacity:0"
         x="9.5964518"
         y="16.529011"
         id="text4214"
         sodipodi:linespacing="125%"><tspan
           sodipodi:role="line"
           id="tspan4216"
           x="9.5964518"
           y="16.529011">A Propos</tspan></text>
      <rect
         style="opacity:0.98999999;fill:#e91e63;fill-opacity:1;stroke:none;stroke-width:1;stroke-linejoin:round;stroke-miterlimit:4;stroke-dasharray:none;stroke-dashoffset:0;stroke-opacity:1"
         id="rect4161-8"
         width="48.890873"
         height="20.303301"
         x="56.970364"
         y="4.0262804" />
      <text
         xml:space="preserve"
         style="font-style:normal;font-variant:normal;font-weight:normal;font-stretch:normal;font-size:10px;line-height:125%;font-family:'Segoe UI';-inkscape-font-specification:'Segoe UI, Normal';text-align:start;letter-spacing:0px;word-spacing:0px;writing-mode:lr-tb;text-anchor:start;fill:#ffffff;fill-opacity:1;stroke:none;stroke-width:1px;stroke-linecap:butt;stroke-linejoin:miter;stroke-opacity:1"
         x="61.520779"
         y="16.529011"
         id="text4214-9"
         sodipodi:linespacing="125%"><tspan
           sodipodi:role="line"
           id="tspan4216-5"
           x="61.520779"
           y="16.529011">A Propos</tspan></text>
      <rect
         style="display:inline;opacity:0.98999999;fill:#9c27b0;fill-opacity:1;stroke:none;stroke-width:1;stroke-linejoin:round;stroke-miterlimit:4;stroke-dasharray:none;stroke-dashoffset:0;stroke-opacity:1"
         id="rect4161-8-5"
         width="48.890873"
         height="20.303301"
         x="108.8947"
         y="4.0262804" />
      <text
         xml:space="preserve"
         style="font-style:normal;font-variant:normal;font-weight:normal;font-stretch:normal;font-size:10px;line-height:125%;font-family:'Segoe UI';-inkscape-font-specification:'Segoe UI, Normal';text-align:start;letter-spacing:0px;word-spacing:0px;writing-mode:lr-tb;text-anchor:start;display:inline;opacity:0.98999999;fill:#ffffff;fill-opacity:1;stroke:none;stroke-width:1px;stroke-linecap:butt;stroke-linejoin:miter;stroke-opacity:1"
         x="113.44511"
         y="16.529011"
         id="text4214-9-5"
         sodipodi:linespacing="125%"><tspan
           sodipodi:role="line"
           id="tspan4216-5-2"
           x="113.44511"
           y="16.529011">A Propos</tspan></text>
      <rect
         style="opacity:1;fill:#673ab7;fill-opacity:1;stroke:none;stroke-width:1;stroke-linejoin:round;stroke-miterlimit:4;stroke-dasharray:none;stroke-dashoffset:0;stroke-opacity:1"
         id="rect4161-2"
         width="48.890873"
         height="20.303301"
         x="5.0460353"
         y="26.502171" />
      <text
         xml:space="preserve"
         style="font-style:normal;font-variant:normal;font-weight:normal;font-stretch:normal;font-size:10px;line-height:125%;font-family:'Segoe UI';-inkscape-font-specification:'Segoe UI, Normal';text-align:start;letter-spacing:0px;word-spacing:0px;writing-mode:lr-tb;text-anchor:start;fill:#ffffff;fill-opacity:1;stroke:none;stroke-width:1px;stroke-linecap:butt;stroke-linejoin:miter;stroke-opacity:1"
         x="9.5964518"
         y="39.004902"
         id="text4214-0"
         sodipodi:linespacing="125%"><tspan
           sodipodi:role="line"
           id="tspan4216-0"
           x="9.5964518"
           y="39.004902">A Propos</tspan></text>
      <rect
         style="opacity:1;fill:#03a9f4;fill-opacity:1;stroke:none;stroke-width:1;stroke-linejoin:round;stroke-miterlimit:4;stroke-dasharray:none;stroke-dashoffset:0;stroke-opacity:1"
         id="rect4161-80"
         width="48.890873"
         height="20.303301"
         x="5.2000518"
         y="49.861958" />
      <text
         xml:space="preserve"
         style="font-style:normal;font-variant:normal;font-weight:normal;font-stretch:normal;font-size:10px;line-height:125%;font-family:'Segoe UI';-inkscape-font-specification:'Segoe UI, Normal';text-align:start;letter-spacing:0px;word-spacing:0px;writing-mode:lr-tb;text-anchor:start;fill:#ffffff;fill-opacity:1;stroke:none;stroke-width:1px;stroke-linecap:butt;stroke-linejoin:miter;stroke-opacity:1"
         x="9.7504683"
         y="62.364689"
         id="text4214-7"
         sodipodi:linespacing="125%"><tspan
           sodipodi:role="line"
           id="tspan4216-3"
           x="9.7504683"
           y="62.364689">A Propos</tspan></text>
      <rect
         style="opacity:0.98999999;fill:#00bcd4;fill-opacity:1;stroke:none;stroke-width:1;stroke-linejoin:round;stroke-miterlimit:4;stroke-dasharray:none;stroke-dashoffset:0;stroke-opacity:1"
         id="rect4161-8-0"
         width="48.890873"
         height="20.303301"
         x="57.124378"
         y="49.861958" />
      <text
         xml:space="preserve"
         style="font-style:normal;font-variant:normal;font-weight:normal;font-stretch:normal;font-size:10px;line-height:125%;font-family:'Segoe UI';-inkscape-font-specification:'Segoe UI, Normal';text-align:start;letter-spacing:0px;word-spacing:0px;writing-mode:lr-tb;text-anchor:start;fill:#ffffff;fill-opacity:1;stroke:none;stroke-width:1px;stroke-linecap:butt;stroke-linejoin:miter;stroke-opacity:1"
         x="61.674793"
         y="62.364689"
         id="text4214-9-1"
         sodipodi:linespacing="125%"><tspan
           sodipodi:role="line"
           id="tspan4216-5-8"
           x="61.674793"
           y="62.364689">A Propos</tspan></text>
      <rect
         style="display:inline;opacity:0.98999999;fill:#009688;fill-opacity:1;stroke:none;stroke-width:1;stroke-linejoin:round;stroke-miterlimit:4;stroke-dasharray:none;stroke-dashoffset:0;stroke-opacity:1"
         id="rect4161-8-5-7"
         width="48.890873"
         height="20.303301"
         x="109.04872"
         y="49.861958" />
      <text
         xml:space="preserve"
         style="font-style:normal;font-variant:normal;font-weight:normal;font-stretch:normal;font-size:10px;line-height:125%;font-family:'Segoe UI';-inkscape-font-specification:'Segoe UI, Normal';text-align:start;letter-spacing:0px;word-spacing:0px;writing-mode:lr-tb;text-anchor:start;display:inline;opacity:0.98999999;fill:#ffffff;fill-opacity:1;stroke:none;stroke-width:1px;stroke-linecap:butt;stroke-linejoin:miter;stroke-opacity:1"
         x="113.59913"
         y="62.364689"
         id="text4214-9-5-1"
         sodipodi:linespacing="125%"><tspan
           sodipodi:role="line"
           id="tspan4216-5-2-62"
           x="113.59913"
           y="62.364689">A Propos</tspan></text>
      <rect
         style="display:inline;opacity:1;fill:#4caf50;fill-opacity:1;stroke:none;stroke-width:1;stroke-linejoin:round;stroke-miterlimit:4;stroke-dasharray:none;stroke-dashoffset:0;stroke-opacity:1"
         id="rect4161-2-7"
         width="48.890873"
         height="20.303301"
         x="5.200048"
         y="72.337837" />
      <text
         xml:space="preserve"
         style="font-style:normal;font-variant:normal;font-weight:normal;font-stretch:normal;font-size:10px;line-height:125%;font-family:'Segoe UI';-inkscape-font-specification:'Segoe UI, Normal';text-align:start;letter-spacing:0px;word-spacing:0px;writing-mode:lr-tb;text-anchor:start;display:inline;opacity:0.98999999;fill:#ffffff;fill-opacity:1;stroke:none;stroke-width:1px;stroke-linecap:butt;stroke-linejoin:miter;stroke-opacity:1"
         x="9.7504702"
         y="84.840569"
         id="text4214-0-5"
         sodipodi:linespacing="125%"><tspan
           sodipodi:role="line"
           id="tspan4216-0-1"
           x="9.7504702"
           y="84.840569">A Propos</tspan></text>
      <rect
         y="72.337852"
         x="57.124378"
         height="20.303301"
         width="48.890873"
         id="rect4161-8-8-6"
         style="opacity:0.98009997;fill:#8bc34a;fill-opacity:1;stroke:none;stroke-width:1;stroke-linejoin:round;stroke-miterlimit:4;stroke-dasharray:none;stroke-dashoffset:0;stroke-opacity:1" />
      <text
         sodipodi:linespacing="125%"
         id="text4214-9-2-8"
         y="84.840584"
         x="61.674793"
         style="font-style:normal;font-variant:normal;font-weight:normal;font-stretch:normal;font-size:10px;line-height:125%;font-family:'Segoe UI';-inkscape-font-specification:'Segoe UI, Normal';text-align:start;letter-spacing:0px;word-spacing:0px;writing-mode:lr-tb;text-anchor:start;fill:#ffffff;fill-opacity:1;stroke:none;stroke-width:1px;stroke-linecap:butt;stroke-linejoin:miter;stroke-opacity:1"
         xml:space="preserve"><tspan
           y="84.840584"
           x="61.674793"
           id="tspan4216-5-5-7"
           sodipodi:role="line">A Propos</tspan></text>
      <rect
         y="72.337852"
         x="109.04872"
         height="20.303301"
         width="48.890873"
         id="rect4161-8-5-3-8"
         style="display:inline;opacity:0.98009997;fill:#cddc39;fill-opacity:1;stroke:none;stroke-width:1;stroke-linejoin:round;stroke-miterlimit:4;stroke-dasharray:none;stroke-dashoffset:0;stroke-opacity:1" />
      <text
         sodipodi:linespacing="125%"
         id="text4214-9-5-9-8"
         y="84.840584"
         x="113.59913"
         style="font-style:normal;font-variant:normal;font-weight:normal;font-stretch:normal;font-size:10px;line-height:125%;font-family:'Segoe UI';-inkscape-font-specification:'Segoe UI, Normal';text-align:start;letter-spacing:0px;word-spacing:0px;writing-mode:lr-tb;text-anchor:start;display:inline;opacity:0.98009997;fill:#ffffff;fill-opacity:1;stroke:none;stroke-width:1px;stroke-linecap:butt;stroke-linejoin:miter;stroke-opacity:1"
         xml:space="preserve"><tspan
           y="84.840584"
           x="113.59913"
           id="tspan4216-5-2-6-1"
           sodipodi:role="line">A Propos</tspan></text>
      <rect
         style="opacity:0.98999999;fill:#3f51b5;fill-opacity:1;stroke:none;stroke-width:1;stroke-linejoin:round;stroke-miterlimit:4;stroke-dasharray:none;stroke-dashoffset:0;stroke-opacity:1"
         id="rect4161-8-8"
         width="48.890873"
         height="20.303301"
         x="56.970364"
         y="26.502171" />
      <text
         xml:space="preserve"
         style="font-style:normal;font-variant:normal;font-weight:normal;font-stretch:normal;font-size:10px;line-height:125%;font-family:'Segoe UI';-inkscape-font-specification:'Segoe UI, Normal';text-align:start;letter-spacing:0px;word-spacing:0px;writing-mode:lr-tb;text-anchor:start;fill:#ffffff;fill-opacity:1;stroke:none;stroke-width:1px;stroke-linecap:butt;stroke-linejoin:miter;stroke-opacity:1"
         x="61.520779"
         y="39.004902"
         id="text4214-9-2"
         sodipodi:linespacing="125%"><tspan
           sodipodi:role="line"
           id="tspan4216-5-5"
           x="61.520779"
           y="39.004902">A Propos</tspan></text>
      <rect
         style="display:inline;opacity:0.98999999;fill:#2196f3;fill-opacity:1;stroke:none;stroke-width:1;stroke-linejoin:round;stroke-miterlimit:4;stroke-dasharray:none;stroke-dashoffset:0;stroke-opacity:1"
         id="rect4161-8-5-3"
         width="48.890873"
         height="20.303301"
         x="108.8947"
         y="26.502171" />
      <text
         xml:space="preserve"
         style="font-style:normal;font-variant:normal;font-weight:normal;font-stretch:normal;font-size:10px;line-height:125%;font-family:'Segoe UI';-inkscape-font-specification:'Segoe UI, Normal';text-align:start;letter-spacing:0px;word-spacing:0px;writing-mode:lr-tb;text-anchor:start;display:inline;opacity:0.98999999;fill:#ffffff;fill-opacity:1;stroke:none;stroke-width:1px;stroke-linecap:butt;stroke-linejoin:miter;stroke-opacity:1"
         x="113.44511"
         y="39.004902"
         id="text4214-9-5-9"
         sodipodi:linespacing="125%"><tspan
           sodipodi:role="line"
           id="tspan4216-5-2-6"
           x="113.44511"
           y="39.004902">A Propos</tspan></text>
      <rect
         style="display:inline;opacity:1;fill:#ffeb3b;fill-opacity:1;stroke:none;stroke-width:1;stroke-linejoin:round;stroke-miterlimit:4;stroke-dasharray:none;stroke-dashoffset:0;stroke-opacity:1"
         id="rect4161-2-7-7"
         width="48.890873"
         height="20.303301"
         x="5.2000442"
         y="94.939995" />
      <text
         xml:space="preserve"
         style="font-style:normal;font-variant:normal;font-weight:normal;font-stretch:normal;font-size:10px;line-height:125%;font-family:'Segoe UI';-inkscape-font-specification:'Segoe UI, Normal';text-align:start;letter-spacing:0px;word-spacing:0px;writing-mode:lr-tb;text-anchor:start;display:inline;opacity:0.98999999;fill:#ffffff;fill-opacity:1;stroke:none;stroke-width:1px;stroke-linecap:butt;stroke-linejoin:miter;stroke-opacity:1"
         x="9.7504625"
         y="107.44273"
         id="text4214-0-5-6"
         sodipodi:linespacing="125%"><tspan
           sodipodi:role="line"
           id="tspan4216-0-1-6"
           x="9.7504625"
           y="107.44273">A Propos</tspan></text>
      <rect
         y="94.94001"
         x="57.124371"
         height="20.303301"
         width="48.890873"
         id="rect4161-8-8-6-9"
         style="display:inline;opacity:0.98009997;fill:#ffc107;fill-opacity:1;stroke:none;stroke-width:1;stroke-linejoin:round;stroke-miterlimit:4;stroke-dasharray:none;stroke-dashoffset:0;stroke-opacity:1" />
      <text
         sodipodi:linespacing="125%"
         id="text4214-9-2-8-2"
         y="107.44274"
         x="61.674793"
         style="font-style:normal;font-variant:normal;font-weight:normal;font-stretch:normal;font-size:10px;line-height:125%;font-family:'Segoe UI';-inkscape-font-specification:'Segoe UI, Normal';text-align:start;letter-spacing:0px;word-spacing:0px;writing-mode:lr-tb;text-anchor:start;display:inline;opacity:0.98999999;fill:#ffffff;fill-opacity:1;stroke:none;stroke-width:1px;stroke-linecap:butt;stroke-linejoin:miter;stroke-opacity:1"
         xml:space="preserve"><tspan
           y="107.44274"
           x="61.674793"
           id="tspan4216-5-5-7-6"
           sodipodi:role="line">A Propos</tspan></text>
      <rect
         y="94.94001"
         x="109.04872"
         height="20.303301"
         width="48.890873"
         id="rect4161-8-5-3-8-2"
         style="display:inline;opacity:0.98009997;fill:#ff9800;fill-opacity:1;stroke:none;stroke-width:1;stroke-linejoin:round;stroke-miterlimit:4;stroke-dasharray:none;stroke-dashoffset:0;stroke-opacity:1" />
      <text
         sodipodi:linespacing="125%"
         id="text4214-9-5-9-8-3"
         y="107.44274"
         x="113.59913"
         style="font-style:normal;font-variant:normal;font-weight:normal;font-stretch:normal;font-size:10px;line-height:125%;font-family:'Segoe UI';-inkscape-font-specification:'Segoe UI, Normal';text-align:start;letter-spacing:0px;word-spacing:0px;writing-mode:lr-tb;text-anchor:start;display:inline;opacity:0.98009997;fill:#ffffff;fill-opacity:1;stroke:none;stroke-width:1px;stroke-linecap:butt;stroke-linejoin:miter;stroke-opacity:1"
         xml:space="preserve"><tspan
           y="107.44274"
           x="113.59913"
           id="tspan4216-5-2-6-1-3"
           sodipodi:role="line">A Propos</tspan></text>
      <rect
         style="display:inline;opacity:1;fill:#ff5722;fill-opacity:1;stroke:none;stroke-width:1;stroke-linejoin:round;stroke-miterlimit:4;stroke-dasharray:none;stroke-dashoffset:0;stroke-opacity:1"
         id="rect4161-2-7-3"
         width="48.890873"
         height="20.303301"
         x="5.2000461"
         y="118.06533" />
      <text
         xml:space="preserve"
         style="font-style:normal;font-variant:normal;font-weight:normal;font-stretch:normal;font-size:10px;line-height:125%;font-family:'Segoe UI';-inkscape-font-specification:'Segoe UI, Normal';text-align:start;letter-spacing:0px;word-spacing:0px;writing-mode:lr-tb;text-anchor:start;display:inline;opacity:0.98999999;fill:#ffffff;fill-opacity:1;stroke:none;stroke-width:1px;stroke-linecap:butt;stroke-linejoin:miter;stroke-opacity:1"
         x="9.7504683"
         y="130.56807"
         id="text4214-0-5-3"
         sodipodi:linespacing="125%"><tspan
           sodipodi:role="line"
           id="tspan4216-0-1-5"
           x="9.7504683"
           y="130.56807">A Propos</tspan></text>
      <rect
         y="118.06536"
         x="57.124378"
         height="20.303301"
         width="48.890873"
         id="rect4161-8-8-6-4"
         style="display:inline;opacity:0.98009997;fill:#795548;fill-opacity:1;stroke:none;stroke-width:1;stroke-linejoin:round;stroke-miterlimit:4;stroke-dasharray:none;stroke-dashoffset:0;stroke-opacity:1" />
      <text
         sodipodi:linespacing="125%"
         id="text4214-9-2-8-5"
         y="130.56807"
         x="61.674793"
         style="font-style:normal;font-variant:normal;font-weight:normal;font-stretch:normal;font-size:10px;line-height:125%;font-family:'Segoe UI';-inkscape-font-specification:'Segoe UI, Normal';text-align:start;letter-spacing:0px;word-spacing:0px;writing-mode:lr-tb;text-anchor:start;display:inline;opacity:0.98999999;fill:#ffffff;fill-opacity:1;stroke:none;stroke-width:1px;stroke-linecap:butt;stroke-linejoin:miter;stroke-opacity:1"
         xml:space="preserve"><tspan
           y="130.56807"
           x="61.674793"
           id="tspan4216-5-5-7-7"
           sodipodi:role="line">A Propos</tspan></text>
      <rect
         y="118.06536"
         x="109.04872"
         height="20.303301"
         width="48.890873"
         id="rect4161-8-5-3-8-6"
         style="display:inline;opacity:0.98009997;fill:#9e9e9e;fill-opacity:1;stroke:none;stroke-width:1;stroke-linejoin:round;stroke-miterlimit:4;stroke-dasharray:none;stroke-dashoffset:0;stroke-opacity:1" />
      <text
         sodipodi:linespacing="125%"
         id="text4214-9-5-9-8-9"
         y="130.56807"
         x="113.59913"
         style="font-style:normal;font-variant:normal;font-weight:normal;font-stretch:normal;font-size:10px;line-height:125%;font-family:'Segoe UI';-inkscape-font-specification:'Segoe UI, Normal';text-align:start;letter-spacing:0px;word-spacing:0px;writing-mode:lr-tb;text-anchor:start;display:inline;opacity:0.98009997;fill:#ffffff;fill-opacity:1;stroke:none;stroke-width:1px;stroke-linecap:butt;stroke-linejoin:miter;stroke-opacity:1"
         xml:space="preserve"><tspan
           y="130.56807"
           x="113.59913"
           id="tspan4216-5-2-6-1-1"
           sodipodi:role="line">A Propos</tspan></text>
      <rect
         style="display:inline;opacity:1;fill:#607d8b;fill-opacity:1;stroke:none;stroke-width:1;stroke-linejoin:round;stroke-miterlimit:4;stroke-dasharray:none;stroke-dashoffset:0;stroke-opacity:1"
         id="rect4161-2-7-7-4"
         width="48.890873"
         height="20.303301"
         x="5.2000403"
         y="140.6675" />
      <text
         xml:space="preserve"
         style="font-style:normal;font-variant:normal;font-weight:normal;font-stretch:normal;font-size:10px;line-height:125%;font-family:'Segoe UI';-inkscape-font-specification:'Segoe UI, Normal';text-align:start;letter-spacing:0px;word-spacing:0px;writing-mode:lr-tb;text-anchor:start;display:inline;opacity:0.98999999;fill:#ffffff;fill-opacity:1;stroke:none;stroke-width:1px;stroke-linecap:butt;stroke-linejoin:miter;stroke-opacity:1"
         x="9.7504625"
         y="153.17021"
         id="text4214-0-5-6-1"
         sodipodi:linespacing="125%"><tspan
           sodipodi:role="line"
           id="tspan4216-0-1-6-6"
           x="9.7504625"
           y="153.17021">A Propos</tspan></text>
      <path
         style="display:inline;opacity:0.98999999;fill:#ff9800;fill-opacity:0.97254902"
         d="m 254.83783,45.872242 c 2.08787,-0.555802 5.63237,-2.180719 6.71868,-3.080065 0.76711,-0.635094 0.764,-0.636084 -2.01348,-0.642728 -2.51775,-0.006 -2.98246,-0.114847 -4.89638,-1.146578 -3.52697,-1.901272 -5.19374,-4.604488 -5.7157,-9.269872 -0.16558,-1.48002 -0.56432,-3.213525 -0.88608,-3.852232 -1.83403,-3.640655 -6.00364,-5.796201 -9.71971,-5.02475 -2.55036,0.529454 -4.81141,2.121115 -6.11435,4.304179 -2.50263,4.193107 -1.56237,8.281665 3.00084,13.048729 2.76681,2.890407 6.34341,4.905564 10.47551,5.902182 1.50319,0.362554 7.47724,0.206611 9.15067,-0.238865 z"
         id="path4340-8"
         inkscape:connector-curvature="0" />
      <path
         style="display:inline;opacity:0.98999999;fill:#ffffff"
         d="m 247.0414,42.62163 c -4.43127,-0.645536 -9.6666,-4.234473 -11.74352,-8.050456 -0.76896,-1.412843 -0.9035,-2.002584 -0.77111,-3.380342 0.37666,-3.919985 4.20206,-6.047526 7.76898,-4.320806 2.10441,1.018728 2.91401,2.458025 3.24839,5.774931 0.32489,3.222803 1.63437,6.260837 3.63332,8.429448 1.85196,2.009133 1.71512,2.108252 -2.13606,1.547225 z"
         id="path4338-5"
         inkscape:connector-curvature="0" />
      <path
         style="display:inline;opacity:0.98999999;fill:#673ab7;fill-opacity:0.99215686"
         d="m 263.47284,39.844873 c 3.82109,-1.809497 6.38873,-6.597742 6.78357,-12.650264 0.48203,-7.389025 -3.21208,-14.585888 -9.60913,-18.7204993 -2.42134,-1.564988 -3.62028,-1.871596 -2.45081,-0.626755 2.29429,2.4421523 2.95792,7.4430613 1.4446,10.8859543 -0.73812,1.67927 -1.56291,2.554308 -5.94603,6.308277 -3.48764,2.987026 -4.01983,7.982994 -1.27267,11.947153 2.32333,3.352566 7.29089,4.636496 11.05047,2.856134 z"
         id="path4334-1"
         inkscape:connector-curvature="0" />
      <path
         style="display:inline;opacity:0.98999999;fill:#ffffff"
         d="m 256.57717,36.103661 c -3.0529,-2.25236 -3.11289,-6.486682 -0.12403,-8.75496 4.05319,-3.076004 6.47812,-6.226905 7.07008,-9.186715 0.31746,-1.587299 0.66855,-1.493935 1.56456,0.416039 1.22762,2.616883 1.68376,5.158517 1.49891,8.35217 -0.26109,4.510929 -1.98034,8.327534 -4.28906,9.521422 -1.59325,0.823902 -4.36022,0.655593 -5.72046,-0.347956 z"
         id="path4332-8"
         inkscape:connector-curvature="0" />
      <path
         style="display:inline;opacity:0.98999999;fill:#f44336;fill-opacity:0.99215686"
         d="m 232.79639,23.736917 c 3.2699,-2.939927 7.58763,-3.508347 12.05182,-1.586594 4.41846,1.902055 7.64229,1.694102 10.52085,-0.678652 5.08862,-4.194472 4.40711,-11.5645063 -1.38315,-14.9578283 -2.92343,-1.713241 -8.86718,-1.282548 -13.26536,0.961238 -4.85584,2.47727 -8.70484,6.9526403 -10.4412,12.1403693 -0.75661,2.260532 -1.20994,5.787689 -0.9694,7.542564 l 0.20251,1.477498 0.80753,-1.699075 c 0.44524,-0.93679 1.55626,-2.37224 2.4764,-3.19952 z"
         id="path4328-6"
         inkscape:connector-curvature="0" />
      <path
         style="display:inline;opacity:0.98999999;fill:#ffffff"
         d="m 246.0556,18.787404 c -1.27391,-0.567872 -3.16154,-1.148927 -4.19474,-1.291223 -1.75209,-0.241298 -5.26606,0.04178 -6.5275,0.525829 -0.8178,0.313822 -0.68287,-0.09564 0.61338,-1.861494 3.29204,-4.484665 8.1023,-7.0589243 13.19029,-7.0589243 2.80535,0 4.2184,0.683311 5.3278,2.5763563 1.07606,1.836159 0.98185,4.157548 -0.24117,5.942414 -1.66511,2.430077 -4.44404,2.827122 -8.16806,1.167042 z"
         id="path4326-3"
         inkscape:connector-curvature="0" />
      <path
         style="display:inline;opacity:0.98999999;fill:#414fb7;fill-opacity:0.96862745"
         d="m 191.71837,89.698414 c 2.08786,-0.55581 5.63236,-2.18072 6.71867,-3.08007 0.76712,-0.63509 0.76401,-0.63608 -2.01347,-0.64273 -2.51776,-0.006 -2.98247,-0.11484 -4.89639,-1.14658 -3.52696,-1.90127 -5.19373,-4.60448 -5.7157,-9.26987 -0.16558,-1.48002 -0.56431,-3.21352 -0.88607,-3.85223 -1.83403,-3.64066 -6.00364,-5.79621 -9.71971,-5.02476 -2.55036,0.52946 -4.81141,2.12112 -6.11436,4.30419 -2.50262,4.19311 -1.56237,8.28166 3.00084,13.04873 2.76681,2.89041 6.34342,4.90556 10.47551,5.90218 1.50319,0.36255 7.47725,0.20661 9.15068,-0.23886 z"
         id="path4340-6"
         inkscape:connector-curvature="0" />
      <path
         style="display:inline;opacity:0.98999999;fill:#ffffff"
         d="m 183.92193,86.447794 c -4.43127,-0.64553 -9.66659,-4.23447 -11.74351,-8.05045 -0.76897,-1.41285 -0.9035,-2.00259 -0.77111,-3.38034 0.37666,-3.91999 4.20206,-6.04754 7.76898,-4.32081 2.1044,1.01873 2.914,2.45802 3.24839,5.77493 0.32489,3.2228 1.63437,6.26084 3.63332,8.42945 1.85196,2.00913 1.71511,2.10825 -2.13607,1.54722 z"
         id="path4338-4"
         inkscape:connector-curvature="0" />
      <path
         style="display:inline;opacity:0.98999999;fill:#e91e63;fill-opacity:1"
         d="m 200.35337,83.671044 c 3.82109,-1.8095 6.38874,-6.59775 6.78358,-12.65027 0.48203,-7.389029 -3.21209,-14.585888 -9.60913,-18.720499 -2.42135,-1.564989 -3.62028,-1.871596 -2.45081,-0.626755 2.29428,2.442153 2.95792,7.443057 1.4446,10.88595 -0.73812,1.67927 -1.56291,2.554309 -5.94603,6.308274 -3.48764,2.98704 -4.01984,7.983 -1.27267,11.94716 2.32333,3.35257 7.29088,4.6365 11.05046,2.85614 z"
         id="path4334-3"
         inkscape:connector-curvature="0" />
      <path
         style="display:inline;opacity:0.98999999;fill:#ffffff"
         d="m 193.45771,79.929824 c -3.05291,-2.25236 -3.1129,-6.48668 -0.12403,-8.75496 4.05319,-3.07601 6.47811,-6.226906 7.07007,-9.186717 0.31747,-1.587298 0.66856,-1.493935 1.56457,0.41604 1.22762,2.616882 1.68375,5.158517 1.4989,8.352177 -0.26109,4.51093 -1.98033,8.32753 -4.28906,9.52142 -1.59324,0.8239 -4.36022,0.65559 -5.72045,-0.34796 z"
         id="path4332-9"
         inkscape:connector-curvature="0" />
      <path
         style="display:inline;opacity:0.98999999;fill:#009688;fill-opacity:0.98431373"
         d="m 169.67692,67.563074 c 3.26991,-2.939923 7.58763,-3.508343 12.05183,-1.58659 4.41845,1.90206 7.64228,1.6941 10.52085,-0.678652 5.08862,-4.194472 4.40711,-11.564501 -1.38316,-14.957824 -2.92343,-1.713242 -8.86718,-1.282549 -13.26535,0.961237 -4.85585,2.477272 -8.70485,6.952638 -10.4412,12.140367 -0.75662,2.260532 -1.20994,5.787692 -0.96941,7.542572 l 0.20251,1.47749 0.80754,-1.69907 c 0.44524,-0.9368 1.55626,-2.37225 2.47639,-3.19953 z"
         id="path4328-3"
         inkscape:connector-curvature="0" />
      <path
         style="display:inline;opacity:0.98999999;fill:#ffffff"
         d="m 182.93613,62.613566 c -1.27391,-0.567872 -3.16154,-1.148927 -4.19473,-1.291224 -1.75209,-0.241298 -5.26607,0.04178 -6.52751,0.52583 -0.81779,0.313822 -0.68287,-0.09564 0.61338,-1.861495 3.29205,-4.484661 8.10231,-7.05892 13.1903,-7.05892 2.80534,0 4.21839,0.683311 5.32779,2.576356 1.07606,1.836159 0.98186,4.157545 -0.24116,5.94241 -1.66511,2.430077 -4.44405,2.827123 -8.16807,1.167043 z"
         id="path4326-2"
         inkscape:connector-curvature="0" />
      <path
         style="display:inline;opacity:0.98999999;fill:#2297f4;fill-opacity:0.97647059"
         d="m 252.69776,89.899894 c 2.08786,-0.55581 5.63236,-2.18072 6.71867,-3.08007 0.76712,-0.63509 0.76401,-0.63608 -2.01347,-0.64273 -2.51776,-0.006 -2.98247,-0.11484 -4.89639,-1.14657 -3.52696,-1.90128 -5.19373,-4.60449 -5.7157,-9.26988 -0.16558,-1.48002 -0.56431,-3.21352 -0.88607,-3.85223 -1.83403,-3.64066 -6.00365,-5.7962 -9.71971,-5.02475 -2.55036,0.52945 -4.81141,2.12111 -6.11436,4.30418 -2.50262,4.19311 -1.56237,8.28167 3.00084,13.04873 2.76681,2.89041 6.34341,4.90556 10.47551,5.90218 1.50319,0.36256 7.47725,0.20661 9.15068,-0.23886 z"
         id="path4340-8-1"
         inkscape:connector-curvature="0" />
      <path
         style="display:inline;opacity:0.98999999;fill:#ffffff"
         d="m 244.90132,86.649284 c -4.43127,-0.64554 -9.6666,-4.23448 -11.74352,-8.05046 -0.76896,-1.41284 -0.90349,-2.00258 -0.7711,-3.38034 0.37665,-3.91999 4.20206,-6.04754 7.76897,-4.32081 2.10441,1.01873 2.91401,2.45803 3.2484,5.77493 0.32489,3.22281 1.63437,6.26084 3.63332,8.42945 1.85196,2.00913 1.71511,2.10825 -2.13607,1.54723 z"
         id="path4338-5-1"
         inkscape:connector-curvature="0" />
      <path
         style="display:inline;opacity:0.98999999;fill:#9c28b1;fill-opacity:0.98431373"
         d="m 261.33276,83.872524 c 3.82109,-1.8095 6.38874,-6.59774 6.78358,-12.65027 0.48202,-7.389027 -3.21209,-14.585888 -9.60913,-18.720499 -2.42135,-1.564988 -3.62028,-1.871595 -2.45081,-0.626755 2.29428,2.442152 2.95792,7.443059 1.4446,10.885952 -0.73812,1.67927 -1.56292,2.554308 -5.94603,6.308282 -3.48765,2.98703 -4.01984,7.983 -1.27267,11.94715 2.32332,3.35257 7.29088,4.6365 11.05046,2.85614 z"
         id="path4334-1-9"
         inkscape:connector-curvature="0" />
      <path
         style="display:inline;opacity:0.98999999;fill:#ffffff"
         d="m 254.4371,80.131314 c -3.05291,-2.25236 -3.1129,-6.48669 -0.12403,-8.75496 4.05318,-3.07601 6.47811,-6.226914 7.07007,-9.186725 0.31746,-1.587299 0.66856,-1.493935 1.56456,0.416039 1.22762,2.616883 1.68376,5.158516 1.49891,8.352176 -0.26109,4.51093 -1.98033,8.32753 -4.28906,9.52142 -1.59324,0.8239 -4.36022,0.65559 -5.72045,-0.34795 z"
         id="path4332-8-9"
         inkscape:connector-curvature="0" />
      <path
         style="display:inline;opacity:0.98999999;fill:#4bb05e;fill-opacity:0.93333334"
         d="m 230.65631,67.764564 c 3.26991,-2.939931 7.58763,-3.508351 12.05183,-1.5866 4.41845,1.90206 7.64228,1.6941 10.52084,-0.67865 5.08863,-4.194472 4.40712,-11.564503 -1.38315,-14.957826 -2.92343,-1.713241 -8.86718,-1.282548 -13.26535,0.961238 -4.85585,2.47727 -8.70485,6.952638 -10.44121,12.140367 -0.75661,2.260531 -1.20993,5.787691 -0.9694,7.542571 l 0.20251,1.4775 0.80754,-1.69908 c 0.44524,-0.93679 1.55626,-2.37224 2.47639,-3.19952 z"
         id="path4328-6-1"
         inkscape:connector-curvature="0" />
      <path
         style="display:inline;opacity:0.98999999;fill:#ffffff"
         d="m 243.91552,62.815047 c -1.27391,-0.567872 -3.16154,-1.148927 -4.19473,-1.291223 -1.75209,-0.241298 -5.26607,0.04178 -6.52751,0.525829 -0.81779,0.313823 -0.68287,-0.09564 0.61338,-1.861494 3.29205,-4.484663 8.10231,-7.058922 13.1903,-7.058922 2.80534,0 4.21839,0.683311 5.32779,2.576357 1.07606,1.836158 0.98185,4.157546 -0.24116,5.942411 -1.66511,2.430077 -4.44405,2.827123 -8.16807,1.167042 z"
         id="path4326-3-8"
         inkscape:connector-curvature="0" />
      <path
         style="display:inline;opacity:0.98999999;fill:#009688;fill-opacity:0.98431373"
         d="m 315.94678,46.763549 c 2.08787,-0.555802 5.63237,-2.180719 6.71868,-3.080065 0.76711,-0.635094 0.764,-0.636084 -2.01348,-0.642728 -2.51775,-0.006 -2.98246,-0.114847 -4.89638,-1.146578 -3.52697,-1.901272 -5.19374,-4.604488 -5.7157,-9.269872 -0.16558,-1.48002 -0.56432,-3.213525 -0.88608,-3.852232 -1.83403,-3.640655 -6.00364,-5.796201 -9.71971,-5.02475 -2.55036,0.529454 -4.81141,2.121115 -6.11435,4.304179 -2.50263,4.193107 -1.56237,8.281665 3.00084,13.048729 2.76681,2.890407 6.34341,4.905564 10.47551,5.902182 1.50319,0.362554 7.47724,0.206611 9.15067,-0.238865 z"
         id="path4340-8-4"
         inkscape:connector-curvature="0" />
      <path
         style="display:inline;opacity:0.98999999;fill:#ffffff"
         d="m 308.15035,43.512937 c -4.43127,-0.645536 -9.6666,-4.234473 -11.74352,-8.050456 -0.76896,-1.412843 -0.9035,-2.002584 -0.77111,-3.380342 0.37666,-3.919985 4.20206,-6.047526 7.76898,-4.320806 2.10441,1.018728 2.91401,2.458025 3.24839,5.774931 0.32489,3.222803 1.63437,6.260837 3.63332,8.429448 1.85196,2.009133 1.71512,2.108252 -2.13606,1.547225 z"
         id="path4338-5-3"
         inkscape:connector-curvature="0" />
      <path
         style="display:inline;opacity:0.98999999;fill:#9c28b1;fill-opacity:0.98431373"
         d="m 324.58179,40.73618 c 3.82109,-1.809497 6.38873,-6.597742 6.78357,-12.650264 0.48203,-7.389025 -3.21208,-14.585888 -9.60913,-18.720499 -2.42134,-1.564988 -3.62028,-1.871596 -2.45081,-0.626755 2.29429,2.442152 2.95792,7.443061 1.4446,10.885954 -0.73812,1.67927 -1.56291,2.554308 -5.94603,6.308277 -3.48764,2.987026 -4.01983,7.982994 -1.27267,11.947153 2.32333,3.352566 7.29089,4.636496 11.05047,2.856134 z"
         id="path4334-1-8"
         inkscape:connector-curvature="0" />
      <path
         style="display:inline;opacity:0.98999999;fill:#ffffff"
         d="m 317.68612,36.994968 c -3.0529,-2.25236 -3.11289,-6.486682 -0.12403,-8.75496 4.05319,-3.076004 6.47812,-6.226905 7.07008,-9.186715 0.31746,-1.587299 0.66855,-1.493935 1.56456,0.416039 1.22762,2.616883 1.68376,5.158517 1.49891,8.35217 -0.26109,4.510929 -1.98034,8.327534 -4.28906,9.521422 -1.59325,0.823902 -4.36022,0.655593 -5.72046,-0.347956 z"
         id="path4332-8-1"
         inkscape:connector-curvature="0" />
      <path
         style="display:inline;opacity:0.98999999;fill:#ff5722;fill-opacity:0.99215686"
         d="m 293.90534,24.628224 c 3.2699,-2.939927 7.58763,-3.508347 12.05182,-1.586594 4.41846,1.902055 7.64229,1.694102 10.52085,-0.678652 5.08862,-4.194472 4.40711,-11.564506 -1.38315,-14.957828 -2.92343,-1.713241 -8.86718,-1.282548 -13.26536,0.961238 -4.85584,2.47727 -8.70484,6.95264 -10.4412,12.140369 -0.75661,2.260532 -1.20994,5.787689 -0.9694,7.542564 l 0.20251,1.477498 0.80753,-1.699075 c 0.44524,-0.93679 1.55626,-2.37224 2.4764,-3.19952 z"
         id="path4328-6-4"
         inkscape:connector-curvature="0" />
      <path
         style="display:inline;opacity:0.98999999;fill:#ffffff"
         d="m 307.16455,19.678711 c -1.27391,-0.567872 -3.16154,-1.148927 -4.19474,-1.291223 -1.75209,-0.241298 -5.26606,0.04178 -6.5275,0.525829 -0.8178,0.313822 -0.68287,-0.09564 0.61338,-1.861494 3.29204,-4.484665 8.1023,-7.058924 13.19029,-7.058924 2.80535,0 4.2184,0.683311 5.3278,2.576356 1.07606,1.836159 0.98185,4.157548 -0.24117,5.942414 -1.66511,2.430077 -4.44404,2.827122 -8.16806,1.167042 z"
         id="path4326-3-7"
         inkscape:connector-curvature="0" />
      <path
         style="display:inline;opacity:0.98999999;fill:#ff5722;fill-opacity:0.99215686"
         d="m 313.80671,90.791203 c 2.08786,-0.55581 5.63236,-2.18072 6.71867,-3.08007 0.76712,-0.63509 0.76401,-0.63608 -2.01347,-0.64273 -2.51776,-0.006 -2.98247,-0.11484 -4.89639,-1.14657 -3.52696,-1.90128 -5.19373,-4.60449 -5.7157,-9.269882 -0.16558,-1.48002 -0.56431,-3.21352 -0.88607,-3.85223 -1.83403,-3.64066 -6.00365,-5.7962 -9.71971,-5.02475 -2.55036,0.52945 -4.81141,2.12111 -6.11436,4.30418 -2.50262,4.19311 -1.56237,8.281672 3.00084,13.048732 2.76681,2.89041 6.34341,4.90556 10.47551,5.90218 1.50319,0.36256 7.47725,0.20661 9.15068,-0.23886 z"
         id="path4340-8-1-3"
         inkscape:connector-curvature="0" />
      <path
         style="display:inline;opacity:0.98999999;fill:#ffffff"
         d="m 306.01027,87.540593 c -4.43127,-0.64554 -9.6666,-4.23448 -11.74352,-8.05046 -0.76896,-1.412842 -0.90349,-2.002582 -0.7711,-3.380342 0.37665,-3.91999 4.20206,-6.04754 7.76897,-4.32081 2.10441,1.01873 2.91401,2.45803 3.2484,5.77493 0.32489,3.222812 1.63437,6.260842 3.63332,8.429452 1.85196,2.00913 1.71511,2.10825 -2.13607,1.54723 z"
         id="path4338-5-1-6"
         inkscape:connector-curvature="0" />
      <path
         style="display:inline;opacity:0.98999999;fill:#9c28b1;fill-opacity:0.98431373"
         d="m 322.44171,84.763833 c 3.82109,-1.8095 6.38874,-6.597742 6.78358,-12.650272 0.48202,-7.389027 -3.21209,-14.585888 -9.60913,-18.720499 -2.42135,-1.564988 -3.62028,-1.871595 -2.45081,-0.626755 2.29428,2.442152 2.95792,7.443059 1.4446,10.885952 -0.73812,1.67927 -1.56292,2.554308 -5.94603,6.308282 -3.48765,2.98703 -4.01984,7.983 -1.27267,11.947152 2.32332,3.35257 7.29088,4.6365 11.05046,2.85614 z"
         id="path4334-1-9-2"
         inkscape:connector-curvature="0" />
      <path
         style="display:inline;opacity:0.98999999;fill:#ffffff"
         d="m 315.54605,81.022623 c -3.05291,-2.252362 -3.1129,-6.486692 -0.12403,-8.754962 4.05318,-3.07601 6.47811,-6.226914 7.07007,-9.186725 0.31746,-1.587299 0.66856,-1.493935 1.56456,0.416039 1.22762,2.616883 1.68376,5.158516 1.49891,8.352176 -0.26109,4.51093 -1.98033,8.327532 -4.28906,9.521422 -1.59324,0.8239 -4.36022,0.65559 -5.72045,-0.34795 z"
         id="path4332-8-9-82"
         inkscape:connector-curvature="0" />
      <path
         style="display:inline;opacity:0.98999999;fill:#4050b6;fill-opacity:0.98431373"
         d="m 291.76526,68.655871 c 3.26991,-2.939931 7.58763,-3.508351 12.05183,-1.5866 4.41845,1.90206 7.64228,1.6941 10.52084,-0.67865 5.08863,-4.194472 4.40712,-11.564503 -1.38315,-14.957826 -2.92343,-1.713241 -8.86718,-1.282548 -13.26535,0.961238 -4.85585,2.47727 -8.70485,6.952638 -10.44121,12.140367 -0.75661,2.260531 -1.20993,5.787691 -0.9694,7.542571 l 0.20251,1.4775 0.80754,-1.69908 c 0.44524,-0.93679 1.55626,-2.37224 2.47639,-3.19952 z"
         id="path4328-6-1-7"
         inkscape:connector-curvature="0" />
      <path
         style="display:inline;opacity:0.98999999;fill:#ffffff"
         d="m 305.02447,63.706354 c -1.27391,-0.567872 -3.16154,-1.148927 -4.19473,-1.291223 -1.75209,-0.241298 -5.26607,0.04178 -6.52751,0.525829 -0.81779,0.313823 -0.68287,-0.09564 0.61338,-1.861494 3.29205,-4.484663 8.10231,-7.058922 13.1903,-7.058922 2.80534,0 4.21839,0.683311 5.32779,2.576357 1.07606,1.836158 0.98185,4.157546 -0.24116,5.942411 -1.66511,2.430077 -4.44405,2.827123 -8.16807,1.167042 z"
         id="path4326-3-8-3"
         inkscape:connector-curvature="0" />
      <path
         style="display:inline;opacity:0.98999999;fill:#3598da;fill-opacity:0.98431373"
         d="m 197.61021,252.65431 c 2.08787,-0.5558 5.63237,-2.18072 6.71868,-3.08007 0.76711,-0.63509 0.764,-0.63608 -2.01348,-0.64273 -2.51775,-0.006 -2.98246,-0.11484 -4.89638,-1.14657 -3.52697,-1.90127 -5.19374,-4.60449 -5.7157,-9.26987 -0.16558,-1.48002 -0.56432,-3.21353 -0.88607,-3.85224 -1.83404,-3.64065 -6.00365,-5.7962 -9.71971,-5.02475 -2.55036,0.52946 -4.81142,2.12112 -6.11436,4.30418 -2.50263,4.19311 -1.56237,8.28167 3.00084,13.04873 2.76681,2.89041 6.34341,4.90556 10.47551,5.90218 1.50319,0.36256 7.47724,0.20661 9.15067,-0.23886 z"
         id="path4340-0"
         inkscape:connector-curvature="0" />
      <path
         style="display:inline;opacity:0.98999999;fill:#ffffff"
         d="m 189.81378,249.4037 c -4.43127,-0.64554 -9.6666,-4.23448 -11.74352,-8.05046 -0.76896,-1.41284 -0.90349,-2.00258 -0.77111,-3.38034 0.37666,-3.91999 4.20206,-6.04753 7.76898,-4.32081 2.10441,1.01873 2.91401,2.45803 3.24839,5.77493 0.32489,3.22281 1.63437,6.26084 3.63332,8.42945 1.85196,2.00913 1.71512,2.10825 -2.13606,1.54723 z"
         id="path4338-7"
         inkscape:connector-curvature="0" />
      <path
         style="display:inline;opacity:0.98999999;fill:#e74c3c;fill-opacity:0.99215686"
         d="m 206.24522,246.62694 c 3.82109,-1.8095 6.38873,-6.59774 6.78358,-12.65026 0.48202,-7.38903 -3.21209,-14.58589 -9.60914,-18.7205 -2.42134,-1.56499 -3.62027,-1.8716 -2.45081,-0.62676 2.29429,2.44215 2.95792,7.44306 1.4446,10.88595 -0.73812,1.67927 -1.56291,2.55431 -5.94603,6.30828 -3.48764,2.98703 -4.01983,7.983 -1.27267,11.94716 2.32333,3.35256 7.29089,4.63649 11.05047,2.85613 z"
         id="path4334-7"
         inkscape:connector-curvature="0" />
      <path
         style="display:inline;opacity:0.98999999;fill:#ffffff"
         d="m 199.34955,242.88573 c -3.0529,-2.25236 -3.11289,-6.48668 -0.12403,-8.75496 4.05319,-3.07601 6.47812,-6.22691 7.07008,-9.18672 0.31746,-1.5873 0.66855,-1.49393 1.56456,0.41604 1.22762,2.61688 1.68376,5.15852 1.49891,8.35217 -0.26109,4.51093 -1.98034,8.32753 -4.28906,9.52142 -1.59325,0.82391 -4.36022,0.6556 -5.72046,-0.34795 z"
         id="path4332-2"
         inkscape:connector-curvature="0" />
      <path
         style="display:inline;opacity:0.98999999;fill:#1abc9c;fill-opacity:0.99215686"
         d="m 175.56877,230.51898 c 3.26991,-2.93992 7.58763,-3.50834 12.05182,-1.58659 4.41846,1.90205 7.64229,1.6941 10.52085,-0.67865 5.08862,-4.19448 4.40711,-11.56451 -1.38315,-14.95783 -2.92343,-1.71324 -8.86718,-1.28255 -13.26536,0.96124 -4.85584,2.47727 -8.70484,6.95264 -10.4412,12.14037 -0.75661,2.26053 -1.20993,5.78768 -0.9694,7.54256 l 0.20251,1.4775 0.80753,-1.69908 c 0.44525,-0.93679 1.55626,-2.37224 2.4764,-3.19952 z"
         id="path4328-80"
         inkscape:connector-curvature="0" />
      <path
         style="display:inline;opacity:0.98999999;fill:#ffffff;stroke-width:3.2;stroke-miterlimit:4;stroke-dasharray:none"
         d="m 188.82798,225.56947 c -1.27391,-0.56787 -3.16154,-1.14893 -4.19474,-1.29122 -1.75209,-0.2413 -5.26606,0.0418 -6.5275,0.52583 -0.8178,0.31382 -0.68287,-0.0956 0.61338,-1.8615 3.29204,-4.48466 8.1023,-7.05892 13.19029,-7.05892 2.80535,0 4.2184,0.68331 5.3278,2.57636 1.07606,1.83615 0.98185,4.15754 -0.24117,5.94241 -1.6651,2.43007 -4.44404,2.82712 -8.16806,1.16704 z"
         id="path4326-4"
         inkscape:connector-curvature="0" />
      <rect
         style="display:inline;opacity:1;fill:#1abc9c;fill-opacity:1;stroke:none;stroke-width:1;stroke-linejoin:round;stroke-miterlimit:4;stroke-dasharray:none;stroke-dashoffset:0;stroke-opacity:0"
         id="rect4161-0"
         width="48.890873"
         height="20.303301"
         x="8.797801"
         y="211.00983" />
      <text
         xml:space="preserve"
         style="font-style:normal;font-variant:normal;font-weight:normal;font-stretch:normal;font-size:10px;line-height:125%;font-family:'Segoe UI';-inkscape-font-specification:'Segoe UI, Normal';text-align:start;letter-spacing:0px;word-spacing:0px;writing-mode:lr-tb;text-anchor:start;display:inline;opacity:0.98999999;fill:#ffffff;fill-opacity:1;stroke:#f443ff;stroke-width:1px;stroke-linecap:butt;stroke-linejoin:miter;stroke-opacity:0"
         x="13.348218"
         y="223.51256"
         id="text4214-4"
         sodipodi:linespacing="125%"><tspan
           sodipodi:role="line"
           id="tspan4216-05"
           x="13.348218"
           y="223.51256">A Propos</tspan></text>
      <rect
         style="display:inline;opacity:0.98999999;fill:#2ecc71;fill-opacity:1;stroke:none;stroke-width:1;stroke-linejoin:round;stroke-miterlimit:4;stroke-dasharray:none;stroke-dashoffset:0;stroke-opacity:1"
         id="rect4161-8-3"
         width="48.890873"
         height="20.303301"
         x="60.72213"
         y="211.00983" />
      <text
         xml:space="preserve"
         style="font-style:normal;font-variant:normal;font-weight:normal;font-stretch:normal;font-size:10px;line-height:125%;font-family:'Segoe UI';-inkscape-font-specification:'Segoe UI, Normal';text-align:start;letter-spacing:0px;word-spacing:0px;writing-mode:lr-tb;text-anchor:start;display:inline;opacity:0.98999999;fill:#ffffff;fill-opacity:1;stroke:none;stroke-width:1px;stroke-linecap:butt;stroke-linejoin:miter;stroke-opacity:1"
         x="65.272545"
         y="223.51256"
         id="text4214-9-0"
         sodipodi:linespacing="125%"><tspan
           sodipodi:role="line"
           id="tspan4216-5-80"
           x="65.272545"
           y="223.51256">A Propos</tspan></text>
      <rect
         style="display:inline;opacity:0.98999999;fill:#3498db;fill-opacity:1;stroke:none;stroke-width:1;stroke-linejoin:round;stroke-miterlimit:4;stroke-dasharray:none;stroke-dashoffset:0;stroke-opacity:1"
         id="rect4161-8-5-8"
         width="48.890873"
         height="20.303301"
         x="112.64646"
         y="211.00983" />
      <text
         xml:space="preserve"
         style="font-style:normal;font-variant:normal;font-weight:normal;font-stretch:normal;font-size:10px;line-height:125%;font-family:'Segoe UI';-inkscape-font-specification:'Segoe UI, Normal';text-align:start;letter-spacing:0px;word-spacing:0px;writing-mode:lr-tb;text-anchor:start;display:inline;opacity:0.98999999;fill:#ffffff;fill-opacity:1;stroke:none;stroke-width:1px;stroke-linecap:butt;stroke-linejoin:miter;stroke-opacity:1"
         x="117.19687"
         y="223.51256"
         id="text4214-9-5-93"
         sodipodi:linespacing="125%"><tspan
           sodipodi:role="line"
           id="tspan4216-5-2-5"
           x="117.19687"
           y="223.51256">A Propos</tspan></text>
      <rect
         style="display:inline;opacity:1;fill:#9b59b6;fill-opacity:1;stroke:none;stroke-width:1;stroke-linejoin:round;stroke-miterlimit:4;stroke-dasharray:none;stroke-dashoffset:0;stroke-opacity:1"
         id="rect4161-2-0"
         width="48.890873"
         height="20.303301"
         x="8.797801"
         y="233.48572" />
      <text
         xml:space="preserve"
         style="font-style:normal;font-variant:normal;font-weight:normal;font-stretch:normal;font-size:10px;line-height:125%;font-family:'Segoe UI';-inkscape-font-specification:'Segoe UI, Normal';text-align:start;letter-spacing:0px;word-spacing:0px;writing-mode:lr-tb;text-anchor:start;display:inline;opacity:0.98999999;fill:#ffffff;fill-opacity:1;stroke:none;stroke-width:1px;stroke-linecap:butt;stroke-linejoin:miter;stroke-opacity:1"
         x="13.348218"
         y="245.98845"
         id="text4214-0-9"
         sodipodi:linespacing="125%"><tspan
           sodipodi:role="line"
           id="tspan4216-0-4"
           x="13.348218"
           y="245.98845">A Propos</tspan></text>
      <rect
         style="display:inline;opacity:1;fill:#27ae60;fill-opacity:1;stroke:none;stroke-width:1;stroke-linejoin:round;stroke-miterlimit:4;stroke-dasharray:none;stroke-dashoffset:0;stroke-opacity:1"
         id="rect4161-80-5"
         width="48.890873"
         height="20.303301"
         x="8.9518175"
         y="256.84552" />
      <text
         xml:space="preserve"
         style="font-style:normal;font-variant:normal;font-weight:normal;font-stretch:normal;font-size:10px;line-height:125%;font-family:'Segoe UI';-inkscape-font-specification:'Segoe UI, Normal';text-align:start;letter-spacing:0px;word-spacing:0px;writing-mode:lr-tb;text-anchor:start;display:inline;opacity:0.98999999;fill:#ffffff;fill-opacity:1;stroke:none;stroke-width:1px;stroke-linecap:butt;stroke-linejoin:miter;stroke-opacity:1"
         x="13.502234"
         y="269.34824"
         id="text4214-7-7"
         sodipodi:linespacing="125%"><tspan
           sodipodi:role="line"
           id="tspan4216-3-5"
           x="13.502234"
           y="269.34824">A Propos</tspan></text>
      <rect
         style="display:inline;opacity:0.98999999;fill:#2980b9;fill-opacity:1;stroke:none;stroke-width:1;stroke-linejoin:round;stroke-miterlimit:4;stroke-dasharray:none;stroke-dashoffset:0;stroke-opacity:1"
         id="rect4161-8-0-2"
         width="48.890873"
         height="20.303301"
         x="60.876144"
         y="256.84552" />
      <text
         xml:space="preserve"
         style="font-style:normal;font-variant:normal;font-weight:normal;font-stretch:normal;font-size:10px;line-height:125%;font-family:'Segoe UI';-inkscape-font-specification:'Segoe UI, Normal';text-align:start;letter-spacing:0px;word-spacing:0px;writing-mode:lr-tb;text-anchor:start;display:inline;opacity:0.98999999;fill:#ffffff;fill-opacity:1;stroke:none;stroke-width:1px;stroke-linecap:butt;stroke-linejoin:miter;stroke-opacity:1"
         x="65.426559"
         y="269.34824"
         id="text4214-9-1-2"
         sodipodi:linespacing="125%"><tspan
           sodipodi:role="line"
           id="tspan4216-5-8-2"
           x="65.426559"
           y="269.34824">A Propos</tspan></text>
      <rect
         style="display:inline;opacity:0.98999999;fill:#8e44ad;fill-opacity:1;stroke:none;stroke-width:1;stroke-linejoin:round;stroke-miterlimit:4;stroke-dasharray:none;stroke-dashoffset:0;stroke-opacity:1"
         id="rect4161-8-5-7-0"
         width="48.890873"
         height="20.303301"
         x="112.80049"
         y="256.84552" />
      <text
         xml:space="preserve"
         style="font-style:normal;font-variant:normal;font-weight:normal;font-stretch:normal;font-size:10px;line-height:125%;font-family:'Segoe UI';-inkscape-font-specification:'Segoe UI, Normal';text-align:start;letter-spacing:0px;word-spacing:0px;writing-mode:lr-tb;text-anchor:start;display:inline;opacity:0.98999999;fill:#ffffff;fill-opacity:1;stroke:none;stroke-width:1px;stroke-linecap:butt;stroke-linejoin:miter;stroke-opacity:1"
         x="117.35089"
         y="269.34824"
         id="text4214-9-5-1-3"
         sodipodi:linespacing="125%"><tspan
           sodipodi:role="line"
           id="tspan4216-5-2-62-6"
           x="117.35089"
           y="269.34824">A Propos</tspan></text>
      <rect
         style="display:inline;opacity:1;fill:#2c3e50;fill-opacity:1;stroke:none;stroke-width:1;stroke-linejoin:round;stroke-miterlimit:4;stroke-dasharray:none;stroke-dashoffset:0;stroke-opacity:1"
         id="rect4161-2-7-8"
         width="48.890873"
         height="20.303301"
         x="8.9518137"
         y="279.32138" />
      <text
         xml:space="preserve"
         style="font-style:normal;font-variant:normal;font-weight:normal;font-stretch:normal;font-size:10px;line-height:125%;font-family:'Segoe UI';-inkscape-font-specification:'Segoe UI, Normal';text-align:start;letter-spacing:0px;word-spacing:0px;writing-mode:lr-tb;text-anchor:start;display:inline;opacity:0.98999999;fill:#ffffff;fill-opacity:1;stroke:none;stroke-width:1px;stroke-linecap:butt;stroke-linejoin:miter;stroke-opacity:1"
         x="13.502236"
         y="291.82413"
         id="text4214-0-5-68"
         sodipodi:linespacing="125%"><tspan
           sodipodi:role="line"
           id="tspan4216-0-1-0"
           x="13.502236"
           y="291.82413">A Propos</tspan></text>
      <rect
         y="279.32141"
         x="60.876144"
         height="20.303301"
         width="48.890873"
         id="rect4161-8-8-6-0"
         style="display:inline;opacity:0.98009997;fill:#f1c40f;fill-opacity:1;stroke:none;stroke-width:1;stroke-linejoin:round;stroke-miterlimit:4;stroke-dasharray:none;stroke-dashoffset:0;stroke-opacity:1" />
      <text
         sodipodi:linespacing="125%"
         id="text4214-9-2-8-4"
         y="291.82413"
         x="65.426559"
         style="font-style:normal;font-variant:normal;font-weight:normal;font-stretch:normal;font-size:10px;line-height:125%;font-family:'Segoe UI';-inkscape-font-specification:'Segoe UI, Normal';text-align:start;letter-spacing:0px;word-spacing:0px;writing-mode:lr-tb;text-anchor:start;display:inline;opacity:0.98999999;fill:#ffffff;fill-opacity:1;stroke:none;stroke-width:1px;stroke-linecap:butt;stroke-linejoin:miter;stroke-opacity:1"
         xml:space="preserve"><tspan
           y="291.82413"
           x="65.426559"
           id="tspan4216-5-5-7-5"
           sodipodi:role="line">A Propos</tspan></text>
      <rect
         y="279.32141"
         x="112.80049"
         height="20.303301"
         width="48.890873"
         id="rect4161-8-5-3-8-8"
         style="display:inline;opacity:0.98009997;fill:#e67e22;fill-opacity:1;stroke:none;stroke-width:1;stroke-linejoin:round;stroke-miterlimit:4;stroke-dasharray:none;stroke-dashoffset:0;stroke-opacity:1" />
      <text
         sodipodi:linespacing="125%"
         id="text4214-9-5-9-8-5"
         y="291.82413"
         x="117.35089"
         style="font-style:normal;font-variant:normal;font-weight:normal;font-stretch:normal;font-size:10px;line-height:125%;font-family:'Segoe UI';-inkscape-font-specification:'Segoe UI, Normal';text-align:start;letter-spacing:0px;word-spacing:0px;writing-mode:lr-tb;text-anchor:start;display:inline;opacity:0.98009997;fill:#ffffff;fill-opacity:1;stroke:none;stroke-width:1px;stroke-linecap:butt;stroke-linejoin:miter;stroke-opacity:1"
         xml:space="preserve"><tspan
           y="291.82413"
           x="117.35089"
           id="tspan4216-5-2-6-1-0"
           sodipodi:role="line">A Propos</tspan></text>
      <rect
         style="display:inline;opacity:0.98999999;fill:#34495e;fill-opacity:1;stroke:none;stroke-width:1;stroke-linejoin:round;stroke-miterlimit:4;stroke-dasharray:none;stroke-dashoffset:0;stroke-opacity:1"
         id="rect4161-8-8-0"
         width="48.890873"
         height="20.303301"
         x="60.72213"
         y="233.48572" />
      <text
         xml:space="preserve"
         style="font-style:normal;font-variant:normal;font-weight:normal;font-stretch:normal;font-size:10px;line-height:125%;font-family:'Segoe UI';-inkscape-font-specification:'Segoe UI, Normal';text-align:start;letter-spacing:0px;word-spacing:0px;writing-mode:lr-tb;text-anchor:start;display:inline;opacity:0.98999999;fill:#ffffff;fill-opacity:1;stroke:none;stroke-width:1px;stroke-linecap:butt;stroke-linejoin:miter;stroke-opacity:1"
         x="65.272545"
         y="245.98845"
         id="text4214-9-2-6"
         sodipodi:linespacing="125%"><tspan
           sodipodi:role="line"
           id="tspan4216-5-5-0"
           x="65.272545"
           y="245.98845">A Propos</tspan></text>
      <rect
         style="display:inline;opacity:0.98999999;fill:#16a085;fill-opacity:1;stroke:none;stroke-width:1;stroke-linejoin:round;stroke-miterlimit:4;stroke-dasharray:none;stroke-dashoffset:0;stroke-opacity:1"
         id="rect4161-8-5-3-0"
         width="48.890873"
         height="20.303301"
         x="112.64646"
         y="233.48572" />
      <text
         xml:space="preserve"
         style="font-style:normal;font-variant:normal;font-weight:normal;font-stretch:normal;font-size:10px;line-height:125%;font-family:'Segoe UI';-inkscape-font-specification:'Segoe UI, Normal';text-align:start;letter-spacing:0px;word-spacing:0px;writing-mode:lr-tb;text-anchor:start;display:inline;opacity:0.98999999;fill:#ffffff;fill-opacity:1;stroke:none;stroke-width:1px;stroke-linecap:butt;stroke-linejoin:miter;stroke-opacity:1"
         x="117.19687"
         y="245.98845"
         id="text4214-9-5-9-81"
         sodipodi:linespacing="125%"><tspan
           sodipodi:role="line"
           id="tspan4216-5-2-6-8"
           x="117.19687"
           y="245.98845">A Propos</tspan></text>
      <rect
         style="display:inline;opacity:1;fill:#e74c3c;fill-opacity:1;stroke:none;stroke-width:1;stroke-linejoin:round;stroke-miterlimit:4;stroke-dasharray:none;stroke-dashoffset:0;stroke-opacity:1"
         id="rect4161-2-7-7-0"
         width="48.890873"
         height="20.303301"
         x="8.9518099"
         y="301.92355" />
      <text
         xml:space="preserve"
         style="font-style:normal;font-variant:normal;font-weight:normal;font-stretch:normal;font-size:10px;line-height:125%;font-family:'Segoe UI';-inkscape-font-specification:'Segoe UI, Normal';text-align:start;letter-spacing:0px;word-spacing:0px;writing-mode:lr-tb;text-anchor:start;display:inline;opacity:0.98999999;fill:#ffffff;fill-opacity:1;stroke:none;stroke-width:1px;stroke-linecap:butt;stroke-linejoin:miter;stroke-opacity:1"
         x="13.502229"
         y="314.42627"
         id="text4214-0-5-6-2"
         sodipodi:linespacing="125%"><tspan
           sodipodi:role="line"
           id="tspan4216-0-1-6-1"
           x="13.502229"
           y="314.42627">A Propos</tspan></text>
      <rect
         y="301.92355"
         x="60.876137"
         height="20.303301"
         width="48.890873"
         id="rect4161-8-8-6-9-7"
         style="display:inline;opacity:0.98009997;fill:#95a5a6;fill-opacity:1;stroke:none;stroke-width:1;stroke-linejoin:round;stroke-miterlimit:4;stroke-dasharray:none;stroke-dashoffset:0;stroke-opacity:1" />
      <text
         sodipodi:linespacing="125%"
         id="text4214-9-2-8-2-2"
         y="314.4263"
         x="65.426559"
         style="font-style:normal;font-variant:normal;font-weight:normal;font-stretch:normal;font-size:10px;line-height:125%;font-family:'Segoe UI';-inkscape-font-specification:'Segoe UI, Normal';text-align:start;letter-spacing:0px;word-spacing:0px;writing-mode:lr-tb;text-anchor:start;display:inline;opacity:0.98999999;fill:#ffffff;fill-opacity:1;stroke:none;stroke-width:1px;stroke-linecap:butt;stroke-linejoin:miter;stroke-opacity:1"
         xml:space="preserve"><tspan
           y="314.4263"
           x="65.426559"
           id="tspan4216-5-5-7-6-9"
           sodipodi:role="line">A Propos</tspan></text>
      <rect
         y="301.92355"
         x="112.80049"
         height="20.303301"
         width="48.890873"
         id="rect4161-8-5-3-8-2-9"
         style="display:inline;opacity:0.98009997;fill:#f39c12;fill-opacity:1;stroke:none;stroke-width:1;stroke-linejoin:round;stroke-miterlimit:4;stroke-dasharray:none;stroke-dashoffset:0;stroke-opacity:1" />
      <text
         sodipodi:linespacing="125%"
         id="text4214-9-5-9-8-3-8"
         y="314.4263"
         x="117.35089"
         style="font-style:normal;font-variant:normal;font-weight:normal;font-stretch:normal;font-size:10px;line-height:125%;font-family:'Segoe UI';-inkscape-font-specification:'Segoe UI, Normal';text-align:start;letter-spacing:0px;word-spacing:0px;writing-mode:lr-tb;text-anchor:start;display:inline;opacity:0.98009997;fill:#ffffff;fill-opacity:1;stroke:none;stroke-width:1px;stroke-linecap:butt;stroke-linejoin:miter;stroke-opacity:1"
         xml:space="preserve"><tspan
           y="314.4263"
           x="117.35089"
           id="tspan4216-5-2-6-1-3-2"
           sodipodi:role="line">A Propos</tspan></text>
      <rect
         style="display:inline;opacity:1;fill:#d35400;fill-opacity:1;stroke:none;stroke-width:1;stroke-linejoin:round;stroke-miterlimit:4;stroke-dasharray:none;stroke-dashoffset:0;stroke-opacity:1"
         id="rect4161-2-7-3-0"
         width="48.890873"
         height="20.303301"
         x="8.9518118"
         y="325.04889" />
      <text
         xml:space="preserve"
         style="font-style:normal;font-variant:normal;font-weight:normal;font-stretch:normal;font-size:10px;line-height:125%;font-family:'Segoe UI';-inkscape-font-specification:'Segoe UI, Normal';text-align:start;letter-spacing:0px;word-spacing:0px;writing-mode:lr-tb;text-anchor:start;display:inline;opacity:0.98999999;fill:#ffffff;fill-opacity:1;stroke:none;stroke-width:1px;stroke-linecap:butt;stroke-linejoin:miter;stroke-opacity:1"
         x="13.502234"
         y="337.55164"
         id="text4214-0-5-3-9"
         sodipodi:linespacing="125%"><tspan
           sodipodi:role="line"
           id="tspan4216-0-1-5-6"
           x="13.502234"
           y="337.55164">A Propos</tspan></text>
      <rect
         y="325.04892"
         x="60.876144"
         height="20.303301"
         width="48.890873"
         id="rect4161-8-8-6-4-5"
         style="display:inline;opacity:0.98009997;fill:#c0392b;fill-opacity:1;stroke:none;stroke-width:1;stroke-linejoin:round;stroke-miterlimit:4;stroke-dasharray:none;stroke-dashoffset:0;stroke-opacity:1" />
      <text
         sodipodi:linespacing="125%"
         id="text4214-9-2-8-5-4"
         y="337.55164"
         x="65.426559"
         style="font-style:normal;font-variant:normal;font-weight:normal;font-stretch:normal;font-size:10px;line-height:125%;font-family:'Segoe UI';-inkscape-font-specification:'Segoe UI, Normal';text-align:start;letter-spacing:0px;word-spacing:0px;writing-mode:lr-tb;text-anchor:start;display:inline;opacity:0.98999999;fill:#ffffff;fill-opacity:1;stroke:none;stroke-width:1px;stroke-linecap:butt;stroke-linejoin:miter;stroke-opacity:1"
         xml:space="preserve"><tspan
           y="337.55164"
           x="65.426559"
           id="tspan4216-5-5-7-7-2"
           sodipodi:role="line">A Propos</tspan></text>
      <rect
         y="325.04892"
         x="112.80049"
         height="20.303301"
         width="48.890873"
         id="rect4161-8-5-3-8-6-0"
         style="display:inline;opacity:0.98009997;fill:#9e9e9e;fill-opacity:1;stroke:none;stroke-width:1;stroke-linejoin:round;stroke-miterlimit:4;stroke-dasharray:none;stroke-dashoffset:0;stroke-opacity:1" />
      <text
         sodipodi:linespacing="125%"
         id="text4214-9-5-9-8-9-6"
         y="337.55164"
         x="117.35089"
         style="font-style:normal;font-variant:normal;font-weight:normal;font-stretch:normal;font-size:10px;line-height:125%;font-family:'Segoe UI';-inkscape-font-specification:'Segoe UI, Normal';text-align:start;letter-spacing:0px;word-spacing:0px;writing-mode:lr-tb;text-anchor:start;display:inline;opacity:0.98009997;fill:#ffffff;fill-opacity:1;stroke:none;stroke-width:1px;stroke-linecap:butt;stroke-linejoin:miter;stroke-opacity:1"
         xml:space="preserve"><tspan
           y="337.55164"
           x="117.35089"
           id="tspan4216-5-2-6-1-1-1"
           sodipodi:role="line">A Propos</tspan></text>
      <rect
         style="display:inline;opacity:1;fill:#607d8b;fill-opacity:1;stroke:none;stroke-width:1;stroke-linejoin:round;stroke-miterlimit:4;stroke-dasharray:none;stroke-dashoffset:0;stroke-opacity:1"
         id="rect4161-2-7-7-4-3"
         width="48.890873"
         height="20.303301"
         x="8.9518061"
         y="347.65106" />
      <text
         xml:space="preserve"
         style="font-style:normal;font-variant:normal;font-weight:normal;font-stretch:normal;font-size:10px;line-height:125%;font-family:'Segoe UI';-inkscape-font-specification:'Segoe UI, Normal';text-align:start;letter-spacing:0px;word-spacing:0px;writing-mode:lr-tb;text-anchor:start;display:inline;opacity:0.98999999;fill:#ffffff;fill-opacity:1;stroke:none;stroke-width:1px;stroke-linecap:butt;stroke-linejoin:miter;stroke-opacity:1"
         x="13.502229"
         y="360.15378"
         id="text4214-0-5-6-1-2"
         sodipodi:linespacing="125%"><tspan
           sodipodi:role="line"
           id="tspan4216-0-1-6-6-0"
           x="13.502229"
           y="360.15378">A Propos</tspan></text>
      <path
         style="display:inline;opacity:0.98999999;fill:#f39c13;fill-opacity:0.97254902"
         d="m 258.5896,252.85579 c 2.08787,-0.5558 5.63237,-2.18072 6.71868,-3.08007 0.76711,-0.63509 0.764,-0.63608 -2.01348,-0.64272 -2.51775,-0.006 -2.98246,-0.11485 -4.89638,-1.14658 -3.52697,-1.90127 -5.19374,-4.60449 -5.7157,-9.26987 -0.16558,-1.48002 -0.56432,-3.21353 -0.88608,-3.85224 -1.83403,-3.64065 -6.00364,-5.7962 -9.71971,-5.02475 -2.55036,0.52946 -4.81141,2.12112 -6.11435,4.30418 -2.50263,4.19311 -1.56237,8.28167 3.00084,13.04873 2.76681,2.89041 6.34341,4.90557 10.47551,5.90218 1.50319,0.36256 7.47724,0.20662 9.15067,-0.23886 z"
         id="path4340-8-0"
         inkscape:connector-curvature="0" />
      <path
         style="display:inline;opacity:0.98999999;fill:#ffffff"
         d="m 250.79317,249.60518 c -4.43127,-0.64554 -9.6666,-4.23448 -11.74352,-8.05046 -0.76896,-1.41284 -0.9035,-2.00258 -0.77111,-3.38034 0.37666,-3.91999 4.20206,-6.04753 7.76898,-4.32081 2.10441,1.01873 2.91401,2.45803 3.24839,5.77493 0.32489,3.22281 1.63437,6.26084 3.63332,8.42945 1.85196,2.00914 1.71512,2.10825 -2.13606,1.54723 z"
         id="path4338-5-04"
         inkscape:connector-curvature="0" />
      <path
         style="display:inline;opacity:0.98999999;fill:#8e43ae;fill-opacity:0.98431373"
         d="m 267.22461,246.82842 c 3.82109,-1.8095 6.38873,-6.59774 6.78357,-12.65026 0.48203,-7.38903 -3.21208,-14.58589 -9.60913,-18.7205 -2.42134,-1.56499 -3.62028,-1.8716 -2.45081,-0.62676 2.29429,2.44215 2.95792,7.44306 1.4446,10.88596 -0.73812,1.67927 -1.56291,2.5543 -5.94603,6.30827 -3.48764,2.98703 -4.01983,7.983 -1.27267,11.94716 2.32333,3.35256 7.29089,4.63649 11.05047,2.85613 z"
         id="path4334-1-3"
         inkscape:connector-curvature="0" />
      <path
         style="display:inline;opacity:0.98999999;fill:#ffffff"
         d="m 260.32894,243.08721 c -3.0529,-2.25236 -3.11289,-6.48668 -0.12403,-8.75496 4.05319,-3.07601 6.47812,-6.22691 7.07008,-9.18672 0.31746,-1.5873 0.66855,-1.49393 1.56456,0.41604 1.22762,2.61689 1.68376,5.15852 1.49891,8.35217 -0.26109,4.51093 -1.98034,8.32754 -4.28906,9.52142 -1.59325,0.82391 -4.36022,0.6556 -5.72046,-0.34795 z"
         id="path4332-8-0"
         inkscape:connector-curvature="0" />
      <path
         style="display:inline;opacity:0.98999999;fill:#c03a2b;fill-opacity:0.97254902"
         d="m 236.54816,230.72046 c 3.2699,-2.93992 7.58763,-3.50834 12.05182,-1.58659 4.41846,1.90206 7.64229,1.6941 10.52085,-0.67865 5.08862,-4.19447 4.40711,-11.56451 -1.38315,-14.95783 -2.92343,-1.71324 -8.86718,-1.28255 -13.26536,0.96124 -4.85584,2.47727 -8.70484,6.95264 -10.4412,12.14037 -0.75661,2.26053 -1.20994,5.78769 -0.9694,7.54256 l 0.20251,1.4775 0.80753,-1.69908 c 0.44524,-0.93679 1.55626,-2.37224 2.4764,-3.19952 z"
         id="path4328-6-5"
         inkscape:connector-curvature="0" />
      <path
         style="display:inline;opacity:0.98999999;fill:#ffffff"
         d="m 249.80737,225.77095 c -1.27391,-0.56787 -3.16154,-1.14893 -4.19474,-1.29122 -1.75209,-0.2413 -5.26606,0.0418 -6.5275,0.52583 -0.8178,0.31382 -0.68287,-0.0956 0.61338,-1.8615 3.29204,-4.48466 8.1023,-7.05892 13.19029,-7.05892 2.80535,0 4.2184,0.68331 5.3278,2.57636 1.07606,1.83615 0.98185,4.15754 -0.24117,5.94241 -1.66511,2.43008 -4.44404,2.82712 -8.16806,1.16704 z"
         id="path4326-3-80"
         inkscape:connector-curvature="0" />
      <path
         style="display:inline;opacity:0.98999999;fill:#27ae60;fill-opacity:0.99215686"
         d="m 195.47014,296.68196 c 2.08786,-0.55581 5.63236,-2.18072 6.71867,-3.08007 0.76712,-0.63509 0.76401,-0.63608 -2.01347,-0.64273 -2.51776,-0.006 -2.98247,-0.11484 -4.89639,-1.14658 -3.52696,-1.90127 -5.19373,-4.60448 -5.7157,-9.26987 -0.16558,-1.48002 -0.56431,-3.21352 -0.88607,-3.85223 -1.83403,-3.64066 -6.00364,-5.79621 -9.71971,-5.02476 -2.55036,0.52946 -4.81141,2.12112 -6.11436,4.30419 -2.50262,4.19311 -1.56237,8.28166 3.00084,13.04873 2.76681,2.89041 6.34342,4.90556 10.47551,5.90218 1.50319,0.36255 7.47725,0.20661 9.15068,-0.23886 z"
         id="path4340-6-7"
         inkscape:connector-curvature="0" />
      <path
         style="display:inline;opacity:0.98999999;fill:#ffffff"
         d="m 187.6737,293.43134 c -4.43127,-0.64553 -9.66659,-4.23447 -11.74351,-8.05045 -0.76897,-1.41285 -0.9035,-2.00259 -0.77111,-3.38034 0.37666,-3.91999 4.20206,-6.04754 7.76898,-4.32081 2.1044,1.01873 2.914,2.45802 3.24839,5.77493 0.32489,3.2228 1.63437,6.26084 3.63332,8.42945 1.85196,2.00913 1.71511,2.10825 -2.13607,1.54722 z"
         id="path4338-4-9"
         inkscape:connector-curvature="0" />
      <path
         style="display:inline;opacity:0.98999999;fill:#c03a2b;fill-opacity:0.97254902"
         d="m 204.10514,290.65459 c 3.82109,-1.8095 6.38874,-6.59775 6.78358,-12.65027 0.48203,-7.38903 -3.21209,-14.58589 -9.60913,-18.7205 -2.42135,-1.56499 -3.62028,-1.87159 -2.45081,-0.62675 2.29428,2.44215 2.95792,7.44305 1.4446,10.88595 -0.73812,1.67927 -1.56291,2.55431 -5.94603,6.30827 -3.48764,2.98704 -4.01984,7.983 -1.27267,11.94716 2.32333,3.35257 7.29088,4.6365 11.05046,2.85614 z"
         id="path4334-3-5"
         inkscape:connector-curvature="0" />
      <path
         style="display:inline;opacity:0.98999999;fill:#ffffff"
         d="m 197.20948,286.91337 c -3.05291,-2.25236 -3.1129,-6.48668 -0.12403,-8.75496 4.05319,-3.07601 6.47811,-6.2269 7.07007,-9.18672 0.31747,-1.58729 0.66856,-1.49393 1.56457,0.41604 1.22762,2.61689 1.68375,5.15852 1.4989,8.35218 -0.26109,4.51093 -1.98033,8.32753 -4.28906,9.52142 -1.59324,0.8239 -4.36022,0.65559 -5.72045,-0.34796 z"
         id="path4332-9-7"
         inkscape:connector-curvature="0" />
      <path
         style="display:inline;opacity:0.98999999;fill:#2a80ba;fill-opacity:0.98431373"
         d="m 173.42869,274.54662 c 3.26991,-2.93992 7.58763,-3.50834 12.05183,-1.58659 4.41845,1.90206 7.64228,1.6941 10.52085,-0.67865 5.08862,-4.19447 4.40711,-11.5645 -1.38316,-14.95782 -2.92343,-1.71325 -8.86718,-1.28255 -13.26535,0.96123 -4.85585,2.47727 -8.70485,6.95264 -10.4412,12.14037 -0.75662,2.26053 -1.20994,5.78769 -0.96941,7.54257 l 0.20251,1.47749 0.80754,-1.69907 c 0.44524,-0.9368 1.55626,-2.37225 2.47639,-3.19953 z"
         id="path4328-3-2"
         inkscape:connector-curvature="0" />
      <path
         style="display:inline;opacity:0.98999999;fill:#ffffff"
         d="m 186.6879,269.59711 c -1.27391,-0.56787 -3.16154,-1.14892 -4.19473,-1.29122 -1.75209,-0.2413 -5.26607,0.0418 -6.52751,0.52583 -0.81779,0.31382 -0.68287,-0.0956 0.61338,-1.8615 3.29205,-4.48466 8.10231,-7.05892 13.1903,-7.05892 2.80534,0 4.21839,0.68332 5.32779,2.57636 1.07606,1.83616 0.98186,4.15755 -0.24116,5.94241 -1.66511,2.43008 -4.44405,2.82712 -8.16807,1.16704 z"
         id="path4326-2-4"
         inkscape:connector-curvature="0" />
      <path
         style="display:inline;opacity:0.98999999;fill:#ff5722;fill-opacity:0.99215686"
         d="m 256.44953,296.88344 c 2.08786,-0.55581 5.63236,-2.18072 6.71867,-3.08007 0.76712,-0.63509 0.76401,-0.63608 -2.01347,-0.64273 -2.51776,-0.006 -2.98247,-0.11484 -4.89639,-1.14657 -3.52696,-1.90128 -5.19373,-4.60449 -5.7157,-9.26988 -0.16558,-1.48002 -0.56431,-3.21352 -0.88607,-3.85223 -1.83403,-3.64066 -6.00365,-5.7962 -9.71971,-5.02475 -2.55036,0.52945 -4.81141,2.12111 -6.11436,4.30418 -2.50262,4.19311 -1.56237,8.28167 3.00084,13.04873 2.76681,2.89041 6.34341,4.90556 10.47551,5.90218 1.50319,0.36256 7.47725,0.20661 9.15068,-0.23886 z"
         id="path4340-8-1-31"
         inkscape:connector-curvature="0" />
      <path
         style="display:inline;opacity:0.98999999;fill:#ffffff"
         d="m 248.65309,293.63283 c -4.43127,-0.64554 -9.6666,-4.23448 -11.74352,-8.05046 -0.76896,-1.41284 -0.90349,-2.00258 -0.7711,-3.38034 0.37665,-3.91999 4.20206,-6.04754 7.76897,-4.32081 2.10441,1.01873 2.91401,2.45803 3.2484,5.77493 0.32489,3.22281 1.63437,6.26084 3.63332,8.42945 1.85196,2.00913 1.71511,2.10825 -2.13607,1.54723 z"
         id="path4338-5-1-9"
         inkscape:connector-curvature="0" />
      <path
         style="display:inline;opacity:0.98999999;fill:#009688;fill-opacity:0.98431373"
         d="m 265.08453,290.85607 c 3.82109,-1.8095 6.38874,-6.59774 6.78358,-12.65027 0.48202,-7.38903 -3.21209,-14.58589 -9.60913,-18.7205 -2.42135,-1.56499 -3.62028,-1.87159 -2.45081,-0.62675 2.29428,2.44215 2.95792,7.44306 1.4446,10.88595 -0.73812,1.67927 -1.56292,2.55431 -5.94603,6.30828 -3.48765,2.98703 -4.01984,7.983 -1.27267,11.94715 2.32332,3.35257 7.29088,4.6365 11.05046,2.85614 z"
         id="path4334-1-9-4"
         inkscape:connector-curvature="0" />
      <path
         style="display:inline;opacity:0.98999999;fill:#ffffff"
         d="m 258.18887,287.11486 c -3.05291,-2.25236 -3.1129,-6.48669 -0.12403,-8.75496 4.05318,-3.07601 6.47811,-6.22691 7.07007,-9.18672 0.31746,-1.5873 0.66856,-1.49394 1.56456,0.41604 1.22762,2.61688 1.68376,5.15851 1.49891,8.35217 -0.26109,4.51093 -1.98033,8.32753 -4.28906,9.52142 -1.59324,0.8239 -4.36022,0.65559 -5.72045,-0.34795 z"
         id="path4332-8-9-4"
         inkscape:connector-curvature="0" />
      <path
         style="display:inline;opacity:0.98999999;fill:#9c28b1;fill-opacity:0.98431373"
         d="m 234.40808,274.74811 c 3.26991,-2.93993 7.58763,-3.50835 12.05183,-1.5866 4.41845,1.90206 7.64228,1.6941 10.52084,-0.67865 5.08863,-4.19447 4.40712,-11.5645 -1.38315,-14.95782 -2.92343,-1.71325 -8.86718,-1.28255 -13.26535,0.96123 -4.85585,2.47727 -8.70485,6.95264 -10.44121,12.14037 -0.75661,2.26053 -1.20993,5.78769 -0.9694,7.54257 l 0.20251,1.4775 0.80754,-1.69908 c 0.44524,-0.93679 1.55626,-2.37224 2.47639,-3.19952 z"
         id="path4328-6-1-1"
         inkscape:connector-curvature="0" />
      <path
         style="display:inline;opacity:0.98999999;fill:#ffffff"
         d="m 247.66729,269.79859 c -1.27391,-0.56787 -3.16154,-1.14892 -4.19473,-1.29122 -1.75209,-0.2413 -5.26607,0.0418 -6.52751,0.52583 -0.81779,0.31382 -0.68287,-0.0956 0.61338,-1.86149 3.29205,-4.48467 8.10231,-7.05893 13.1903,-7.05893 2.80534,0 4.21839,0.68332 5.32779,2.57636 1.07606,1.83616 0.98185,4.15755 -0.24116,5.94241 -1.66511,2.43008 -4.44405,2.82713 -8.16807,1.16704 z"
         id="path4326-3-8-6"
         inkscape:connector-curvature="0" />
      <path
         style="display:inline;opacity:0.98999999;fill:#27ae60;fill-opacity:0.99215686"
         d="m 319.69855,253.7471 c 2.08787,-0.55581 5.63237,-2.18072 6.71868,-3.08007 0.76711,-0.63509 0.764,-0.63608 -2.01348,-0.64273 -2.51775,-0.006 -2.98246,-0.11484 -4.89638,-1.14657 -3.52697,-1.90128 -5.19374,-4.60449 -5.7157,-9.26988 -0.16558,-1.48002 -0.56432,-3.21352 -0.88608,-3.85223 -1.83403,-3.64065 -6.00364,-5.7962 -9.71971,-5.02475 -2.55036,0.52946 -4.81141,2.12112 -6.11435,4.30418 -2.50263,4.19311 -1.56237,8.28167 3.00084,13.04873 2.76681,2.89041 6.34341,4.90556 10.47551,5.90218 1.50319,0.36256 7.47724,0.20661 9.15067,-0.23886 z"
         id="path4340-8-4-6"
         inkscape:connector-curvature="0" />
      <path
         style="display:inline;opacity:0.98999999;fill:#ffffff"
         d="m 311.90212,250.49648 c -4.43127,-0.64553 -9.6666,-4.23447 -11.74352,-8.05045 -0.76896,-1.41284 -0.9035,-2.00259 -0.77111,-3.38034 0.37666,-3.91999 4.20206,-6.04753 7.76898,-4.32081 2.10441,1.01873 2.91401,2.45803 3.24839,5.77493 0.32489,3.2228 1.63437,6.26084 3.63332,8.42945 1.85196,2.00913 1.71512,2.10825 -2.13606,1.54722 z"
         id="path4338-5-3-3"
         inkscape:connector-curvature="0" />
      <path
         style="display:inline;opacity:0.98999999;fill:#8e43ae;fill-opacity:0.98431373"
         d="m 328.33356,247.71973 c 3.82109,-1.8095 6.38873,-6.59774 6.78357,-12.65027 0.48203,-7.38902 -3.21208,-14.58588 -9.60913,-18.7205 -2.42134,-1.56498 -3.62028,-1.87159 -2.45081,-0.62675 2.29429,2.44215 2.95792,7.44306 1.4446,10.88595 -0.73812,1.67927 -1.56291,2.55431 -5.94603,6.30828 -3.48764,2.98703 -4.01983,7.98299 -1.27267,11.94715 2.32333,3.35257 7.29089,4.6365 11.05047,2.85614 z"
         id="path4334-1-8-2"
         inkscape:connector-curvature="0" />
      <path
         style="display:inline;opacity:0.98999999;fill:#ffffff"
         d="m 321.43789,243.97852 c -3.0529,-2.25236 -3.11289,-6.48669 -0.12403,-8.75496 4.05319,-3.07601 6.47812,-6.22691 7.07008,-9.18672 0.31746,-1.5873 0.66855,-1.49393 1.56456,0.41604 1.22762,2.61688 1.68376,5.15852 1.49891,8.35217 -0.26109,4.51093 -1.98034,8.32753 -4.28906,9.52142 -1.59325,0.8239 -4.36022,0.65559 -5.72046,-0.34795 z"
         id="path4332-8-1-2"
         inkscape:connector-curvature="0" />
      <path
         style="display:inline;opacity:0.98999999;fill:#e57e22;fill-opacity:0.97254902"
         d="m 297.65711,231.61177 c 3.2699,-2.93993 7.58763,-3.50835 12.05182,-1.58659 4.41846,1.90205 7.64229,1.6941 10.52085,-0.67865 5.08862,-4.19448 4.40711,-11.56451 -1.38315,-14.95783 -2.92343,-1.71324 -8.86718,-1.28255 -13.26536,0.96124 -4.85584,2.47727 -8.70484,6.95264 -10.4412,12.14036 -0.75661,2.26054 -1.20994,5.78769 -0.9694,7.54257 l 0.20251,1.4775 0.80753,-1.69908 c 0.44524,-0.93679 1.55626,-2.37224 2.4764,-3.19952 z"
         id="path4328-6-4-4"
         inkscape:connector-curvature="0" />
      <path
         style="display:inline;opacity:0.98999999;fill:#ffffff"
         d="m 310.91632,226.66226 c -1.27391,-0.56787 -3.16154,-1.14893 -4.19474,-1.29122 -1.75209,-0.2413 -5.26606,0.0418 -6.5275,0.52582 -0.8178,0.31383 -0.68287,-0.0956 0.61338,-1.86149 3.29204,-4.48466 8.1023,-7.05892 13.19029,-7.05892 2.80535,0 4.2184,0.68331 5.3278,2.57635 1.07606,1.83616 0.98185,4.15755 -0.24117,5.94242 -1.66511,2.43007 -4.44404,2.82712 -8.16806,1.16704 z"
         id="path4326-3-7-4"
         inkscape:connector-curvature="0" />
      <path
         style="display:inline;opacity:0.98999999;fill:#ff9800;fill-opacity:0.97254902"
         d="m 317.55848,297.77475 c 2.08786,-0.55581 5.63236,-2.18072 6.71867,-3.08007 0.76712,-0.63509 0.76401,-0.63608 -2.01347,-0.64273 -2.51776,-0.006 -2.98247,-0.11484 -4.89639,-1.14657 -3.52696,-1.90128 -5.19373,-4.60449 -5.7157,-9.26988 -0.16558,-1.48002 -0.56431,-3.21352 -0.88607,-3.85223 -1.83403,-3.64066 -6.00365,-5.7962 -9.71971,-5.02475 -2.55036,0.52945 -4.81141,2.12111 -6.11436,4.30418 -2.50262,4.19311 -1.56237,8.28167 3.00084,13.04873 2.76681,2.89041 6.34341,4.90556 10.47551,5.90218 1.50319,0.36256 7.47725,0.20661 9.15068,-0.23886 z"
         id="path4340-8-1-3-2"
         inkscape:connector-curvature="0" />
      <path
         style="display:inline;opacity:0.98999999;fill:#ffffff"
         d="m 309.76204,294.52414 c -4.43127,-0.64554 -9.6666,-4.23448 -11.74352,-8.05046 -0.76896,-1.41284 -0.90349,-2.00258 -0.7711,-3.38034 0.37665,-3.91999 4.20206,-6.04754 7.76897,-4.32081 2.10441,1.01873 2.91401,2.45803 3.2484,5.77493 0.32489,3.22281 1.63437,6.26084 3.63332,8.42945 1.85196,2.00913 1.71511,2.10825 -2.13607,1.54723 z"
         id="path4338-5-1-6-7"
         inkscape:connector-curvature="0" />
      <path
         style="display:inline;opacity:0.98999999;fill:#673ab7;fill-opacity:0.99215686"
         d="m 326.19348,291.74738 c 3.82109,-1.8095 6.38874,-6.59774 6.78358,-12.65027 0.48202,-7.38903 -3.21209,-14.58589 -9.60913,-18.7205 -2.42135,-1.56499 -3.62028,-1.8716 -2.45081,-0.62676 2.29428,2.44216 2.95792,7.44306 1.4446,10.88596 -0.73812,1.67927 -1.56292,2.5543 -5.94603,6.30828 -3.48765,2.98703 -4.01984,7.983 -1.27267,11.94715 2.32332,3.35257 7.29088,4.6365 11.05046,2.85614 z"
         id="path4334-1-9-2-0"
         inkscape:connector-curvature="0" />
      <path
         style="display:inline;opacity:0.98999999;fill:#ffffff"
         d="m 319.29782,288.00617 c -3.05291,-2.25236 -3.1129,-6.48669 -0.12403,-8.75496 4.05318,-3.07601 6.47811,-6.22692 7.07007,-9.18673 0.31746,-1.5873 0.66856,-1.49393 1.56456,0.41604 1.22762,2.61689 1.68376,5.15852 1.49891,8.35218 -0.26109,4.51093 -1.98033,8.32753 -4.28906,9.52142 -1.59324,0.8239 -4.36022,0.65559 -5.72045,-0.34795 z"
         id="path4332-8-9-82-5"
         inkscape:connector-curvature="0" />
      <path
         style="display:inline;opacity:0.98999999;fill:#f44336;fill-opacity:0.99215686"
         d="m 295.51703,275.63942 c 3.26991,-2.93993 7.58763,-3.50835 12.05183,-1.5866 4.41845,1.90206 7.64228,1.6941 10.52084,-0.67865 5.08863,-4.19447 4.40712,-11.5645 -1.38315,-14.95783 -2.92343,-1.71324 -8.86718,-1.28255 -13.26535,0.96124 -4.85585,2.47727 -8.70485,6.95264 -10.44121,12.14037 -0.75661,2.26053 -1.20993,5.78769 -0.9694,7.54257 l 0.20251,1.4775 0.80754,-1.69908 c 0.44524,-0.93679 1.55626,-2.37224 2.47639,-3.19952 z"
         id="path4328-6-1-7-6"
         inkscape:connector-curvature="0" />
      <path
         style="display:inline;opacity:0.98999999;fill:#ffffff"
         d="m 308.77624,270.6899 c -1.27391,-0.56787 -3.16154,-1.14893 -4.19473,-1.29122 -1.75209,-0.2413 -5.26607,0.0418 -6.52751,0.52583 -0.81779,0.31382 -0.68287,-0.0956 0.61338,-1.8615 3.29205,-4.48466 8.10231,-7.05892 13.1903,-7.05892 2.80534,0 4.21839,0.68331 5.32779,2.57636 1.07606,1.83616 0.98185,4.15754 -0.24116,5.94241 -1.66511,2.43008 -4.44405,2.82712 -8.16807,1.16704 z"
         id="path4326-3-8-3-0"
         inkscape:connector-curvature="0" />
      <path
         style="display:inline;opacity:0.98999999;fill:#ff5722;fill-opacity:0.99215686"
         d="m 192.19677,135.68188 c 2.08786,-0.55581 5.63236,-2.18072 6.71867,-3.08007 0.76712,-0.63509 0.76401,-0.63608 -2.01347,-0.64273 -2.51776,-0.006 -2.98247,-0.11484 -4.89639,-1.14658 -3.52696,-1.90127 -5.19373,-4.60448 -5.7157,-9.26987 -0.16558,-1.48002 -0.56431,-3.21352 -0.88607,-3.85223 -1.83403,-3.64066 -6.00364,-5.79621 -9.71971,-5.02476 -2.55036,0.52946 -4.81141,2.12112 -6.11436,4.30419 -2.50262,4.19311 -1.56237,8.28166 3.00084,13.04873 2.76681,2.89041 6.34342,4.90556 10.47551,5.90218 1.50319,0.36255 7.47725,0.20661 9.15068,-0.23886 z"
         id="path4340-6-9"
         inkscape:connector-curvature="0" />
      <path
         style="display:inline;opacity:0.98999999;fill:#ffffff"
         d="m 184.40033,132.43126 c -4.43127,-0.64553 -9.66659,-4.23447 -11.74351,-8.05045 -0.76897,-1.41285 -0.9035,-2.00259 -0.77111,-3.38034 0.37666,-3.91999 4.20206,-6.04754 7.76898,-4.32081 2.1044,1.01873 2.914,2.45802 3.24839,5.77493 0.32489,3.2228 1.63437,6.26084 3.63332,8.42945 1.85196,2.00913 1.71511,2.10825 -2.13607,1.54722 z"
         id="path4338-4-8"
         inkscape:connector-curvature="0" />
      <path
         style="display:inline;opacity:0.98999999;fill:#673ab7;fill-opacity:0.99215686"
         d="m 200.83177,129.65451 c 3.82109,-1.8095 6.38874,-6.59775 6.78358,-12.65027 0.48203,-7.38903 -3.21209,-14.58589 -9.60913,-18.720502 -2.42135,-1.56499 -3.62028,-1.87159 -2.45081,-0.62675 2.29428,2.442152 2.95792,7.443052 1.4446,10.885952 -0.73812,1.67927 -1.56291,2.55431 -5.94603,6.30827 -3.48764,2.98704 -4.01984,7.983 -1.27267,11.94716 2.32333,3.35257 7.29088,4.6365 11.05046,2.85614 z"
         id="path4334-3-3"
         inkscape:connector-curvature="0" />
      <path
         style="display:inline;opacity:0.98999999;fill:#ffffff"
         d="m 193.93611,125.91329 c -3.05291,-2.25236 -3.1129,-6.48668 -0.12403,-8.75496 4.05319,-3.07601 6.47811,-6.22691 7.07007,-9.18672 0.31747,-1.58729 0.66856,-1.49393 1.56457,0.41604 1.22762,2.61689 1.68375,5.15852 1.4989,8.35218 -0.26109,4.51093 -1.98033,8.32753 -4.28906,9.52142 -1.59324,0.8239 -4.36022,0.65559 -5.72045,-0.34796 z"
         id="path4332-9-9"
         inkscape:connector-curvature="0" />
      <path
         style="display:inline;opacity:0.98999999;fill:#4caf50;fill-opacity:0.99215686"
         d="m 170.15532,113.54654 c 3.26991,-2.93992 7.58763,-3.50834 12.05183,-1.58659 4.41845,1.90206 7.64228,1.6941 10.52085,-0.67865 5.08862,-4.19447 4.40711,-11.564502 -1.38316,-14.957832 -2.92343,-1.71324 -8.86718,-1.28254 -13.26535,0.96124 -4.85585,2.47727 -8.70485,6.952642 -10.4412,12.140372 -0.75662,2.26053 -1.20994,5.78769 -0.96941,7.54257 l 0.20251,1.47749 0.80754,-1.69907 c 0.44524,-0.9368 1.55626,-2.37225 2.47639,-3.19953 z"
         id="path4328-3-1"
         inkscape:connector-curvature="0" />
      <path
         style="display:inline;opacity:0.98999999;fill:#ffffff"
         d="m 183.41453,108.59703 c -1.27391,-0.56787 -3.16154,-1.14892 -4.19473,-1.29122 -1.75209,-0.2413 -5.26607,0.0418 -6.52751,0.52583 -0.81779,0.31382 -0.68287,-0.0956 0.61338,-1.8615 3.29205,-4.48466 8.10231,-7.058922 13.1903,-7.058922 2.80534,0 4.21839,0.68331 5.32779,2.576362 1.07606,1.83616 0.98186,4.15754 -0.24116,5.94241 -1.66511,2.43008 -4.44405,2.82712 -8.16807,1.16704 z"
         id="path4326-2-9"
         inkscape:connector-curvature="0" />
    </g>
    <g
       inkscape:groupmode="layer"
       id="layer3"
       inkscape:label="triskell-02"
       style="display:none">
      <path
         style="fill:#000000"
         d="m 222.51378,214.66896 c 6.67525,-2.18472 10.81151,-4.7376 16.01956,-9.88717 3.91321,-3.86929 5.41119,-5.88097 7.32293,-9.8342 3.32713,-6.8801 4.50284,-12.55978 4.10278,-19.82001 -0.5571,-10.11012 -4.10346,-17.93725 -11.54527,-25.48141 -16.75606,-16.98653 -45.62618,-14.15689 -59.19625,5.80199 -4.61217,6.78358 -6.5898,13.40724 -6.5661,21.99175 0.0182,6.61378 1.04295,11.14479 3.8813,17.16238 5.28387,11.20236 16.7079,19.54211 29.48105,21.52168 3.78994,0.58737 12.64573,-0.19356 16.5,-1.45501 z"
         id="path4314"
         inkscape:connector-curvature="0" />
      <path
         style="fill:#ffffff"
         d="m 203.91378,213.20945 c -6.6398,-1.49447 -13.51501,-5.30656 -18.31026,-10.15244 -4.9418,-4.99399 -7.4536,-9.35535 -7.90054,-13.71811 -0.65157,-6.36026 2.57607,-12.52644 8.2108,-15.68613 2.88081,-1.61542 3.87163,-1.84872 7.8,-1.83657 5.30917,0.0164 8.17202,1.26005 11.57729,5.02927 2.90395,3.21433 3.85266,5.65809 4.50655,11.60834 1.19018,10.83031 7.78058,17.5258 18.10481,18.39349 l 4.51135,0.37915 -3.3,1.94417 c -7.04893,4.1528 -17.355,5.80457 -25.2,4.03883 z"
         id="path4312"
         inkscape:connector-curvature="0" />
      <path
         style="fill:#000000"
         d="m 212.91378,207.89995 c 0,-0.11129 -1.08395,-1.34181 -2.40877,-2.73449 -2.46626,-2.59258 -5.48121,-7.96823 -6.24831,-11.1407 -0.23639,-0.97764 -0.64833,-3.72612 -0.91541,-6.10774 -0.58385,-5.20615 -1.94039,-7.38142 -5.75473,-9.22791 -5.19719,-2.51592 -11.03672,0.0365 -13.23147,5.78334 -0.90623,2.37294 -0.95165,3.14785 -0.32241,5.50053 2.51796,9.41433 14.71389,17.50109 27.2311,18.05614 0.9075,0.0403 1.65,-0.0179 1.65,-0.12917 z"
         id="path4310"
         inkscape:connector-curvature="0" />
      <path
         style="fill:#ffffff"
         d="m 225.62432,203.28325 c -3.20947,-0.65921 -6.06532,-2.38768 -8.46987,-5.12631 -6.55132,-7.46154 -4.86439,-18.84917 3.59655,-24.27854 9.75523,-6.25991 12.79775,-17.33401 7.37026,-26.82611 -0.80194,-1.4025 -1.20745,-2.55 -0.90115,-2.55 1.2835,0 8.03007,5.08702 10.99478,8.29022 9.94369,10.74364 12.34961,27.37114 5.85967,40.4968 -1.00972,2.04214 -2.69647,4.6245 -3.74832,5.73858 -3.44583,3.64969 -9.34192,5.35627 -14.70192,4.25536 z"
         id="path4308"
         inkscape:connector-curvature="0" />
      <path
         style="fill:#000000"
         d="m 233.78768,196.14329 c 1.22436,-0.63745 2.82771,-2.06306 3.56301,-3.16803 3.42407,-5.14547 5.1917,-15.07298 3.82144,-21.46227 -0.73549,-3.42945 -3.54268,-10.2107 -4.22686,-10.2107 -0.22255,0 -0.74924,1.3446 -1.17043,2.98801 -1.43154,5.58555 -5.14214,10.32917 -11.55432,14.771 -3.52356,2.44083 -4.92573,5.39216 -4.57443,9.62838 0.28657,3.4556 1.55785,5.37242 4.96769,7.49019 2.33722,1.45159 6.34627,1.4356 9.1739,-0.0366 z"
         id="path4306"
         inkscape:connector-curvature="0" />
      <path
         style="fill:#ffffff"
         d="m 175.1403,176.27835 c -0.0549,-9.36943 3.25918,-17.06482 10.46671,-24.30385 5.49234,-5.51635 9.91624,-8.10991 16.86438,-9.88694 6.41754,-1.64134 11.73303,-1.55682 15.54239,0.24711 11.57205,5.48 12.63538,21.40932 1.87295,28.05783 -2.49969,1.54418 -3.88609,1.95152 -7.43176,2.18352 -4.07326,0.26652 -4.68251,0.13623 -9.3,-1.98889 -4.27884,-1.96926 -5.5444,-2.27889 -9.44119,-2.30982 -3.62204,-0.0288 -5.14384,0.26447 -7.8,1.50293 -3.79239,1.76825 -7.80165,5.44093 -9.54425,8.74301 l -1.20272,2.27904 -0.0265,-4.52394 z"
         id="path4304"
         inkscape:connector-curvature="0" />
      <path
         style="fill:#000000"
         d="m 217.28606,164.74038 c 2.89532,-2.20836 4.23225,-5.29843 3.87972,-8.96723 -0.72295,-7.52392 -7.79107,-10.58644 -17.93869,-7.77259 -5.02378,1.39306 -8.9288,3.676 -13.1358,7.67943 -3.79988,3.616 -6.99701,8.55748 -5.02245,7.7627 0.62971,-0.25348 2.83244,-0.7586 4.89494,-1.1225 4.86781,-0.85886 9.94279,-0.0112 15.15,2.53039 4.89771,2.39055 8.94163,2.35394 12.17228,-0.1102 z"
         id="path4163"
         inkscape:connector-curvature="0" />
    </g>
    <g
       inkscape:groupmode="layer"
       id="layer2"
       inkscape:label="triskell-01"
       style="display:none;opacity:1">
      <path
         style="fill:#000000"
         d="m 129.07484,215.06245 c 14.03373,-4.4608 24.1202,-15.20473 27.17816,-28.94968 1.30591,-5.86986 0.91884,-15.73739 -0.80902,-20.62397 -5.84017,-16.51659 -20.20672,-26.98651 -37.0302,-26.98651 -16.83663,0 -32.114683,11.2488 -37.258107,27.4321 -1.500916,4.7225 -1.780758,14.78619 -0.563323,20.25832 1.929652,8.67342 7.410533,17.22194 14.287836,22.28473 7.897934,5.81412 15.516864,8.1779 25.033594,7.76667 3.465,-0.14973 7.58748,-0.68147 9.16106,-1.18166 z"
         id="path4322"
         inkscape:connector-curvature="0" />
      <path
         style="fill:#ffffff"
         d="m 109.71378,212.91016 c -6.93217,-1.8598 -11.752007,-4.56816 -16.564404,-9.30787 -7.497872,-7.38464 -9.793611,-13.40947 -7.76657,-20.38225 1.712283,-5.89004 7.335869,-10.62053 13.65537,-11.48672 4.023034,-0.55141 8.991884,1.09838 12.191894,4.04804 3.55877,3.28036 5.04239,6.60492 5.67236,12.7109 1.14002,11.04965 7.70334,17.63594 18.31135,18.37542 l 4.8,0.33461 -3.3,1.89999 c -8.09365,4.65996 -18.404,6.11405 -27,3.80788 z"
         id="path4320"
         inkscape:connector-curvature="0" />
      <path
         style="fill:#ffffff"
         d="m 132.21378,203.38024 c -4.37097,-1.14028 -8.0216,-3.99768 -10.25323,-8.02536 -1.50834,-2.72227 -1.74193,-3.76683 -1.71134,-7.65259 0.0264,-3.35674 0.35657,-5.11659 1.29943,-6.92697 1.20845,-2.32032 6.19589,-7.47303 7.23333,-7.47303 1.18105,0 5.83411,-5.37859 7.2669,-8.4 1.2904,-2.72113 1.56347,-4.15414 1.55671,-8.16921 -0.007,-4.28174 -0.23723,-5.31328 -1.90653,-8.54999 -1.04409,-2.02444 -1.68976,-3.6808 -1.43482,-3.6808 0.25492,0 2.05786,1.03366 4.00653,2.29701 5.20993,3.37771 10.03482,8.91878 12.78772,14.68584 2.79176,5.84846 3.6553,9.63243 3.6553,16.01715 0,6.36978 -0.86309,10.16757 -3.62659,15.95784 -2.33541,4.8933 -4.02802,6.70761 -8.3207,8.91895 -2.30311,1.18643 -7.83188,1.71096 -10.55271,1.00116 z"
         id="path4318"
         inkscape:connector-curvature="0" />
      <path
         style="fill:#ffffff"
         d="m 82.113782,176.15073 c 0,-11.31461 7.150979,-23.76517 17.119481,-29.80671 6.169147,-3.73889 10.643197,-5.0262 17.680517,-5.08716 5.38275,-0.0466 6.65405,0.13497 8.73174,1.24729 13.18693,7.05979 11.28341,25.76242 -3.04602,29.9281 -3.94387,1.14652 -8.55972,0.49087 -12.44799,-1.76813 -8.89433,-5.16743 -20.387825,-1.93579 -26.338497,7.40564 l -1.699231,2.66746 z"
         id="path4316"
         inkscape:connector-curvature="0" />
    </g>
  </g>
</svg>
