<?xml version="1.0" encoding="UTF-8" standalone="no"?>
<!-- Created with Inkscape (http://www.inkscape.org/) -->

<svg
   xmlns:dc="http://purl.org/dc/elements/1.1/"
   xmlns:cc="http://creativecommons.org/ns#"
   xmlns:rdf="http://www.w3.org/1999/02/22-rdf-syntax-ns#"
   xmlns:svg="http://www.w3.org/2000/svg"
   xmlns="http://www.w3.org/2000/svg"
   xmlns:sodipodi="http://sodipodi.sourceforge.net/DTD/sodipodi-0.dtd"
   xmlns:inkscape="http://www.inkscape.org/namespaces/inkscape"
   width="500"
   height="500"
   viewBox="0 0 500 500"
   id="svg4345"
   version="1.1"
   inkscape:version="0.91 r13725"
   sodipodi:docname="ink-apropos-logo.svg"
   inkscape:export-filename="C:\Projets\orthophonie\src\assets\images\logo.png"
   inkscape:export-xdpi="321.42999"
   inkscape:export-ydpi="321.42999">
  <defs
     id="defs4347" />
  <sodipodi:namedview
     id="base"
     pagecolor="#ffffff"
     bordercolor="#666666"
     borderopacity="1.0"
     inkscape:pageopacity="0.0"
     inkscape:pageshadow="2"
     inkscape:zoom="1.4142136"
     inkscape:cx="239.25026"
     inkscape:cy="227.73439"
     inkscape:document-units="px"
     inkscape:current-layer="layer1"
     showgrid="true"
     units="px"
     inkscape:showpageshadow="false"
     inkscape:window-width="1920"
     inkscape:window-height="1018"
     inkscape:window-x="-8"
     inkscape:window-y="-8"
     inkscape:window-maximized="1">
    <inkscape:grid
       type="xygrid"
       id="grid4212" />
  </sodipodi:namedview>
  <metadata
     id="metadata4350">
    <rdf:RDF>
      <cc:Work
         rdf:about="">
        <dc:format>image/svg+xml</dc:format>
        <dc:type
           rdf:resource="http://purl.org/dc/dcmitype/StillImage" />
        <dc:title></dc:title>
      </cc:Work>
    </rdf:RDF>
  </metadata>
  <g
     inkscape:label="Calque 1"
     inkscape:groupmode="layer"
     id="layer1"
     transform="translate(0,-552.3622)">
    <g
       id="g4141"
       transform="translate(-1.5012606e-6,0.00258881)">
      <path
         sodipodi:nodetypes="sccssssssscsssssssscsssss"
         inkscape:connector-curvature="0"
         id="path4334-9-7"
         d="m 351.26256,580.10899 c -5.55144,-1.412 -5.63986,1.427 1.4755,8.946 14.36633,16.757 13.20002,15.375 18.67613,21.395 6.58307,8.058 15.11138,20.846 23.86026,34.946 17.49778,28.2 35.8752,61.672 41.32673,73.201 7.46919,15.796 12.59193,31.368 15.56566,47.80799 2.97381,16.44 3.7965,33.742 2.67184,53.02 -0.7943,13.615 -2.69593,26.714 -5.543,38.917 -2.84709,12.203 -6.63616,23.519 -11.20566,33.583 -4.56956,10.064 -9.92309,18.883 -15.88472,26.08 -5.96163,7.198 -12.53,12.778 -19.55347,16.382 -4.84684,2.487 -10.59388,4.221 -16.73539,5.24 -6.14158,1.015 -12.68639,1.309 -19.14137,0.93 -6.45498,-0.38 -12.82259,-1.47 -18.60972,-3.203 -5.78706,-1.738 -10.98895,-4.142 -15.12695,-7.172 -9.28737,-6.797 -19.26512,-16.213 -28.43297,-26.953 -9.16778,-10.739 -17.52969,-22.805 -23.59435,-34.867 -3.03234,-6.031 -5.49421,-12.059 -7.19131,-17.93 -1.69718,-5.869 -2.62972,-11.581 -2.61868,-16.963 0.002,-1.132 0.5513,-2.041 0.6381,-3.137 -16.69107,33.965 -13.81111,75.546 10.6341,110.543 28.27146,40.474 88.71969,55.976 134.46817,34.482 46.49698,-21.845 77.74258,-79.654 82.54721,-152.725 5.86553,-89.20599 -39.07944,-176.10299 -116.92193,-226.01899 -14.73209,-9.447 -25.75263,-15.091 -31.30413,-16.5 z"
         style="font-style:normal;font-variant:normal;font-weight:300;font-stretch:normal;font-size:medium;line-height:125%;font-family:'Segoe UI';-inkscape-font-specification:'Segoe UI, Light';text-align:start;letter-spacing:0px;word-spacing:0px;writing-mode:lr-tb;text-anchor:start;fill:#5a7eaa;fill-opacity:1;stroke:none;stroke-width:1px;stroke-linecap:butt;stroke-linejoin:miter;stroke-opacity:1" />
      <path
         sodipodi:nodetypes="sssccsssssssssscssssscsss"
         inkscape:connector-curvature="0"
         id="path4291-85-1"
         d="m 234.51346,552.43999 c -30.00676,0.9 -62.97311,9.488 -95.95946,25.684 -80.540608,39.547 -133.6584414,121.741 -138.16352923,213.80599 -1.70517637,34.847 2.37511743,49.276 8.33446973,29.494 4.3504555,-10.518 7.6315725,-21.172 9.2782635,-26.796 3.718632,-9.704 10.571161,-23.436 18.463454,-38.02899 15.784558,-29.184 35.723644,-61.769 43.028217,-72.234 10.008146,-14.337 21.000945,-26.544 33.816435,-37.328 12.8155,-10.784 27.46215,-20.15 44.79615,-28.819 12.24183,-6.123 24.58098,-11.028 36.62117,-14.675 12.04019,-3.647 23.77295,-6.04 34.81338,-7.132 11.04044,-1.089 21.38363,-0.88 30.6262,0.66 9.24259,1.542 17.38646,4.415 24.03309,8.668 4.58679,2.935 8.97648,7.018 12.93372,11.803 3.95725,4.785 7.47967,10.278 10.36826,16.037 2.88853,5.76 5.13255,11.781 6.51338,17.638 1.38074,5.859 1.90862,11.552 1.3425,16.634 -1.27058,11.406 -4.49204,24.716 -9.25163,37.99 -4.75964,13.273 -11.06864,26.504 -18.52994,37.764 -3.73062,5.63 -7.74482,10.765 -12.00323,15.164 -4.25841,4.39799 -8.7511,8.06299 -13.43885,10.74399 -0.9782,0.56 -2.04964,0.54 -3.044,1.014 37.89152,-2.594 72.61865,-25.86999 90.84178,-64.43899 21.07668,-44.611 4.32769,-104.477 -37.24595,-133.169 -21.12691,-14.581 -48.16714,-21.38 -78.17389,-20.484 z"
         style="font-style:normal;font-variant:normal;font-weight:300;font-stretch:normal;font-size:medium;line-height:125%;font-family:'Segoe UI';-inkscape-font-specification:'Segoe UI, Light';text-align:start;letter-spacing:0px;word-spacing:0px;writing-mode:lr-tb;text-anchor:start;fill:#e99235;fill-opacity:0.93333333;stroke:none;stroke-width:1px;stroke-linecap:butt;stroke-linejoin:miter;stroke-opacity:1" />
      <path
         sodipodi:nodetypes="ssssccsssssssssssssssssscs"
         inkscape:connector-curvature="0"
         id="path4301-5-3"
         d="m 111.95546,765.33298 c -49.348142,4.135 -93.060682,48.5 -97.235535,98.685 -4.243117,51.007 30.431409,106.849 91.599465,147.52502 74.67508,49.66 172.73794,54.349 255.08547,12.2 31.16938,-15.953 41.68424,-26.67902 21.49415,-21.925 -19.71803,3.693 -12.32106,2.318 -21.48088,3.956 -7.95322,1.838 -19.46975,3.554 -34.08226,4.763 -14.61252,1.206 -31.71766,1.934 -48.99663,1.84 -17.27898,-0.15 -34.73223,-1 -50.07332,-3.043 -17.38353,-2.317 -33.48966,-5.687 -49.30235,-11.12902 -7.90633,-2.721 -15.73844,-5.959 -23.62098,-9.844 -7.88254,-3.886 -15.82206,-8.418 -23.92672,-13.722 -11.44757,-7.493 -21.88501,-15.686 -31.07816,-24.242 -9.193145,-8.555 -17.136776,-17.479 -23.607702,-26.451 -6.470926,-8.971 -11.460573,-17.99 -14.741514,-26.728 -3.280941,-8.738 -4.856455,-17.193 -4.479617,-25.048 0.26,-5.423 1.617397,-11.24 3.801691,-17.045 2.184294,-5.803 5.193455,-11.592 8.759837,-16.963 3.566382,-5.369 7.68997,-10.316 12.096293,-14.435 4.406323,-4.121 9.093632,-7.409 13.797734,-9.462 10.557868,-4.607 23.743848,-8.501 37.671308,-11.035 13.92744,-2.534 28.59836,-3.713 42.12432,-2.912 6.76297,0.4 13.23901,1.309 19.19456,2.779 5.95551,1.473 11.39407,3.52 16.07077,6.22 0.9822,0.57 1.50599,1.504 2.41925,2.13 -21.20135,-31.379 -58.81461,-49.691 -101.48918,-46.114 z"
         style="font-style:normal;font-variant:normal;font-weight:300;font-stretch:normal;font-size:medium;line-height:125%;font-family:'Segoe UI';-inkscape-font-specification:'Segoe UI, Light';text-align:start;letter-spacing:0px;word-spacing:0px;writing-mode:lr-tb;text-anchor:start;fill:#6baa50;fill-opacity:0.93333333;stroke:none;stroke-width:1px;stroke-linecap:butt;stroke-linejoin:miter;stroke-opacity:1" />
    </g>
  </g>
</svg>
