<?xml version="1.0" encoding="UTF-8" standalone="no"?>
<!-- Created with Inkscape (http://www.inkscape.org/) -->

<svg
   xmlns:dc="http://purl.org/dc/elements/1.1/"
   xmlns:cc="http://creativecommons.org/ns#"
   xmlns:rdf="http://www.w3.org/1999/02/22-rdf-syntax-ns#"
   xmlns:svg="http://www.w3.org/2000/svg"
   xmlns="http://www.w3.org/2000/svg"
   xmlns:sodipodi="http://sodipodi.sourceforge.net/DTD/sodipodi-0.dtd"
   xmlns:inkscape="http://www.inkscape.org/namespaces/inkscape"
   width="50"
   height="50"
   viewBox="0 0 50 50"
   id="svg4345"
   version="1.1"
   inkscape:version="0.91 r13725"
   sodipodi:docname="ink-apropos-logo.svg"
   inkscape:export-filename="C:\Projets\orthophonie\src\assets\images\logo.png"
   inkscape:export-xdpi="321.42999"
   inkscape:export-ydpi="321.42999">
  <defs
     id="defs4347" />
  <sodipodi:namedview
     id="base"
     pagecolor="#ffffff"
     bordercolor="#666666"
     borderopacity="1.0"
     inkscape:pageopacity="0.0"
     inkscape:pageshadow="2"
     inkscape:zoom="11.313709"
     inkscape:cx="15.162826"
     inkscape:cy="32.309698"
     inkscape:document-units="px"
     inkscape:current-layer="layer1"
     showgrid="true"
     units="px"
     inkscape:showpageshadow="false">
    <inkscape:grid
       type="xygrid"
       id="grid4212" />
  </sodipodi:namedview>
  <metadata
     id="metadata4350">
    <rdf:RDF>
      <cc:Work
         rdf:about="">
        <dc:format>image/svg+xml</dc:format>
        <dc:type
           rdf:resource="http://purl.org/dc/dcmitype/StillImage" />
        <dc:title></dc:title>
      </cc:Work>
    </rdf:RDF>
  </metadata>
  <g
     inkscape:label="Calque 1"
     inkscape:groupmode="layer"
     id="layer1"
     transform="translate(0,-1002.3622)">
    <g
       id="g4181"
       transform="matrix(1.2156961,0,0,1.2156961,-9.0394924,-212.25886)">
      <path
         sodipodi:nodetypes="sccssssssscsssssssscsssss"
         inkscape:connector-curvature="0"
         id="path4334-9-7"
         d="m 34.885856,1004.567 c -0.377498,-0.096 -0.38351,0.097 0.100334,0.6083 0.976911,1.1395 0.897602,1.0455 1.269977,1.4549 0.447649,0.5479 1.027574,1.4175 1.622498,2.3763 1.189849,1.9176 2.439514,4.1937 2.810218,4.9777 0.507905,1.0741 0.856251,2.133 1.058465,3.2509 0.202219,1.1179 0.258162,2.2945 0.181685,3.6054 -0.05401,0.9258 -0.183323,1.8165 -0.376924,2.6463 -0.193602,0.8298 -0.451259,1.5993 -0.761985,2.2837 -0.31073,0.6843 -0.67477,1.284 -1.080161,1.7734 -0.405391,0.4895 -0.85204,0.8689 -1.329636,1.114 -0.329585,0.1691 -0.720384,0.287 -1.138007,0.3563 -0.417627,0.069 -0.862674,0.089 -1.301613,0.063 -0.438939,-0.026 -0.871936,-0.1 -1.265461,-0.2178 -0.39352,-0.1182 -0.747249,-0.2817 -1.028633,-0.4877 -0.631541,-0.4622 -1.310028,-1.1025 -1.933442,-1.8328 -0.623409,-0.7303 -1.192019,-1.5508 -1.604416,-2.371 -0.206199,-0.4101 -0.373606,-0.82 -0.489009,-1.2192 -0.115408,-0.3991 -0.178821,-0.7875 -0.17807,-1.1535 1.57e-4,-0.077 0.03749,-0.1388 0.04339,-0.2133 -1.134993,2.3096 -0.939156,5.1371 0.723119,7.5169 1.922459,2.7522 6.032939,3.8064 9.143836,2.3448 3.161795,-1.4855 5.286496,-5.4165 5.613211,-10.3853 0.398856,-6.066 -2.657402,-11.975 -7.950692,-15.3693 -1.001782,-0.6424 -1.751179,-1.0262 -2.128681,-1.122 z"
         style="font-style:normal;font-variant:normal;font-weight:300;font-stretch:normal;font-size:medium;line-height:125%;font-family:'Segoe UI';-inkscape-font-specification:'Segoe UI, Light';text-align:start;letter-spacing:0px;word-spacing:0px;writing-mode:lr-tb;text-anchor:start;fill:#5a7eaa;fill-opacity:1;stroke:none;stroke-width:1px;stroke-linecap:butt;stroke-linejoin:miter;stroke-opacity:1" />
      <path
         sodipodi:nodetypes="sssccsssssssssscssssscsss"
         inkscape:connector-curvature="0"
         id="path4291-85-1"
         d="m 26.946917,1002.6855 c -2.04046,0.061 -4.282172,0.6452 -6.525244,1.7465 -5.476762,2.6892 -9.088775,8.2784 -9.395121,14.5388 -0.115952,2.3696 0.161508,3.3508 0.566744,2.0056 0.295831,-0.7152 0.518947,-1.4397 0.630922,-1.8221 0.252867,-0.6599 0.718839,-1.5937 1.255515,-2.586 1.07335,-1.9845 2.429208,-4.2003 2.925919,-4.9119 0.680554,-0.9749 1.428064,-1.805 2.299518,-2.5383 0.871454,-0.7333 1.867426,-1.3702 3.046138,-1.9597 0.832445,-0.4164 1.671507,-0.7499 2.49024,-0.9979 0.818733,-0.248 1.616561,-0.4107 2.36731,-0.485 0.75075,-0.074 1.454087,-0.06 2.082582,0.045 0.628496,0.1048 1.182279,0.3002 1.63425,0.5894 0.311902,0.1996 0.610401,0.4772 0.879493,0.8026 0.269093,0.3254 0.508618,0.6989 0.705042,1.0905 0.19642,0.3917 0.349013,0.8011 0.44291,1.1994 0.09389,0.3984 0.129786,0.7855 0.09129,1.1311 -0.0864,0.7756 -0.305459,1.6807 -0.629111,2.5833 -0.323656,0.9026 -0.752668,1.8023 -1.260036,2.568 -0.253682,0.3828 -0.526648,0.732 -0.81622,1.0311 -0.289572,0.2991 -0.595075,0.5483 -0.913842,0.7306 -0.06652,0.038 -0.139375,0.037 -0.206992,0.069 2.576624,-0.1764 4.938069,-1.7592 6.177242,-4.3819 1.433214,-3.0335 0.294283,-7.1044 -2.532725,-9.0555 -1.43663,-0.9915 -3.275366,-1.4538 -5.315825,-1.3929 z"
         style="font-style:normal;font-variant:normal;font-weight:300;font-stretch:normal;font-size:medium;line-height:125%;font-family:'Segoe UI';-inkscape-font-specification:'Segoe UI, Light';text-align:start;letter-spacing:0px;word-spacing:0px;writing-mode:lr-tb;text-anchor:start;fill:#e99235;fill-opacity:0.93333333;stroke:none;stroke-width:1px;stroke-linecap:butt;stroke-linejoin:miter;stroke-opacity:1" />
      <path
         sodipodi:nodetypes="ssssccsssssssssssssssssscs"
         inkscape:connector-curvature="0"
         id="path4301-5-3"
         d="m 18.612972,1017.1622 c -3.355674,0.2812 -6.328127,3.298 -6.612017,6.7106 -0.288532,3.4685 2.069336,7.2657 6.228764,10.0317 5.077906,3.3769 11.746181,3.6957 17.345814,0.8296 2.119518,-1.0848 2.834528,-1.8142 1.461602,-1.4909 -1.340826,0.2511 -0.837832,0.1576 -1.4607,0.269 -0.540819,0.125 -1.323943,0.2417 -2.317594,0.3239 -0.993651,0.082 -2.156801,0.1315 -3.331771,0.1251 -1.174971,-0.01 -2.361792,-0.068 -3.404986,-0.2069 -1.18208,-0.1576 -2.277297,-0.3867 -3.35256,-0.7568 -0.537631,-0.185 -1.070214,-0.4052 -1.606227,-0.6694 -0.536013,-0.2642 -1.0759,-0.5724 -1.627017,-0.9331 -0.778435,-0.5095 -1.488181,-1.0666 -2.113315,-1.6484 -0.625134,-0.5818 -1.165301,-1.1886 -1.605324,-1.7987 -0.440023,-0.61 -0.779319,-1.2233 -1.002423,-1.8175 -0.223104,-0.5942 -0.330239,-1.1691 -0.304614,-1.7033 0.01768,-0.3687 0.109983,-0.7643 0.258515,-1.159 0.148532,-0.3946 0.353155,-0.7883 0.595669,-1.1535 0.242514,-0.3651 0.522918,-0.7015 0.822548,-0.9816 0.29963,-0.2802 0.618367,-0.5038 0.938246,-0.6434 0.717935,-0.3133 1.614582,-0.5781 2.561649,-0.7504 0.947066,-0.1723 1.944689,-0.2525 2.864454,-0.198 0.459882,0.027 0.900253,0.089 1.30523,0.189 0.404975,0.1001 0.774797,0.2393 1.092813,0.4229 0.06679,0.039 0.102407,0.1023 0.164509,0.1449 -1.441692,-2.1338 -3.999394,-3.379 -6.901265,-3.1358 z"
         style="font-style:normal;font-variant:normal;font-weight:300;font-stretch:normal;font-size:medium;line-height:125%;font-family:'Segoe UI';-inkscape-font-specification:'Segoe UI, Light';text-align:start;letter-spacing:0px;word-spacing:0px;writing-mode:lr-tb;text-anchor:start;fill:#6baa50;fill-opacity:0.93333333;stroke:none;stroke-width:1px;stroke-linecap:butt;stroke-linejoin:miter;stroke-opacity:1" />
    </g>
  </g>
</svg>
