<?xml version="1.0" encoding="UTF-8" standalone="no"?>
<svg
   xmlns:dc="http://purl.org/dc/elements/1.1/"
   xmlns:cc="http://creativecommons.org/ns#"
   xmlns:rdf="http://www.w3.org/1999/02/22-rdf-syntax-ns#"
   xmlns:svg="http://www.w3.org/2000/svg"
   xmlns="http://www.w3.org/2000/svg"
   xmlns:sodipodi="http://sodipodi.sourceforge.net/DTD/sodipodi-0.dtd"
   xmlns:inkscape="http://www.inkscape.org/namespaces/inkscape"
   width="100"
   height="100"
   class="axeRecherche-image"
   id="svg2"
   version="1.1"
   inkscape:version="0.91 r13725"
   sodipodi:docname="ink-logo-recherche.svg">
  <metadata
     id="metadata18">
    <rdf:RDF>
      <cc:Work
         rdf:about="">
        <dc:format>image/svg+xml</dc:format>
        <dc:type
           rdf:resource="http://purl.org/dc/dcmitype/StillImage" />
      </cc:Work>
    </rdf:RDF>
  </metadata>
  <defs
     id="defs16" />
  <sodipodi:namedview
     pagecolor="#ffffff"
     bordercolor="#666666"
     borderopacity="1"
     objecttolerance="10"
     gridtolerance="10"
     guidetolerance="10"
     inkscape:pageopacity="0"
     inkscape:pageshadow="2"
     inkscape:window-width="640"
     inkscape:window-height="480"
     id="namedview14"
     showgrid="false"
     inkscape:zoom="11.32"
     inkscape:cx="40.134164"
     inkscape:cy="46.349705"
     inkscape:current-layer="svg2" />
  <g
     id="g4">
    <title
       id="title6">background</title>
    <rect
       fill="none"
       id="canvas_background"
       height="72.270266"
       width="67.405401"
       y="-1"
       x="-1" />
  </g>
  <path
     inkscape:connector-curvature="0"
     style="fill:#ffff00;fill-opacity:1;stroke:#000000;stroke-width:0.5;stroke-miterlimit:4;stroke-dasharray:none;stroke-opacity:1"
     d="M 45.880001,60.880001 C 46.120003,60.651001 46.25,60.330002 46.25,60 c 0,-0.330002 -0.129997,-0.649998 -0.369999,-0.890999 -0.459999,-0.460999 -1.299999,-0.460999 -1.771,0.011 C 43.880001,59.349999 43.75,59.669998 43.75,60 c 0,0.330002 0.130001,0.647999 0.369999,0.880001 C 44.348999,61.119999 44.669998,61.25 45,61.25 c 0.330002,0 0.648998,-0.130001 0.880001,-0.369999 z M 55,41.25 c 0.330002,0 0.647999,-0.130001 0.880001,-0.369999 C 56.119999,40.650001 56.25,40.330002 56.25,40 c 0,-0.330002 -0.130001,-0.650002 -0.369999,-0.890999 -0.460003,-0.460003 -1.299999,-0.460003 -1.771,0 C 53.880001,39.349998 53.75,39.669998 53.75,40 c 0,0.330002 0.130001,0.648998 0.369999,0.880001 C 54.349999,41.119999 54.669998,41.25 55,41.25 Z m -23.059,27.367996 15.000002,7.5 c 0.178997,0.09 0.369999,0.131996 0.557999,0.131996 0.459,0 0.899998,-0.252998 1.118999,-0.690994 0.308998,-0.617004 0.059,-1.367004 -0.560001,-1.677002 l -15,-7.5 c -0.614998,-0.309998 -1.367998,-0.058 -1.676998,0.559998 -0.309,0.619003 -0.058,1.369003 0.559999,1.676003 z M 64.441002,11.118 c 0.179001,0.09 0.369003,0.132 0.557999,0.132 0.459,0 0.899002,-0.253 1.119003,-0.691 l 1.724998,-3.448 3.773003,3.773 c 0.487,0.488 1.278,0.488 1.767998,0 0.488998,-0.488 0.487999,-1.279 0,-1.768 l -5,-5 C 68.099999,3.832 67.695,3.697 67.300003,3.767 c -0.396004,0.063 -0.737,0.315 -0.917999,0.675 l -2.5,5 c -0.310005,0.617 -0.06001,1.368 0.558998,1.676 z M 70,88.75 l -10.797001,0 C 69.236,84.258003 76.25,74.185997 76.25,62.5 76.25,52.937 71.545998,44.105 63.646,38.733002 63.541,38.004002 63.351002,37.3 63.077,36.64 L 73.617997,15.557999 c 0.192001,-0.387 0.173004,-0.848 -0.056,-1.216 -0.227997,-0.368 -0.628998,-0.593 -1.062996,-0.593 l -10,0 c -0.475002,0 -0.906002,0.268001 -1.118,0.691 l -8.545002,17.09 c -3.779999,0.966999 -6.586998,4.392002 -6.586998,8.469002 0,1.189999 0.239998,2.323997 0.673,3.358997 l -5.541,11.082001 c -0.282001,0.563 -0.100002,1.25 0.424999,1.599998 l 7.5,5 c 0.207001,0.139004 0.449001,0.210003 0.693001,0.210003 0.106998,0 0.215,-0.015 0.320999,-0.042 0.346001,-0.092 0.637001,-0.328003 0.797001,-0.648003 l 6.044998,-12.091 c 0.657001,-0.168999 1.288002,-0.405998 1.877003,-0.715 4.523998,3.549 7.209999,8.999001 7.209999,14.746002 0,10.338997 -8.410999,18.75 -18.75,18.75 l -22.499001,0 c -2.757,0 -5,2.242996 -5,5 0,2.757004 2.243,5 5,5 l 45,0 c 0.689003,0 1.25,-0.559998 1.25,-1.25 0,-0.690002 -0.560997,-1.25 -1.25,-1.25 z m -6.729,-72.5 7.204998,0 -8.962997,17.927998 C 60.068001,32.562001 58.035,31.484999 55.751999,31.287999 L 63.271,16.250001 Z M 55,33.75 c 3.445,0 6.25,2.804001 6.25,6.25 0,2.157001 -1.099998,4.063 -2.765999,5.186001 -0.002,9.99e-4 -0.002,0.002 -0.004,0.002 -0.995998,0.671001 -2.193001,1.063 -3.48,1.063 -3.445,0 -6.25,-2.804001 -6.25,-6.25 0,-3.445999 2.805,-6.250999 6.25,-6.250999 z M 49.515999,58.174999 44.112,54.571998 l 4.375,-8.75 c 1.445,1.616001 3.477001,2.693001 5.760998,2.889999 L 49.516,58.174998 Z M 22.5,86.25 c 0,-1.378998 1.121,-2.5 2.5,-2.5 l 22.5,0 c 11.717999,0 21.25,-9.531998 21.25,-21.25 0,-6.277 -2.823997,-12.243999 -7.618,-16.268002 1.214001,-1.194 2.084,-2.737 2.438,-4.467999 6.408997,4.963001 10.18,12.556 10.18,20.736 0,14.474998 -11.775002,26.25 -26.25,26.25 l -22.5,0 c -1.379,0 -2.5,-1.121002 -2.5,-2.5 z"
     id="svg_1" />
</svg>
