<?xml version="1.0" encoding="UTF-8" standalone="no"?>
<svg
   xmlns:dc="http://purl.org/dc/elements/1.1/"
   xmlns:cc="http://creativecommons.org/ns#"
   xmlns:rdf="http://www.w3.org/1999/02/22-rdf-syntax-ns#"
   xmlns:svg="http://www.w3.org/2000/svg"
   xmlns="http://www.w3.org/2000/svg"
   xmlns:sodipodi="http://sodipodi.sourceforge.net/DTD/sodipodi-0.dtd"
   xmlns:inkscape="http://www.inkscape.org/namespaces/inkscape"
   width="500"
   height="76.019997"
   viewBox="0 0 500 76.019997"
   id="svg2"
   version="1.1"
   inkscape:version="0.91 r13725"
   sodipodi:docname="ink-apropos-logo-texte.svg">
  <metadata
     id="metadata12">
    <rdf:RDF>
      <cc:Work
         rdf:about="">
        <dc:format>image/svg+xml</dc:format>
        <dc:type
           rdf:resource="http://purl.org/dc/dcmitype/StillImage" />
        <dc:title></dc:title>
      </cc:Work>
    </rdf:RDF>
  </metadata>
  <defs
     id="defs10" />
  <sodipodi:namedview
     pagecolor="#ffffff"
     bordercolor="#666666"
     borderopacity="1"
     objecttolerance="10"
     gridtolerance="10"
     guidetolerance="10"
     inkscape:pageopacity="0"
     inkscape:pageshadow="2"
     inkscape:window-width="1920"
     inkscape:window-height="1018"
     id="namedview8"
     showgrid="false"
     inkscape:zoom="2.436993"
     inkscape:cx="217.43396"
     inkscape:cy="3.3220804"
     inkscape:window-x="-8"
     inkscape:window-y="-8"
     inkscape:window-maximized="1"
     inkscape:current-layer="svg2"
     inkscape:showpageshadow="false" />
  <g
     font-weight="300"
     font-size="19.694"
     letter-spacing="0"
     word-spacing="0"
     id="g4"
     style="font-weight:300;font-size:19.69400024px;font-family:'Segoe UI';letter-spacing:0;word-spacing:0;fill:#676767;fill-opacity:0.99199997;stroke:#666666;stroke-width:0.2"
     transform="matrix(9.2656524,0,0,9.2656524,-9.4322489,-8.3136309)">
    <path
       d="m 6.876,8.908 -0.894,-2.433 -3.392,0 -0.895,2.433 -0.595,0 2.95,-7.82 0.514,0 2.918,7.82 -0.606,0 z M 4.476,2.363 Q 4.416,2.199 4.378,2.041 4.34,1.906 4.298,1.769 l -0.023,0 Q 4.182,2.129 4.095,2.353 L 2.78,5.98 l 3.016,0 -1.32,-3.617 z m 9.06,3.409 0,3.136 -0.54,0 0,-7.82 1.887,0 q 1.206,0 1.844,0.56 0.638,0.557 0.638,1.63 0,1.092 -0.715,1.796 -0.71,0.698 -1.99,0.698 l -1.124,0 z m 0,-4.19 0,3.693 1.113,0 q 1.057,0 1.608,-0.5 0.55,-0.51 0.55,-1.43 0,-1.762 -2.023,-1.762 l -1.25,0 z m 9.791,7.326 -1.042,-2.29 Q 21.963,5.908 21.642,5.668 21.32,5.423 20.834,5.423 l -0.97,0 0,3.485 -0.54,0 0,-7.82 2.17,0 q 1.037,0 1.626,0.56 0.594,0.557 0.594,1.473 0,0.846 -0.485,1.414 -0.487,0.567 -1.36,0.73 l 0,0.022 q 0.464,0.186 0.906,1.13 l 1.162,2.492 -0.61,0 z m -3.464,-7.325 0,3.35 1.348,0 q 0.895,0 1.42,-0.47 0.528,-0.47 0.528,-1.287 0,-0.748 -0.475,-1.168 Q 22.21,1.583 21.326,1.583 l -1.462,0 z m 9.693,7.461 q -1.658,0 -2.646,-1.1 -0.98,-1.103 -0.98,-2.865 0,-1.872 1.008,-2.995 1.014,-1.13 2.765,-1.13 1.582,0 2.558,1.086 0.983,1.08 0.983,2.837 0,1.942 -1.004,3.055 -1.004,1.112 -2.684,1.112 z M 29.61,1.447 q -1.363,0 -2.247,0.987 -0.878,0.987 -0.878,2.585 0,1.614 0.835,2.574 0.834,0.954 2.225,0.954 1.45,0 2.296,-0.944 0.847,-0.95 0.847,-2.64 0,-1.658 -0.83,-2.585 -0.823,-0.933 -2.247,-0.933 z m 6.13,4.325 0,3.136 -0.54,0 0,-7.82 1.89,0 q 1.204,0 1.842,0.56 0.638,0.557 0.638,1.63 0,1.092 -0.714,1.796 -0.71,0.698 -1.99,0.698 l -1.126,0 z m 0,-4.19 0,3.693 1.114,0 q 1.058,0 1.61,-0.5 0.55,-0.51 0.55,-1.43 0,-1.762 -2.024,-1.762 l -1.25,0 z m 9.416,7.462 q -1.658,0 -2.645,-1.1 -0.98,-1.103 -0.98,-2.865 0,-1.872 1.008,-2.995 1.014,-1.13 2.765,-1.13 1.582,0 2.558,1.086 0.983,1.08 0.983,2.837 0,1.942 -1.004,3.055 -1.004,1.112 -2.684,1.112 z M 45.21,1.447 q -1.363,0 -2.247,0.987 -0.878,0.987 -0.878,2.585 0,1.614 0.835,2.574 0.834,0.954 2.225,0.954 1.45,0 2.296,-0.944 0.847,-0.95 0.847,-2.64 0,-1.658 -0.83,-2.585 -0.823,-0.933 -2.247,-0.933 z m 5.592,7.183 0,-0.616 q 0.84,0.534 1.7,0.534 0.918,0 1.392,-0.376 0.475,-0.382 0.475,-1.064 0,-0.6 -0.323,-0.954 -0.316,-0.36 -1.38,-0.977 -1.19,-0.692 -1.505,-1.156 -0.317,-0.468 -0.317,-1.08 0,-0.828 0.644,-1.406 0.642,-0.578 1.717,-0.578 0.698,0 1.396,0.234 l 0,0.567 q -0.687,-0.31 -1.467,-0.31 -0.796,0 -1.265,0.403 -0.463,0.404 -0.463,1.026 0,0.6 0.316,0.954 0.322,0.355 1.38,0.965 1.097,0.622 1.457,1.108 0.365,0.48 0.365,1.107 0,0.9 -0.627,1.467 -0.622,0.567 -1.762,0.567 -0.404,0 -0.933,-0.125 -0.523,-0.127 -0.8,-0.29 z"
       style="line-height:125%;-inkscape-font-specification:'Segoe UI, Light';text-align:start;opacity:0.98000004;stroke-width:0.113442"
       id="path6"
       inkscape:connector-curvature="0" />
  </g>
</svg>
