<?xml version="1.0" encoding="UTF-8" standalone="no"?>
<!-- Created with Inkscape (http://www.inkscape.org/) -->

<svg
   xmlns:dc="http://purl.org/dc/elements/1.1/"
   xmlns:cc="http://creativecommons.org/ns#"
   xmlns:rdf="http://www.w3.org/1999/02/22-rdf-syntax-ns#"
   xmlns:svg="http://www.w3.org/2000/svg"
   xmlns="http://www.w3.org/2000/svg"
   xmlns:sodipodi="http://sodipodi.sourceforge.net/DTD/sodipodi-0.dtd"
   xmlns:inkscape="http://www.inkscape.org/namespaces/inkscape"
   width="56"
   height="56"
   viewBox="0 0 56 56"
   id="svg4345"
   version="1.1"
   inkscape:version="0.91 r13725"
   sodipodi:docname="ink-apropos-logo.svg"
   inkscape:export-filename="C:\Projets\orthophonie\src\assets\images\logo.png"
   inkscape:export-xdpi="321.42999"
   inkscape:export-ydpi="321.42999">
  <defs
     id="defs4347" />
  <sodipodi:namedview
     id="base"
     pagecolor="#ffffff"
     bordercolor="#666666"
     borderopacity="1.0"
     inkscape:pageopacity="0.0"
     inkscape:pageshadow="2"
     inkscape:zoom="16"
     inkscape:cx="37.539337"
     inkscape:cy="21.533776"
     inkscape:document-units="px"
     inkscape:current-layer="layer1"
     showgrid="true"
     units="px"
     inkscape:showpageshadow="false">
    <inkscape:grid
       type="xygrid"
       id="grid4212" />
  </sodipodi:namedview>
  <metadata
     id="metadata4350">
    <rdf:RDF>
      <cc:Work
         rdf:about="">
        <dc:format>image/svg+xml</dc:format>
        <dc:type
           rdf:resource="http://purl.org/dc/dcmitype/StillImage" />
        <dc:title></dc:title>
      </cc:Work>
    </rdf:RDF>
  </metadata>
  <g
     inkscape:label="Calque 1"
     inkscape:groupmode="layer"
     id="layer1"
     transform="translate(0,-996.36216)">
    <g
       id="g4264"
       transform="translate(-3.034005e-6,-0.62256506)">
      <g
         transform="matrix(1.2156961,0,0,1.2156961,-6.0394954,-220.95074)"
         id="g4181">
        <path
           style="font-style:normal;font-variant:normal;font-weight:300;font-stretch:normal;font-size:medium;line-height:125%;font-family:'Segoe UI';-inkscape-font-specification:'Segoe UI, Light';text-align:start;letter-spacing:0px;word-spacing:0px;writing-mode:lr-tb;text-anchor:start;fill:#5a7eaa;fill-opacity:1;stroke:none;stroke-width:1px;stroke-linecap:butt;stroke-linejoin:miter;stroke-opacity:1"
           d="m 34.885856,1004.567 c -0.377498,-0.096 -0.38351,0.097 0.100334,0.6083 0.976911,1.1395 0.897602,1.0455 1.269977,1.4549 0.447649,0.5479 1.027574,1.4175 1.622498,2.3763 1.189849,1.9176 2.439514,4.1937 2.810218,4.9777 0.507905,1.0741 0.856251,2.133 1.058465,3.2509 0.202219,1.1179 0.258162,2.2945 0.181685,3.6054 -0.05401,0.9258 -0.183323,1.8165 -0.376924,2.6463 -0.193602,0.8298 -0.451259,1.5993 -0.761985,2.2837 -0.31073,0.6843 -0.67477,1.284 -1.080161,1.7734 -0.405391,0.4895 -0.85204,0.8689 -1.329636,1.114 -0.329585,0.1691 -0.720384,0.287 -1.138007,0.3563 -0.417627,0.069 -0.862674,0.089 -1.301613,0.063 -0.438939,-0.026 -0.871936,-0.1 -1.265461,-0.2178 -0.39352,-0.1182 -0.747249,-0.2817 -1.028633,-0.4877 -0.631541,-0.4622 -1.310028,-1.1025 -1.933442,-1.8328 -0.623409,-0.7303 -1.192019,-1.5508 -1.604416,-2.371 -0.206199,-0.4101 -0.373606,-0.82 -0.489009,-1.2192 -0.115408,-0.3991 -0.178821,-0.7875 -0.17807,-1.1535 1.57e-4,-0.077 0.03749,-0.1388 0.04339,-0.2133 -1.134993,2.3096 -0.939156,5.1371 0.723119,7.5169 1.922459,2.7522 6.032939,3.8064 9.143836,2.3448 3.161795,-1.4855 5.286496,-5.4165 5.613211,-10.3853 0.398856,-6.066 -2.657402,-11.975 -7.950692,-15.3693 -1.001782,-0.6424 -1.751179,-1.0262 -2.128681,-1.122 z"
           id="path4334-9-7"
           inkscape:connector-curvature="0"
           sodipodi:nodetypes="sccssssssscsssssssscsssss" />
        <path
           style="font-style:normal;font-variant:normal;font-weight:300;font-stretch:normal;font-size:medium;line-height:125%;font-family:'Segoe UI';-inkscape-font-specification:'Segoe UI, Light';text-align:start;letter-spacing:0px;word-spacing:0px;writing-mode:lr-tb;text-anchor:start;fill:#e99235;fill-opacity:0.93333333;stroke:none;stroke-width:1px;stroke-linecap:butt;stroke-linejoin:miter;stroke-opacity:1"
           d="m 26.946917,1002.6855 c -2.04046,0.061 -4.282172,0.6452 -6.525244,1.7465 -5.476762,2.6892 -9.088775,8.2784 -9.395121,14.5388 -0.115952,2.3696 0.161508,3.3508 0.566744,2.0056 0.295831,-0.7152 0.518947,-1.4397 0.630922,-1.8221 0.252867,-0.6599 0.718839,-1.5937 1.255515,-2.586 1.07335,-1.9845 2.429208,-4.2003 2.925919,-4.9119 0.680554,-0.9749 1.428064,-1.805 2.299518,-2.5383 0.871454,-0.7333 1.867426,-1.3702 3.046138,-1.9597 0.832445,-0.4164 1.671507,-0.7499 2.49024,-0.9979 0.818733,-0.248 1.616561,-0.4107 2.36731,-0.485 0.75075,-0.074 1.454087,-0.06 2.082582,0.045 0.628496,0.1048 1.182279,0.3002 1.63425,0.5894 0.311902,0.1996 0.610401,0.4772 0.879493,0.8026 0.269093,0.3254 0.508618,0.6989 0.705042,1.0905 0.19642,0.3917 0.349013,0.8011 0.44291,1.1994 0.09389,0.3984 0.129786,0.7855 0.09129,1.1311 -0.0864,0.7756 -0.305459,1.6807 -0.629111,2.5833 -0.323656,0.9026 -0.752668,1.8023 -1.260036,2.568 -0.253682,0.3828 -0.526648,0.732 -0.81622,1.0311 -0.289572,0.2991 -0.595075,0.5483 -0.913842,0.7306 -0.06652,0.038 -0.139375,0.037 -0.206992,0.069 2.576624,-0.1764 4.938069,-1.7592 6.177242,-4.3819 1.433214,-3.0335 0.294283,-7.1044 -2.532725,-9.0555 -1.43663,-0.9915 -3.275366,-1.4538 -5.315825,-1.3929 z"
           id="path4291-85-1"
           inkscape:connector-curvature="0"
           sodipodi:nodetypes="sssccsssssssssscssssscsss" />
        <path
           style="font-style:normal;font-variant:normal;font-weight:300;font-stretch:normal;font-size:medium;line-height:125%;font-family:'Segoe UI';-inkscape-font-specification:'Segoe UI, Light';text-align:start;letter-spacing:0px;word-spacing:0px;writing-mode:lr-tb;text-anchor:start;fill:#6baa50;fill-opacity:0.93333333;stroke:none;stroke-width:1px;stroke-linecap:butt;stroke-linejoin:miter;stroke-opacity:1"
           d="m 18.612972,1017.1622 c -3.355674,0.2812 -6.328127,3.298 -6.612017,6.7106 -0.288532,3.4685 2.069336,7.2657 6.228764,10.0317 5.077906,3.3769 11.746181,3.6957 17.345814,0.8296 2.119518,-1.0848 2.834528,-1.8142 1.461602,-1.4909 -1.340826,0.2511 -0.837832,0.1576 -1.4607,0.269 -0.540819,0.125 -1.323943,0.2417 -2.317594,0.3239 -0.993651,0.082 -2.156801,0.1315 -3.331771,0.1251 -1.174971,-0.01 -2.361792,-0.068 -3.404986,-0.2069 -1.18208,-0.1576 -2.277297,-0.3867 -3.35256,-0.7568 -0.537631,-0.185 -1.070214,-0.4052 -1.606227,-0.6694 -0.536013,-0.2642 -1.0759,-0.5724 -1.627017,-0.9331 -0.778435,-0.5095 -1.488181,-1.0666 -2.113315,-1.6484 -0.625134,-0.5818 -1.165301,-1.1886 -1.605324,-1.7987 -0.440023,-0.61 -0.779319,-1.2233 -1.002423,-1.8175 -0.223104,-0.5942 -0.330239,-1.1691 -0.304614,-1.7033 0.01768,-0.3687 0.109983,-0.7643 0.258515,-1.159 0.148532,-0.3946 0.353155,-0.7883 0.595669,-1.1535 0.242514,-0.3651 0.522918,-0.7015 0.822548,-0.9816 0.29963,-0.2802 0.618367,-0.5038 0.938246,-0.6434 0.717935,-0.3133 1.614582,-0.5781 2.561649,-0.7504 0.947066,-0.1723 1.944689,-0.2525 2.864454,-0.198 0.459882,0.027 0.900253,0.089 1.30523,0.189 0.404975,0.1001 0.774797,0.2393 1.092813,0.4229 0.06679,0.039 0.102407,0.1023 0.164509,0.1449 -1.441692,-2.1338 -3.999394,-3.379 -6.901265,-3.1358 z"
           id="path4301-5-3"
           inkscape:connector-curvature="0"
           sodipodi:nodetypes="ssssccsssssssssssssssssscs" />
      </g>
      <g
         id="g4894"
         transform="matrix(0.56720679,0,0,0.56720679,-320.4636,830.03264)">
        <path
           inkscape:connector-curvature="0"
           id="path4680-0"
           style="font-style:normal;font-variant:normal;font-weight:300;font-stretch:normal;font-size:19.69375038px;line-height:125%;font-family:'Segoe UI';-inkscape-font-specification:'Segoe UI, Light';text-align:start;letter-spacing:0px;word-spacing:0px;writing-mode:lr-tb;text-anchor:start;display:inline;opacity:0.98009997;fill:#676767;fill-opacity:0.99215686;stroke:#666666;stroke-width:0.2;stroke-linecap:butt;stroke-linejoin:miter;stroke-miterlimit:4;stroke-dasharray:none;stroke-opacity:1"
           d="m 577.10878,390.93405 -1.57704,-4.28878 -5.9812,0 -1.57704,4.28878 -1.04816,0 5.20231,-13.78948 0.90391,0 5.14461,13.78948 -1.06739,0 z m -4.23108,-11.53931 q -0.10577,-0.28848 -0.17309,-0.56735 -0.0673,-0.2404 -0.14424,-0.48081 l -0.0385,0 q -0.16348,0.63467 -0.31733,1.02893 l -2.31748,6.3947 5.3177,0 -2.3271,-6.37547 z" />
        <path
           inkscape:connector-curvature="0"
           id="path4682-0"
           style="font-style:normal;font-variant:normal;font-weight:300;font-stretch:normal;font-size:19.69375038px;line-height:125%;font-family:'Segoe UI';-inkscape-font-specification:'Segoe UI, Light';text-align:start;letter-spacing:0px;word-spacing:0px;writing-mode:lr-tb;text-anchor:start;display:inline;opacity:0.98009997;fill:#676767;fill-opacity:0.99215686;stroke:#666666;stroke-width:0.2;stroke-linecap:butt;stroke-linejoin:miter;stroke-miterlimit:4;stroke-dasharray:none;stroke-opacity:1"
           d="m 588.84984,385.40479 0,5.52926 -0.95199,0 0,-13.78948 3.32716,0 q 2.12516,0 3.25024,0.99046 1.12508,0.98084 1.12508,2.87521 0,1.92322 -1.2597,3.16369 -1.2501,1.23086 -3.50988,1.23086 l -1.98091,0 z m 0,-7.38515 0,6.51009 1.96168,0 q 1.86552,0 2.83675,-0.88468 0.97122,-0.8943 0.97122,-2.51942 0,-3.10599 -3.56757,-3.10599 l -2.20208,0 z" />
        <path
           inkscape:connector-curvature="0"
           id="path4684-0"
           style="font-style:normal;font-variant:normal;font-weight:300;font-stretch:normal;font-size:19.69375038px;line-height:125%;font-family:'Segoe UI';-inkscape-font-specification:'Segoe UI, Light';text-align:start;letter-spacing:0px;word-spacing:0px;writing-mode:lr-tb;text-anchor:start;display:inline;opacity:0.98009997;fill:#676767;fill-opacity:0.99215686;stroke:#666666;stroke-width:0.2;stroke-linecap:butt;stroke-linejoin:miter;stroke-miterlimit:4;stroke-dasharray:none;stroke-opacity:1"
           d="m 606.11146,390.93405 -1.83667,-4.03876 q -0.56735,-1.25009 -1.1347,-1.6732 -0.56735,-0.43273 -1.42318,-0.43273 l -1.71167,0 0,6.14469 -0.95199,0 0,-13.78948 3.8272,0 q 1.82706,0 2.8656,0.99046 1.04815,0.98084 1.04815,2.59634 0,1.4905 -0.85583,2.49057 -0.85583,1.00008 -2.39441,1.28856 l 0,0.0385 q 0.81737,0.32695 1.59628,1.99053 l 2.04822,4.39456 -1.077,0 z m -6.10622,-12.91441 0,5.90428 2.37518,0 q 1.57704,0 2.50018,-0.82699 0.93276,-0.82698 0.93276,-2.26939 0,-1.31741 -0.8366,-2.05785 -0.8366,-0.75005 -2.3944,-0.75005 l -2.57712,0 z" />
        <path
           inkscape:connector-curvature="0"
           id="path4686-9"
           style="font-style:normal;font-variant:normal;font-weight:300;font-stretch:normal;font-size:19.69375038px;line-height:125%;font-family:'Segoe UI';-inkscape-font-specification:'Segoe UI, Light';text-align:start;letter-spacing:0px;word-spacing:0px;writing-mode:lr-tb;text-anchor:start;display:inline;opacity:0.98009997;fill:#676767;fill-opacity:0.99215686;stroke:#666666;stroke-width:0.2;stroke-linecap:butt;stroke-linejoin:miter;stroke-miterlimit:4;stroke-dasharray:none;stroke-opacity:1"
           d="m 617.09303,391.17445 q -2.92329,0 -4.6638,-1.94245 -1.7309,-1.94245 -1.7309,-5.04845 0,-3.29832 1.77898,-5.27923 1.78859,-1.99053 4.87536,-1.99053 2.78866,0 4.50994,1.9136 1.7309,1.90398 1.7309,5.00037 0,3.42332 -1.76936,5.38501 -1.76936,1.96168 -4.73112,1.96168 z m 0.0962,-13.39521 q -2.40402,0 -3.96183,1.74051 -1.54819,1.74051 -1.54819,4.55802 0,2.84637 1.47126,4.5388 1.47127,1.68281 3.92337,1.68281 2.55788,0 4.04837,-1.66358 1.4905,-1.6732 1.4905,-4.65419 0,-2.92329 -1.46165,-4.55802 -1.45203,-1.64435 -3.96183,-1.64435 z" />
        <path
           inkscape:connector-curvature="0"
           id="path4688-6"
           style="font-style:normal;font-variant:normal;font-weight:300;font-stretch:normal;font-size:19.69375038px;line-height:125%;font-family:'Segoe UI';-inkscape-font-specification:'Segoe UI, Light';text-align:start;letter-spacing:0px;word-spacing:0px;writing-mode:lr-tb;text-anchor:start;display:inline;opacity:0.98009997;fill:#676767;fill-opacity:0.99215686;stroke:#666666;stroke-width:0.2;stroke-linecap:butt;stroke-linejoin:miter;stroke-miterlimit:4;stroke-dasharray:none;stroke-opacity:1"
           d="m 627.9984,385.40479 0,5.52926 -0.95199,0 0,-13.78948 3.32716,0 q 2.12516,0 3.25024,0.99046 1.12508,0.98084 1.12508,2.87521 0,1.92322 -1.2597,3.16369 -1.25009,1.23086 -3.50988,1.23086 l -1.98091,0 z m 0,-7.38515 0,6.51009 1.96168,0 q 1.86552,0 2.83675,-0.88468 0.97122,-0.8943 0.97122,-2.51942 0,-3.10599 -3.56757,-3.10599 l -2.20208,0 z" />
        <path
           inkscape:connector-curvature="0"
           id="path4690-3"
           style="font-style:normal;font-variant:normal;font-weight:300;font-stretch:normal;font-size:19.69375038px;line-height:125%;font-family:'Segoe UI';-inkscape-font-specification:'Segoe UI, Light';text-align:start;letter-spacing:0px;word-spacing:0px;writing-mode:lr-tb;text-anchor:start;display:inline;opacity:0.98009997;fill:#676767;fill-opacity:0.99215686;stroke:#666666;stroke-width:0.2;stroke-linecap:butt;stroke-linejoin:miter;stroke-miterlimit:4;stroke-dasharray:none;stroke-opacity:1"
           d="m 644.59651,391.17445 q -2.92329,0 -4.6638,-1.94245 -1.7309,-1.94245 -1.7309,-5.04845 0,-3.29832 1.77898,-5.27923 1.78859,-1.99053 4.87536,-1.99053 2.78866,0 4.50994,1.9136 1.7309,1.90398 1.7309,5.00037 0,3.42332 -1.76936,5.38501 -1.76936,1.96168 -4.73112,1.96168 z m 0.0962,-13.39521 q -2.40402,0 -3.96183,1.74051 -1.54819,1.74051 -1.54819,4.55802 0,2.84637 1.47127,4.5388 1.47126,1.68281 3.92336,1.68281 2.55788,0 4.04837,-1.66358 1.4905,-1.6732 1.4905,-4.65419 0,-2.92329 -1.46165,-4.55802 -1.45203,-1.64435 -3.96183,-1.64435 z" />
        <path
           inkscape:connector-curvature="0"
           id="path4692-2"
           style="font-style:normal;font-variant:normal;font-weight:300;font-stretch:normal;font-size:19.69375038px;line-height:125%;font-family:'Segoe UI';-inkscape-font-specification:'Segoe UI, Light';text-align:start;letter-spacing:0px;word-spacing:0px;writing-mode:lr-tb;text-anchor:start;display:inline;opacity:0.98009997;fill:#676767;fill-opacity:0.99215686;stroke:#666666;stroke-width:0.2;stroke-linecap:butt;stroke-linejoin:miter;stroke-miterlimit:4;stroke-dasharray:none;stroke-opacity:1"
           d="m 654.54989,390.44362 0,-1.08661 q 1.48088,0.94237 3.00022,0.94237 1.61551,0 2.45211,-0.66351 0.8366,-0.67312 0.8366,-1.87513 0,-1.05777 -0.56735,-1.68282 -0.55774,-0.63466 -2.43287,-1.72128 -2.09631,-1.22124 -2.65404,-2.03861 -0.55774,-0.82698 -0.55774,-1.90399 0,-1.46164 1.1347,-2.48095 1.1347,-1.0193 3.02907,-1.0193 1.23086,0 2.46172,0.41349 l 0,1.00007 q -1.21163,-0.54811 -2.58673,-0.54811 -1.40395,0 -2.23093,0.71159 -0.81737,0.71159 -0.81737,1.80782 0,1.05777 0.55773,1.68282 0.56735,0.62504 2.43287,1.70204 1.93284,1.09624 2.5675,1.95207 0.64428,0.84622 0.64428,1.95207 0,1.58665 -1.10585,2.58672 -1.09624,1.00008 -3.106,1.00008 -0.71159,0 -1.64435,-0.22117 -0.92315,-0.22117 -1.41357,-0.50966 z" />
      </g>
    </g>
  </g>
</svg>
